<?xml version="1.0" encoding="utf-8"?>
<!-- Generator: Adobe Illustrator 16.0.0, SVG Export Plug-In . SVG Version: 6.00 Build 0)  -->
<!DOCTYPE svg PUBLIC "-//W3C//DTD SVG 1.1//EN" "http://www.w3.org/Graphics/SVG/1.1/DTD/svg11.dtd">
<svg version="1.1" id="Layer_2" xmlns="http://www.w3.org/2000/svg" xmlns:xlink="http://www.w3.org/1999/xlink" x="0px" y="0px"
	 width="512px" height="512px" viewBox="0 0 512 512" enable-background="new 0 0 512 512" xml:space="preserve">
<g>
	<polygon fill="#FFFFFF" stroke="#000000" stroke-miterlimit="10" points="486.94,512 0,512 0,25.424 293.883,25.424 278.962,6.015 
		354.919,25.875 355.822,44.833 330.956,38.063 342.712,61.984 284.387,84.102 376.169,83.199 278.962,146.392 415.504,103.511 
		374.813,247.949 426.808,163.091 443.987,238.47 476.089,112.539 470.212,96.74 491.461,96.289 511.807,127.885 486.94,129.69 	"/>
	<polygon points="467.046,491.236 19.441,491.236 19.441,47.542 314.68,47.542 184.016,98.997 314.228,101.254 110.771,217.256 
		384.759,133.753 311.969,385.165 418.217,217.708 436.302,324.681 467.046,218.61 467.046,269.389 467.046,304.821 	"/>
	<polygon fill="#CF5E33" points="110.771,217.256 37.979,252.915 37.979,64.242 271.275,64.242 184.016,98.997 314.228,101.254 	"/>
	<polygon fill="#CF5E33" points="436.302,324.681 446.249,290.363 446.249,470.926 278.962,470.926 311.969,385.165 
		418.217,217.708 	"/>
	<polygon fill="#FFFFFF" stroke="#FFFFFF" stroke-miterlimit="10" points="199.388,131.496 168.643,163.091 160.053,123.823 	"/>
	<polygon fill="#FFFFFF" stroke="#FFFFFF" stroke-miterlimit="10" points="405.106,326.486 379.785,334.161 392.446,300.309 	"/>
	<polygon fill="#FFFFFF" stroke="#FFFFFF" stroke-miterlimit="10" points="443.535,416.311 402.393,416.311 424.094,375.687 
		439.919,393.29 	"/>
	<polygon fill="#FFFFFF" stroke="#FFFFFF" stroke-miterlimit="10" points="225.806,277.24 142.377,359.735 157.347,373.677 
		239.284,290.595 253.238,304.42 156.993,400.76 114.793,358.479 210.569,262.143 	"/>
	<polygon fill="#FFFFFF" stroke="#FFFFFF" stroke-miterlimit="10" points="198.336,459.143 161.105,406.772 194.765,373.479 	"/>
	<polygon fill="#FFFFFF" stroke="#FFFFFF" stroke-miterlimit="10" points="56.478,315.544 108.887,352.777 142.28,319.215 	"/>
	<polygon fill="#FFFFFF" stroke="#FFFFFF" stroke-miterlimit="10" points="214.689,236.103 255.903,197.847 354.467,163.091 
		305.185,277.739 282.127,299.856 257.259,303.467 212.047,259.009 	"/>
	<polygon stroke="#000000" stroke-miterlimit="10" points="316.864,283.938 307.275,286.582 277.819,180.108 287.407,177.463 	"/>
	<polygon stroke="#000000" stroke-miterlimit="10" points="338.399,265.052 328.811,267.695 299.354,161.222 308.942,158.578 	"/>
	<polygon points="350.759,217.774 341.17,220.419 326.04,165.735 335.628,163.091 	"/>
	<polygon fill="#FFFFFF" points="212.047,41.222 205.718,57.923 184.016,41.222 212.047,41.222 	"/>
	<polygon fill="#FFFFFF" points="127.047,404.123 111.223,389.679 111.223,365.305 150.558,404.123 	"/>
</g>
</svg>
