<?xml version="1.0" encoding="utf-8"?>
<!-- Generator: Adobe Illustrator 16.0.0, SVG Export Plug-In . SVG Version: 6.00 Build 0)  -->
<!DOCTYPE svg PUBLIC "-//W3C//DTD SVG 1.1//EN" "http://www.w3.org/Graphics/SVG/1.1/DTD/svg11.dtd">
<svg version="1.1" id="Layer_2" xmlns="http://www.w3.org/2000/svg" xmlns:xlink="http://www.w3.org/1999/xlink" x="0px" y="0px"
	 width="512px" height="512px" viewBox="0 0 512 512" enable-background="new 0 0 512 512" xml:space="preserve">
<g>
	<polygon fill="#FFFFFF" stroke="#000000" stroke-miterlimit="10" points="483.122,487.034 306.324,486.617 294.593,499.568 
		264.429,453.612 221.276,495.39 197.815,423.95 114.862,510.538 102.712,372.982 31.072,444.421 31.072,36.678 483.122,36.678 	"/>
	<polygon points="465.106,468.235 320.568,468.235 346.125,436.902 346.125,420.191 336.489,420.191 293.337,468.235 
		265.686,425.205 228.817,464.058 205.356,384.68 127.85,472.412 114.862,329.117 50.344,397.215 50.344,54.642 465.106,54.642 	"/>
	<polygon fill="#F2C439" points="447.092,450.688 373.774,450.688 348.22,450.688 356.598,439.826 356.179,408.911 333.137,409.328 
		296.27,450.688 266.496,403.455 237.197,435.23 213.735,346.245 133.296,456.537 128.269,294.024 67.939,350.842 67.939,72.606 
		447.092,72.606 	"/>
	<polygon stroke="#000000" stroke-miterlimit="10" points="233.007,281.908 135.391,450.688 233.426,146.134 272.389,198.773 
		343.609,1.462 452.976,52.981 269.875,368.387 	"/>
	<polygon fill="#FFFFFF" stroke="#000000" stroke-miterlimit="10" points="234.34,259.39 135.391,450.688 238.872,172.871 
		275.321,223.839 357.893,8.189 439.228,46.505 271.969,343.32 	"/>
</g>
</svg>
