<?xml version="1.0" encoding="utf-8"?>
<!-- Generator: Adobe Illustrator 16.0.0, SVG Export Plug-In . SVG Version: 6.00 Build 0)  -->
<!DOCTYPE svg PUBLIC "-//W3C//DTD SVG 1.1//EN" "http://www.w3.org/Graphics/SVG/1.1/DTD/svg11.dtd">
<svg version="1.1" id="Layer_2" xmlns="http://www.w3.org/2000/svg" xmlns:xlink="http://www.w3.org/1999/xlink" x="0px" y="0px"
	 width="512px" height="512px" viewBox="0 0 512 512" enable-background="new 0 0 512 512" xml:space="preserve">
<g>
	<rect x="17.72" y="33.067" fill="#FFFFFF" stroke="#000000" stroke-miterlimit="10" width="477.235" height="476.464"/>
	<rect x="38.065" y="52.939" stroke="#000000" stroke-miterlimit="10" width="436.544" height="436.278"/>
	<rect x="56.2" y="72.368" fill="#BE9431" width="399.391" height="398.746"/>
	<polygon stroke="#000000" stroke-miterlimit="10" points="437.899,124.033 437.899,375.732 256.337,489.218 76.987,375.29 
		76.987,124.033 255.895,52.939 	"/>
	<ellipse stroke="#000000" stroke-miterlimit="10" cx="253.684" cy="124.344" rx="123.179" ry="121.876"/>
	<path fill="#FFFFFF" stroke="#FFFFFF" stroke-miterlimit="10" d="M361.76,72.278c0,0-106.682-137.706-214.955,0.137
		c0,0-10.57,71.1-37.086,105.561c0,0,3.989,12.804,15.048,14.122c11.058,1.317,3.531-11.043,25.199-16.796
		c21.669-5.755,34.521,31.771,34.521,31.771s7.99,45.036,7.132,86.545c0,0,8.397-7.07,11.924-26.061
		c3.526-18.99,1.302-37.536,7.046-48.137l15.487,10.146l15.022-23.855l13.498,12.798l-0.91,0.021l13.488-12.806l15.039,23.845
		l15.48-10.156c5.751,10.597,3.538,29.144,7.076,48.132s11.941,26.052,11.941,26.052c-0.885-41.508,7.077-86.549,7.077-86.549
		s12.827-37.534,34.499-31.793c21.672,5.74,14.152,18.104,25.211,16.779c11.057-1.323,15.039-14.13,15.039-14.13
		c-26.538-34.444-37.154-105.537-37.154-105.537c-108.362-137.772-214.954,0-214.954,0"/>
	<path stroke="#000000" stroke-miterlimit="10" d="M253.685,160.242c-9.51-1.326-13.049,0-13.049,0c-11.058,8.831-18.134,0-18.134,0
		c-14.154-16.339,25.211-62.705,25.211-62.705s6.64-7.045,12.166-0.028c0,0,39.2,46.502,24.988,62.792c0,0-7.108,8.807-18.132-0.064
		c0,0-3.537-1.337-13.05-0.046"/>
	<path stroke="#000000" stroke-miterlimit="10" d="M180.926,63.094c0,0-33.172-0.882-27.865,52.99c0,0-0.441,14.062,27.865,13.213
		c0,0,32.858-7.59,48.21-39.707C244.488,57.472,180.926,63.094,180.926,63.094z"/>
	<path stroke="#000000" stroke-miterlimit="10" d="M329.082,63.096c0,0,33.176-0.869,27.844,53.001c0,0,0.437,14.061-27.869,13.201
		c0,0-32.856-7.603-48.193-39.727C265.524,57.447,329.082,63.096,329.082,63.096z"/>
	<path fill="#FFFFFF" stroke="#FFFFFF" stroke-miterlimit="10" d="M256.337,438.813l18.158-19.849l7.771,8.399l19.255-48.112
		l13.682,25.188c15.955-28.686,42.233-187.182,42.233-187.182c8.42-12.796,10.177-4.845,10.177-4.845s0.872,11.041,15.896,22.539
		c0,0-33.676,54.276-53.279,177.895c0,0-28.354,40.151-72.803,40.101l-1.09,0.062c-44.45,0-72.758-40.184-72.758-40.184
		c-19.46-123.644-53.075-177.957-53.075-177.957c15.039-11.48,15.923-22.521,15.923-22.521s1.768-7.948,10.172,4.857
		c0,0,26.096,158.529,42.018,187.231l13.711-25.172l19.199,48.133l7.781-8.391l18.134,19.871"/>
	<ellipse fill="#FFFFFF" stroke="#FFFFFF" stroke-miterlimit="10" cx="253.241" cy="312.145" rx="50.201" ry="50.782"/>
	<polygon fill="#FFFFFF" stroke="#FFFFFF" stroke-miterlimit="10" points="272.481,267.986 234.001,267.986 234.001,246.221 
		248.155,257.104 259.213,257.104 272.481,246.221 	"/>
	
		<ellipse fill="#FFFFFF" stroke="#000000" stroke-width="5" stroke-miterlimit="10" cx="253.758" cy="312.588" rx="34.211" ry="34.884"/>
	<path stroke="#000000" stroke-miterlimit="10" d="M277.59,312.248c0,13.282-10.823,24.052-24.176,24.052
		c-13.349,0-24.172-10.77-24.172-24.052c0-13.287,10.823-24.056,24.172-24.056C266.767,288.192,277.59,298.961,277.59,312.248z"/>
	<polygon stroke="#000000" stroke-miterlimit="10" points="254.401,244.841 248.18,232.636 234.583,230.834 244.286,221.155 
		241.803,207.688 254.021,213.911 266.082,207.39 263.929,220.916 273.87,230.353 260.318,232.489 	"/>
</g>
</svg>
