<?xml version="1.0" encoding="utf-8"?>
<!-- Generator: Adobe Illustrator 16.0.0, SVG Export Plug-In . SVG Version: 6.00 Build 0)  -->
<!DOCTYPE svg PUBLIC "-//W3C//DTD SVG 1.1//EN" "http://www.w3.org/Graphics/SVG/1.1/DTD/svg11.dtd">
<svg version="1.1" id="Layer_2" xmlns="http://www.w3.org/2000/svg" xmlns:xlink="http://www.w3.org/1999/xlink" x="0px" y="0px"
	 width="512px" height="512px" viewBox="0 0 512 512" enable-background="new 0 0 512 512" xml:space="preserve">
<g>
	<rect x="18.219" y="16.917" fill="#FFFFFF" stroke="#000000" stroke-miterlimit="10" width="475.318" height="475.846"/>
	<rect x="38.501" y="36.669" stroke="#000000" stroke-miterlimit="10" width="435.634" height="437.239"/>
	<rect x="57.02" y="55.523" fill="#F2C439" width="399.037" height="399.98"/>
	<polygon stroke="#000000" stroke-miterlimit="10" points="385.51,389.513 256.978,446.525 128.45,389.513 128.45,99.515 
		255.877,82.009 385.51,99.515 	"/>
	<polygon fill="#FFFFFF" stroke="#FFFFFF" stroke-miterlimit="10" points="365.89,373.971 255.877,424.977 145.866,373.971 
		145.866,114.504 254.935,98.841 365.89,114.504 	"/>
	<polygon stroke="#000000" stroke-miterlimit="10" points="354.202,364.92 256.758,411.958 159.314,364.92 159.314,125.633 
		255.923,111.188 354.202,125.633 	"/>
	<polygon stroke="#000000" stroke-miterlimit="10" points="505,245.861 343.623,284.471 393.887,385.472 294.238,338.338 
		255.877,431.261 223.689,336.093 5.873,512.066 165.929,285.364 57.02,244.962 165.488,212.642 66.279,51.483 218.84,153.833 
		255.877,43.402 291.15,159.221 505,2.551 344.504,208.602 	"/>
	<polygon fill="#FFFFFF" stroke="#FFFFFF" stroke-miterlimit="10" points="470.032,245.464 331.552,278.594 374.686,365.271 
		289.173,324.818 256.256,404.562 228.636,322.894 41.722,473.9 179.07,279.364 85.614,244.695 178.691,216.958 93.559,78.665 
		224.474,166.494 256.256,71.731 286.525,171.116 470.032,36.677 332.31,213.49 	"/>
</g>
</svg>
