<?xml version="1.0" encoding="utf-8"?>
<!-- Generator: Adobe Illustrator 16.0.0, SVG Export Plug-In . SVG Version: 6.00 Build 0)  -->
<!DOCTYPE svg PUBLIC "-//W3C//DTD SVG 1.1//EN" "http://www.w3.org/Graphics/SVG/1.1/DTD/svg11.dtd">
<svg version="1.1" id="Layer_2" xmlns="http://www.w3.org/2000/svg" xmlns:xlink="http://www.w3.org/1999/xlink" x="0px" y="0px"
	 width="512px" height="512px" viewBox="0 0 512 512" enable-background="new 0 0 512 512" xml:space="preserve">
<g>
	<polygon fill="#FFFFFF" stroke="#000000" stroke-miterlimit="10" points="474.527,494.195 1.34,494.195 1.34,20.01 453.358,20.3 
		491.563,9.936 506.104,9.936 494.44,20.571 475.398,25.737 475.126,171.53 475.113,178.348 475.097,188.049 475.054,210.86 	"/>
	<rect x="20.268" y="38.96" stroke="#000000" stroke-miterlimit="10" width="434.891" height="436.726"/>
	<rect x="38.315" y="57.91" fill="#29799D" width="399.238" height="397.945"/>
	<polygon stroke="#000000" stroke-miterlimit="10" points="402.265,375.202 99.058,456.843 46.352,260.642 337.902,182.136 
		360.521,189.235 414.049,198.491 467.183,216.281 506.108,240.626 499.178,270.967 481.57,299.409 463.963,322.326 
		442.394,343.038 419.505,360.666 	"/>
	<polygon stroke="#000000" stroke-miterlimit="10" points="292.879,157.76 40.485,227.953 17.718,145.895 270.111,75.704 
		289.215,81.708 303.412,85.986 325.308,92.725 342.476,102.42 339.835,112.555 328.39,127.539 311.662,143.403 	"/>
	<polygon fill="#FFFFFF" stroke="#FFFFFF" stroke-miterlimit="10" points="155.609,440.277 102.766,244.303 116.373,240.626 
		169.215,436.6 	"/>
	<polygon fill="#FFFFFF" stroke="#FFFFFF" stroke-miterlimit="10" points="95.348,457.243 42.505,261.271 56.112,257.592 
		108.955,453.566 	"/>
	<polygon fill="#FFFFFF" stroke="#FFFFFF" stroke-miterlimit="10" points="64.216,220.296 42.505,140.062 53.127,137.18 
		74.838,217.416 	"/>
	<polygon fill="#FFFFFF" stroke="#FFFFFF" stroke-miterlimit="10" points="37.257,233.517 11.963,140.044 22.584,137.165 
		47.879,230.635 	"/>
	<path fill="#FFFFFF" stroke="#000000" stroke-miterlimit="10" d="M297.035,156.843c0,0,41.538-18.96,51.607-54.593
		c-30.731-26.937-81.369-25.916-81.369-25.916l-9.091,8.831c0,0,49.225-3.525,77.689,19.391
		c-11.602,32.915-52.91,52.287-52.91,52.287H297.035z"/>
	<path fill="#FFFFFF" stroke="#000000" stroke-miterlimit="10" d="M412.892,370.895c27.603-16.746,47.549-34.365,61.961-51.012
		c1.321-1.527,2.597-3.045,3.827-4.555c1.246-1.528,2.447-3.048,3.604-4.555c1.237-1.614,2.423-3.214,3.559-4.798
		c1.376-1.918,2.681-3.813,3.918-5.685c1.225-1.854,2.384-3.685,3.479-5.485c0.901-1.482,1.761-2.944,2.578-4.389
		c1.22-2.148,2.35-4.255,3.396-6.308c1.336-2.623,2.537-5.163,3.616-7.609c0.88-1.994,1.678-3.926,2.403-5.788
		c1.15-2.951,2.114-5.729,2.924-8.306c0.683-2.177,1.257-4.21,1.736-6.085c0.356-1.396,0.662-2.704,0.923-3.917
		c0.401-1.862,0.697-3.502,0.917-4.896c0.554-3.518,0.615-5.463,0.615-5.463c-1.439-1.839-2.954-3.621-4.537-5.349
		c-1.294-1.411-2.634-2.785-4.017-4.123c-1.547-1.497-3.147-2.949-4.797-4.359c-1.509-1.289-3.058-2.541-4.644-3.757
		c-1.898-1.456-3.849-2.861-5.848-4.218c-2.813-1.91-5.719-3.723-8.701-5.447c-55.354-31.968-137.294-32.657-137.294-32.657
		l-25.936,7.936c0,0,133.072,0.96,182.604,55.346c0,0,1.136,59.945-142.929,143.544L412.892,370.895z"/>
	<path fill="#FFFFFF" stroke="#FFFFFF" stroke-miterlimit="10" d="M321.347,204.072c0,0,73.509-3.377,83.634,5.876
		c0,0,23.328,10.577-4.844,18.068c0,0-11.443,3.526-25.089-2.202C375.048,225.814,361.402,214.943,321.347,204.072z"/>
	<polygon fill="#FFFFFF" stroke="#FFFFFF" stroke-miterlimit="10" points="451.554,32.206 15.866,150.401 12.988,139.767 
		448.676,21.571 	"/>
	<polygon fill="#FFFFFF" stroke="#FFFFFF" stroke-miterlimit="10" points="467.183,118.183 37.505,234.747 34.626,224.113 
		464.305,107.547 	"/>
	<path fill="#FFFFFF" stroke="#FFFFFF" stroke-miterlimit="10" d="M258.183,89.886c0,0,29.167-1.34,33.184,2.332
		c0,0,9.256,4.195-1.922,7.168c0,0-4.54,1.398-9.954-0.875C279.49,98.512,274.075,94.199,258.183,89.886z"/>
	<path fill="#FFFFFF" stroke="#FFFFFF" stroke-miterlimit="10" d="M380.243,376.039c0,0,19.81-34.322-16.726-8.322
		c0,0-51.5,14.543-73.509-29.085c0,0-9.244-22.917,33.894-40.104c0,0,138.215-77.563,110.043-22.476c0,0-3.961,11.015,12.324-8.374
		c0,0,5.282-7.931,5.723,12.341c0,0,0.441,9.254-32.571,38.78c0,0-19.658,22.142,42.991-6.778v14.711l-52.677,37.898
		L380.243,376.039z"/>
	<path fill="#FFFFFF" stroke="#FFFFFF" stroke-miterlimit="10" d="M311.425,140.033c0,0-16.135,2.93,3.674-16.021
		c0,0,18.927-30.407-28.612-12.339c0,0-70.54,34.706-22.008,41.866c0,0,26.662-4.219,6.507,7.146h18.191l21.96-14.637
		L311.425,140.033z"/>
	<polygon fill="#FFFFFF" stroke="#FFFFFF" stroke-miterlimit="10" points="467.064,150.799 16.612,273 12.927,259.382 
		463.38,137.18 	"/>
	<polygon fill="#FFFFFF" stroke="#FFFFFF" stroke-miterlimit="10" points="466.256,365.587 16.419,487.621 12.996,474.974 
		462.835,352.94 	"/>
	<rect x="455.684" y="189.185" fill="#FFFFFF" width="18.993" height="24.648"/>
	<rect x="455.684" y="317.493" fill="#FFFFFF" width="18.47" height="24.649"/>
</g>
</svg>
