<?xml version="1.0" encoding="utf-8"?>
<!-- Generator: Adobe Illustrator 16.0.0, SVG Export Plug-In . SVG Version: 6.00 Build 0)  -->
<!DOCTYPE svg PUBLIC "-//W3C//DTD SVG 1.1//EN" "http://www.w3.org/Graphics/SVG/1.1/DTD/svg11.dtd">
<svg version="1.1" id="Layer_2" xmlns="http://www.w3.org/2000/svg" xmlns:xlink="http://www.w3.org/1999/xlink" x="0px" y="0px"
	 width="512px" height="512px" viewBox="0 0 512 512" enable-background="new 0 0 512 512" xml:space="preserve">
<g>
	<polygon fill="#FFFFFF" stroke="#000000" stroke-miterlimit="10" points="478.22,479.945 267.656,479.945 267.652,401.585 
		244.844,401.72 244.44,479.945 33.469,479.945 33.469,32.625 478.22,32.625 	"/>
	<polygon stroke="#000000" stroke-miterlimit="10" points="459.484,461.67 290.871,461.67 291.278,401.447 220.411,401.862 
		220.411,461.67 51.797,461.67 51.797,50.899 459.484,50.899 	"/>
	<polygon fill="#4F8C40" points="443.192,426.783 255.641,68.344 68.495,426.783 68.495,68.344 443.192,68.344 	"/>
	<path stroke="#000000" stroke-miterlimit="10" d="M156.651,262.32c0,0-54.139,4.584-91.286,32.457l-0.055-47.141
		c55.297-33.919,119.521-36.198,119.521-36.198L156.651,262.32z"/>
	<path stroke="#000000" stroke-miterlimit="10" d="M354.722,262.36c0,0,54.143,4.517,91.323,32.344v-47.141
		c-55.337-33.851-119.564-36.051-119.564-36.051L354.722,262.36z"/>
	<polygon fill="#FFFFFF" stroke="#000000" stroke-miterlimit="10" points="309.605,223.265 284.76,223.265 285.576,336.238 
		267.656,336.652 245.255,336.652 226.521,336.238 227.334,223.265 202.084,223.265 202.084,349.264 245.255,366.142 
		267.656,366.142 309.605,349.264 	"/>
	<rect x="243.626" y="185.055" stroke="#000000" stroke-miterlimit="10" width="24.436" height="192.717"/>
	<polygon fill="#FFFFFF" stroke="#000000" stroke-miterlimit="10" points="512.446,307.441 255.844,398.955 255.844,378.457 
		476.587,299.572 	"/>
	<polygon fill="#FFFFFF" stroke="#000000" stroke-miterlimit="10" points="-0.529,307.392 256.042,398.993 256.048,378.494 
		35.333,299.534 	"/>
	<rect x="250.143" y="180.901" fill="#FFFFFF" stroke="#FFFFFF" stroke-miterlimit="10" width="11.811" height="206.839"/>
	<polygon fill="#FFFFFF" stroke="#FFFFFF" stroke-miterlimit="10" points="256.048,111.955 226.521,185.055 285.576,185.055 	"/>
	<path fill="#FFFFFF" stroke="#000000" stroke-miterlimit="10" d="M35.333,299.534c0,0,69.411-57.163,166.751-57.994v-18.275
		C73.791,224.927-0.529,307.392-0.529,307.392L35.333,299.534z"/>
	<path fill="#FFFFFF" stroke="#000000" stroke-miterlimit="10" d="M476.587,299.572c0,0-59.458-55.539-166.981-58.032v-18.275
		c0,0,111.624-8.582,202.841,84.176L476.587,299.572z"/>
	<polygon fill="#FFFFFF" points="263.989,393.556 255.844,398.955 247.699,393.556 247.699,387.74 263.989,387.74 	"/>
	<polygon fill="#FFFFFF" points="477.811,252.953 460.035,252.953 460.035,340.799 477.811,340.799 477.811,318.195 
		511.557,307.229 477.811,279.314 	"/>
	<polygon fill="#FFFFFF" points="51.285,240.998 34,240.998 34,279.055 0.523,307.16 34,318.596 34,328.845 51.285,328.845 	"/>
	<rect x="200.564" y="223.7" fill="#FFFFFF" width="15.348" height="17.299"/>
	<rect x="304.768" y="223.7" fill="#FFFFFF" width="5.814" height="17.299"/>
</g>
</svg>
