<?xml version="1.0" encoding="utf-8"?>
<!-- Generator: Adobe Illustrator 16.0.0, SVG Export Plug-In . SVG Version: 6.00 Build 0)  -->
<!DOCTYPE svg PUBLIC "-//W3C//DTD SVG 1.1//EN" "http://www.w3.org/Graphics/SVG/1.1/DTD/svg11.dtd">
<svg version="1.1" id="Layer_2" xmlns="http://www.w3.org/2000/svg" xmlns:xlink="http://www.w3.org/1999/xlink" x="0px" y="0px"
	 width="512px" height="512px" viewBox="0 0 512 512" enable-background="new 0 0 512 512" xml:space="preserve">
<g>
	<polygon fill="#FFFFFF" stroke="#000000" stroke-miterlimit="10" points="512,512 0,512 0,0 150.561,0 150.968,75.25 
		177.158,75.729 177.633,0 333.418,0 333.418,74.775 360.966,74.3 360.966,0 512,0 	"/>
	<polygon stroke="#000000" stroke-miterlimit="10" points="490.627,488.964 20.423,488.964 20.423,19.9 129.188,19.9 
		129.188,95.708 197.582,95.708 198.531,19.9 312.995,19.9 312.524,95.162 381.863,95.708 381.861,19.9 490.627,19.9 	"/>
	<polygon fill="#CF5E33" points="476.378,482.33 35.146,482.33 35.146,33.166 110.189,33.166 109.714,108.975 218.473,109.396 
		218.479,33.166 294.945,33.166 295.421,108.5 403.125,108.508 402.761,33.166 476.378,33.166 	"/>
	<path fill="#FFFFFF" stroke="#000000" stroke-width="2" stroke-miterlimit="10" d="M501.361,415.049
		c0,0-8.067,76.755-61.265,94.286l-0.012,0.002c-53.193-17.535-61.255-94.291-61.255-94.291l-0.488,0.004
		c0,0-8.065,76.755-61.263,94.286l-0.012,0.003c-53.196-17.536-61.255-94.291-61.255-94.291h-1.042c0,0-8.067,76.755-61.265,94.286
		l-0.01,0.002c-53.196-17.535-61.255-94.292-61.255-94.292l-0.488,0.005c0,0-8.067,76.755-61.265,94.286l-0.011,0.002
		c-53.196-17.535-61.255-94.29-61.255-94.29l5.116-22.738h483.992L501.361,415.049z"/>
	<polygon fill="#CF5E33" points="118.481,388.464 118.481,395.25 112.307,422.024 107.557,436.204 104.708,446.145 99.958,457.779 
		91.884,468.443 84.284,477.166 78.11,482.015 67.368,485.407 63.387,482.983 54.362,476.198 42.963,463.595 32.04,440.814 
		24.478,416.094 24.478,389.435 	"/>
	<polygon fill="#CF5E33" points="245.933,390.646 245.933,397.281 239.757,423.452 235.008,437.313 232.158,447.029 
		227.409,458.399 219.334,468.824 211.735,477.353 205.561,482.091 194.818,485.407 190.837,483.037 181.812,476.405 
		170.413,464.087 159.49,441.818 151.929,417.654 151.929,391.595 	"/>
	<polygon fill="#CF5E33" points="368.485,390.646 368.485,397.281 362.31,423.452 357.562,437.313 354.711,447.029 349.963,458.399 
		341.887,468.824 334.288,477.353 328.113,482.091 317.372,485.407 313.39,483.037 304.365,476.405 292.967,464.087 
		282.043,441.818 274.482,417.654 274.482,391.595 	"/>
	<polygon fill="#CF5E33" points="490.627,390.646 490.627,397.281 484.453,423.452 479.703,437.313 476.854,447.029 
		472.104,458.399 464.029,468.824 456.43,477.353 450.256,482.091 439.514,485.407 435.532,483.037 426.508,476.405 
		415.109,464.087 404.185,441.818 396.623,417.654 396.623,391.595 	"/>
	<path stroke="#000000" stroke-miterlimit="10" d="M509.195,400.124h-17.497c0,0-4.24,73.81-50.896,88.837v0.002
		c-46.657-15.032-50.892-88.841-50.892-88.841h-17.494l13.761,0.003h-17.496c0,0-4.242,73.81-50.897,88.837v0.002
		c-46.656-15.031-50.892-88.84-50.892-88.84l-17.495-0.002l13.208,0.001h-17.497c0,0-4.241,73.81-50.897,88.837v0.002
		c-46.656-15.032-50.891-88.841-50.891-88.841h-17.496l13.761,0.003h-17.496c0,0-4.241,73.81-50.898,88.837v0.002
		c-46.656-15.032-50.89-88.84-50.89-88.84l-17.496-0.002l6.873-13.03l15.674,0.003c0,0,3.792,79.124,45.588,95.236v-0.002
		c41.796-16.108,45.596-95.233,45.596-95.233h15.673l0.488-0.004h15.673c0,0,3.792,79.126,45.588,95.238v-0.002
		c41.796-16.109,45.596-95.233,45.596-95.233h15.673l1.042-0.002l15.673,0.003c0,0,3.793,79.124,45.588,95.237v-0.003
		c41.797-16.108,45.596-95.233,45.596-95.233h15.674l0.487-0.004h15.674c0,0,3.793,79.126,45.588,95.238v-0.002
		c41.796-16.109,45.596-95.233,45.596-95.233h15.673L509.195,400.124z"/>
	<path fill="#FFFFFF" stroke="#000000" stroke-width="2" stroke-miterlimit="10" d="M439.716,350.25c0,0-8.067,76.755-61.264,94.287
		l-0.012,0.002c-53.195-17.536-61.255-94.292-61.255-94.292l-0.488,0.005c0,0-8.066,76.755-61.264,94.286l-0.012,0.002
		c-53.195-17.536-61.255-94.291-61.255-94.291h-1.042c0,0-8.066,76.755-61.264,94.287l-0.01,0.002
		c-53.196-17.536-61.255-94.292-61.255-94.292l3.973-19.532h362.865L439.716,350.25z"/>
	<g>
		<polygon fill="#CF5E33" points="304.94,325.848 304.94,332.482 298.766,358.654 294.017,372.516 291.167,382.23 286.418,393.604 
			278.341,404.027 270.742,412.554 264.569,417.293 253.827,420.61 249.845,418.239 240.82,411.607 229.422,399.288 218.498,377.02 
			210.937,352.856 210.937,326.798 		"/>
		<polygon fill="#CF5E33" points="428.067,325.848 428.067,332.482 421.893,358.654 417.143,372.516 414.293,382.23 
			409.543,393.604 401.468,404.027 393.869,412.554 387.695,417.293 376.955,420.61 372.972,418.239 363.947,411.607 
			352.548,399.288 341.624,377.02 334.064,352.856 334.064,326.798 		"/>
		<polygon fill="#CF5E33" points="182.042,325.848 182.042,332.482 175.867,358.654 171.118,372.516 168.268,382.23 
			163.519,393.604 155.443,404.027 147.844,412.554 141.67,417.293 130.928,420.61 126.947,418.239 117.922,411.607 
			106.523,399.288 95.599,377.02 88.039,352.856 88.039,326.798 		"/>
	</g>
	<path stroke="#000000" stroke-miterlimit="10" d="M447.092,335.325h-17.496c0,0-4.241,73.811-50.896,88.837v0.002
		c-46.658-15.031-50.893-88.841-50.893-88.841h-17.494l13.762,0.003h-17.497c0,0-4.241,73.811-50.897,88.837v0.002
		c-46.656-15.03-50.891-88.84-50.891-88.84l-17.496-0.002l13.208,0.001h-17.497c0,0-4.241,73.811-50.898,88.837v0.002
		c-46.656-15.031-50.89-88.841-50.89-88.841H63.721l6.874-13.029h15.673c0,0,3.792,79.126,45.588,95.239v-0.002
		c41.796-16.111,45.596-95.234,45.596-95.234h15.672l1.042-0.002l15.674,0.003c0,0,3.792,79.125,45.588,95.237v-0.002
		c41.795-16.108,45.595-95.234,45.595-95.234h15.673l0.488-0.004h15.673c0,0,3.794,79.125,45.588,95.239v-0.002
		c41.797-16.109,45.596-95.234,45.596-95.234h15.674L447.092,335.325z"/>
	<path fill="#FFFFFF" stroke="#000000" stroke-width="2" stroke-miterlimit="10" d="M501.091,292.801
		c0,0-8.068,76.754-61.266,94.286l-0.01,0.002c-53.195-17.536-61.255-94.292-61.255-94.292l-0.488,0.005
		c0,0-8.066,76.754-61.264,94.285l-0.012,0.003c-53.196-17.536-61.255-94.29-61.255-94.29H254.5c0,0-8.066,76.754-61.265,94.285
		l-0.011,0.002c-53.195-17.535-61.255-94.291-61.255-94.291l-0.487,0.005c0,0-8.067,76.754-61.266,94.286l-0.01,0.002
		C17.01,369.553,8.95,292.799,8.95,292.799l3.033-21.074h485.77L501.091,292.801z"/>
	<polygon fill="#CF5E33" points="118.481,268.398 118.481,275.032 112.307,301.203 107.557,315.064 104.708,324.781 99.958,336.152 
		91.884,346.575 84.284,355.104 78.11,359.842 67.368,363.159 63.387,360.789 54.362,354.157 42.963,341.838 32.04,319.569 
		24.478,295.405 24.478,269.346 	"/>
	<polygon fill="#CF5E33" points="242.35,268.398 242.35,275.032 236.174,301.203 231.426,315.064 228.576,324.781 223.827,336.152 
		215.751,346.575 208.152,355.104 201.979,359.842 191.236,363.159 187.254,360.789 178.23,354.157 166.832,341.838 
		155.908,319.569 148.347,295.405 148.347,269.346 	"/>
	<polygon fill="#CF5E33" points="366.788,268.398 366.788,275.032 360.612,301.203 355.864,315.064 353.014,324.781 
		348.265,336.152 340.189,346.575 332.591,355.104 326.416,359.842 315.674,363.159 311.692,360.789 302.668,354.157 
		291.27,341.838 280.346,319.569 272.785,295.405 272.785,269.346 	"/>
	<polygon fill="#CF5E33" points="487.044,268.398 487.044,275.032 480.871,301.203 476.121,315.064 473.271,324.781 
		468.521,336.152 460.446,346.575 452.847,355.104 446.675,359.842 435.932,363.159 431.949,360.789 422.926,354.157 
		411.526,341.838 400.602,319.569 393.041,295.405 393.041,269.346 	"/>
	<path stroke="#000000" stroke-miterlimit="10" d="M508.467,277.875h-17.496c0,0-4.242,73.809-50.896,88.837v0.002
		c-46.658-15.032-50.893-88.841-50.893-88.841h-17.494l13.76,0.003h-17.496c0,0-4.241,73.81-50.896,88.837v0.002
		c-46.656-15.032-50.892-88.84-50.892-88.84l-17.496-0.002l13.208,0.001H244.38c0,0-4.241,73.809-50.898,88.837v0.002
		c-46.657-15.032-50.891-88.841-50.891-88.841h-17.495l13.76,0.003h-17.495c0,0-4.241,73.809-50.898,88.837v0.002
		c-46.657-15.032-50.891-88.84-50.891-88.84l-17.496-0.002l6.874-13.03l15.673,0.003c0,0,3.793,79.124,45.589,95.237v-0.003
		c41.796-16.107,45.596-95.233,45.596-95.233h15.673l0.487-0.004h15.673c0,0,3.793,79.126,45.589,95.238v-0.002
		c41.796-16.109,45.595-95.233,45.595-95.233H254.5l1.042-0.001l15.673,0.002c0,0,3.793,79.125,45.588,95.237v-0.003
		c41.797-16.107,45.597-95.233,45.597-95.233h15.673l0.488-0.003h15.672c0,0,3.793,79.125,45.589,95.238v-0.003
		c41.796-16.108,45.596-95.233,45.596-95.233h15.674L508.467,277.875z"/>
	<path fill="#FFFFFF" stroke="#000000" stroke-width="2" stroke-miterlimit="10" d="M440.072,224.583
		c0,0-8.068,76.755-61.266,94.287l-0.01,0.002c-53.195-17.535-61.256-94.292-61.256-94.292l-0.487,0.004
		c0,0-8.067,76.755-61.265,94.287l-0.011,0.002c-53.196-17.535-61.256-94.291-61.256-94.291h-1.042c0,0-8.066,76.755-61.265,94.287
		l-0.01,0.002C79.01,301.335,70.95,224.579,70.95,224.579l2.667-21.318h366.098L440.072,224.583z"/>
	<g>
		<polygon fill="#CF5E33" points="305.307,200.181 305.307,206.814 299.131,232.986 294.382,246.847 291.531,256.563 
			286.783,267.935 278.707,278.358 271.107,286.887 264.935,291.625 254.192,294.942 250.21,292.571 241.187,285.94 
			229.788,273.621 218.863,251.352 211.302,227.188 211.302,201.129 		"/>
		<polygon fill="#CF5E33" points="428.432,200.181 428.432,206.814 422.259,232.986 417.508,246.847 414.658,256.563 
			409.909,267.935 401.833,278.358 394.233,286.887 388.061,291.625 377.319,294.942 373.337,292.571 364.313,285.94 
			352.914,273.621 341.989,251.352 334.429,227.188 334.429,201.129 		"/>
		<polygon fill="#CF5E33" points="182.408,200.181 182.408,206.814 176.233,232.986 171.484,246.847 168.634,256.563 
			163.885,267.935 155.808,278.358 148.209,286.887 142.036,291.625 131.293,294.942 127.312,292.571 118.288,285.94 
			106.889,273.621 95.964,251.352 88.404,227.188 88.404,201.129 		"/>
	</g>
	<path stroke="#000000" stroke-miterlimit="10" d="M447.447,209.658H429.95c0,0-4.24,73.809-50.896,88.837v0.002
		c-46.658-15.032-50.892-88.841-50.892-88.841h-17.495l13.761,0.003h-17.496c0,0-4.241,73.809-50.897,88.837v0.002
		c-46.656-15.032-50.891-88.84-50.891-88.84l-17.496-0.002l13.208,0.001H183.36c0,0-4.241,73.809-50.898,88.837v0.002
		c-46.656-15.032-50.89-88.841-50.89-88.841H64.076l6.874-13.03h15.673c0,0,3.793,79.125,45.589,95.239v-0.002
		c41.796-16.109,45.596-95.234,45.596-95.234h15.672l1.042-0.001l15.673,0.002c0,0,3.793,79.126,45.589,95.237v-0.002
		c41.795-16.107,45.596-95.234,45.596-95.234h15.673l0.487-0.003h15.673c0,0,3.793,79.126,45.589,95.238v-0.002
		c41.795-16.108,45.596-95.234,45.596-95.234h15.674L447.447,209.658z"/>
	<path fill="#FFFFFF" stroke="#000000" stroke-width="2" stroke-miterlimit="10" d="M501.361,167.163
		c0,0-8.067,76.755-61.265,94.286l-0.012,0.002c-53.193-17.535-61.255-94.292-61.255-94.292l-0.488,0.004
		c0,0-8.065,76.755-61.263,94.286l-0.012,0.002c-53.196-17.535-61.255-94.291-61.255-94.291h-1.042c0,0-8.067,76.755-61.265,94.287
		l-0.01,0.002c-53.196-17.536-61.255-94.292-61.255-94.292l-0.488,0.004c0,0-8.067,76.755-61.265,94.286l-0.011,0.002
		C17.28,243.916,9.221,167.161,9.221,167.161l5.978-20.756h483.028L501.361,167.163z"/>
	<polygon fill="#CF5E33" points="118.481,142.761 118.481,149.395 112.307,175.566 107.557,189.427 104.708,199.144 99.958,210.515 
		91.884,220.938 84.284,229.467 78.11,234.205 67.368,237.522 63.387,235.152 54.362,228.52 42.963,216.2 32.04,193.932 
		24.478,169.769 24.478,143.708 	"/>
	<polygon fill="#CF5E33" points="242.35,142.761 242.35,149.395 236.174,175.566 231.426,189.427 228.576,199.144 223.827,210.515 
		215.751,220.938 208.152,229.467 201.979,234.205 191.236,237.522 187.254,235.152 178.23,228.52 166.832,216.2 155.908,193.932 
		148.347,169.769 148.347,143.708 	"/>
	<polygon fill="#CF5E33" points="366.788,142.761 366.788,149.395 360.612,175.566 355.864,189.427 353.014,199.144 
		348.265,210.515 340.189,220.938 332.591,229.467 326.416,234.205 315.674,237.522 311.692,235.152 302.668,228.52 291.27,216.2 
		280.346,193.932 272.785,169.769 272.785,143.708 	"/>
	<polygon fill="#CF5E33" points="487.044,142.761 487.044,149.395 480.871,175.566 476.121,189.427 473.271,199.144 
		468.521,210.515 460.446,220.938 452.847,229.467 446.675,234.205 435.932,237.522 431.949,235.152 422.926,228.52 411.526,216.2 
		400.602,193.932 393.041,169.769 393.041,143.708 	"/>
	<path stroke="#000000" stroke-miterlimit="10" d="M508.736,152.238h-17.497c0,0-4.24,73.809-50.896,88.836v0.002
		c-46.657-15.032-50.893-88.841-50.893-88.841h-17.493l13.76,0.003h-17.496c0,0-4.241,73.809-50.897,88.836v0.002
		c-46.656-15.032-50.891-88.84-50.891-88.84l-17.496-0.002l13.208,0.001H244.65c0,0-4.241,73.809-50.898,88.836v0.002
		c-46.656-15.031-50.89-88.841-50.89-88.841h-17.496l13.761,0.003h-17.495c0,0-4.242,73.809-50.898,88.836v0.002
		c-46.657-15.032-50.89-88.84-50.89-88.84l-17.496-0.002l6.874-13.03l15.673,0.002c0,0,3.793,79.125,45.589,95.238v-0.002
		c41.795-16.109,45.596-95.235,45.596-95.235h15.673l0.488-0.003h15.673c0,0,3.793,79.126,45.589,95.239v-0.003
		c41.795-16.109,45.596-95.234,45.596-95.234h15.672l1.042-0.001l15.672,0.002c0,0,3.794,79.125,45.59,95.238v-0.002
		c41.796-16.108,45.595-95.235,45.595-95.235h15.673l0.488-0.003h15.673c0,0,3.793,79.126,45.59,95.239v-0.002
		c41.795-16.11,45.595-95.235,45.595-95.235h15.674L508.736,152.238z"/>
	<rect x="1.218" y="13.845" fill="#FFFFFF" stroke="#FFFFFF" stroke-miterlimit="10" width="18.275" height="480.397"/>
	<rect x="490.627" y="12.4" fill="#FFFFFF" width="19.486" height="484.064"/>
	
		<rect x="13.071" y="488.964" fill="#FFFFFF" stroke="#FFFFFF" stroke-width="2" stroke-miterlimit="10" width="488.125" height="20.375"/>
	<polygon fill="#CF5E33" points="484.456,268.426 476.271,237.522 468.817,270.308 	"/>
	<polygon fill="#CF5E33" points="485.21,390.964 476.629,360.06 468.817,392.846 	"/>
	<polygon fill="#CF5E33" points="484.645,142.881 476.459,111.977 469.006,144.762 	"/>
	<polygon fill="#CF5E33" points="25.898,143.776 35.057,112.869 43.42,145.653 	"/>
	<polygon fill="#CF5E33" points="25.709,269.322 34.967,238.415 43.42,271.198 	"/>
	<polygon fill="#CF5E33" points="26.274,389.927 35.335,363.6 43.608,391.525 	"/>
</g>
</svg>
