<?xml version="1.0" encoding="utf-8"?>
<!-- Generator: Adobe Illustrator 16.0.0, SVG Export Plug-In . SVG Version: 6.00 Build 0)  -->
<!DOCTYPE svg PUBLIC "-//W3C//DTD SVG 1.1//EN" "http://www.w3.org/Graphics/SVG/1.1/DTD/svg11.dtd">
<svg version="1.1" id="Layer_2" xmlns="http://www.w3.org/2000/svg" xmlns:xlink="http://www.w3.org/1999/xlink" x="0px" y="0px"
	 width="512px" height="512px" viewBox="0 0 512 512" enable-background="new 0 0 512 512" xml:space="preserve">
<g>
	<rect x="30.855" y="64.332" fill="#FFFFFF" stroke="#000000" stroke-miterlimit="10" width="449.625" height="447.668"/>
	<rect x="49.225" y="82.621" stroke="#000000" stroke-miterlimit="10" width="413.72" height="411.504"/>
	<rect x="66.759" y="99.247" fill="#4F8C40" width="377.818" height="377.006"/>
	<path stroke="#000000" stroke-miterlimit="10" d="M66.759,99.247l108.544,228.199c0,0-1.669,80.639,12.107,148.807h173.67
		c0,0,18.369-19.951,17.117-53.204c0,0,25.049,6.234,29.224-6.651c0,0,4.593-0.416-5.01-28.683c0,0-22.544-46.968-17.952-54.45
		c0,0,11.599-4.156,11.853-26.604c0,0,3.178-19.552-35.231-24.115v-9.205l83.496-174.094H66.759z"/>
	<path fill="#FFFFFF" stroke="#000000" stroke-miterlimit="10" d="M427.869,99.261c0,0-4.594,23.275-48.435,49.455
		c0,0-28.372,118.46-123.366,117.614v0.014c-94.994,0.831-123.348-117.632-123.348-117.632
		c-43.835-26.188-48.428-49.464-48.428-49.464L427.869,99.261z"/>
	<g>
		<path d="M98.824,125.625c0,0,1.128,0.675,3.273,1.864c2.132,1.208,5.314,2.882,9.38,4.934c4.055,2.068,9.049,4.428,14.803,7.01
			c2.902,1.245,5.945,2.638,9.233,3.933c3.248,1.374,6.718,2.685,10.319,4.07c1.803,0.688,3.67,1.322,5.553,2.011
			c1.888,0.675,3.797,1.391,5.784,2.004c1.97,0.649,3.972,1.31,6.006,1.98c2.036,0.657,4.132,1.236,6.237,1.871
			c4.199,1.309,8.587,2.387,13.031,3.591c2.235,0.557,4.517,1.031,6.796,1.587c2.285,0.541,4.586,1.101,6.94,1.515
			c2.342,0.457,4.704,0.917,7.083,1.38c2.377,0.458,4.797,0.782,7.215,1.184c4.83,0.859,9.775,1.306,14.727,1.955l1.861,0.224
			l1.873,0.142c1.249,0.095,2.5,0.19,3.754,0.285c1.252,0.096,2.507,0.191,3.763,0.288c1.256,0.098,2.51,0.24,3.773,0.257
			c2.522,0.093,5.049,0.186,7.579,0.279c1.265,0.04,2.53,0.11,3.795,0.126l3.799-0.051l7.596-0.035
			c2.53-0.033,5.051-0.255,7.571-0.372l3.774-0.21c1.256-0.092,2.519-0.071,3.765-0.234c2.5-0.252,4.991-0.503,7.474-0.753
			c9.927-1.037,19.645-2.626,28.981-4.585c1.171-0.229,2.338-0.456,3.499-0.682c1.161-0.231,2.291-0.566,3.431-0.843
			c2.271-0.585,4.525-1.149,6.764-1.691c1.119-0.274,2.231-0.547,3.338-0.818l1.654-0.412l1.618-0.497
			c2.157-0.654,4.287-1.3,6.389-1.938c2.111-0.627,4.192-1.246,6.243-1.854c2.035-0.657,3.995-1.432,5.962-2.097
			c1.96-0.688,3.888-1.364,5.779-2.028c0.947-0.332,1.886-0.661,2.815-0.987c0.465-0.164,0.928-0.327,1.388-0.489
			c0.451-0.183,0.9-0.366,1.348-0.547c3.586-1.451,7.022-2.842,10.291-4.165c1.635-0.67,3.268-1.248,4.787-1.947
			c1.522-0.699,3.001-1.378,4.435-2.035c2.886-1.301,5.586-2.519,8.083-3.644c1.247-0.572,2.481-1.059,3.595-1.638
			c1.123-0.566,2.194-1.106,3.211-1.619c4.065-2.06,7.325-3.603,9.529-4.693c2.226-1.061,3.413-1.626,3.413-1.626
			s-1.024,0.817-2.944,2.351c-1.942,1.504-4.763,3.765-8.438,6.547c-0.918,0.698-1.886,1.434-2.9,2.205
			c-1.015,0.774-2.147,1.466-3.291,2.254c-2.301,1.555-4.821,3.19-7.508,4.966c-1.35,0.879-2.742,1.786-4.177,2.72
			c-1.439,0.927-2.997,1.742-4.557,2.656c-3.156,1.774-6.475,3.639-9.938,5.584c-0.434,0.243-0.871,0.488-1.31,0.733
			c-0.452,0.218-0.906,0.438-1.362,0.658c-0.915,0.438-1.839,0.881-2.771,1.328c-1.868,0.895-3.772,1.806-5.709,2.733
			c-1.941,0.921-3.908,1.882-5.946,2.764c-2.061,0.828-4.153,1.669-6.274,2.521c-4.25,1.703-8.615,3.479-13.224,4.885
			c-2.286,0.757-4.604,1.507-6.951,2.248c-1.176,0.36-2.343,0.779-3.544,1.095c-1.202,0.311-2.41,0.623-3.623,0.937
			c-2.431,0.621-4.882,1.247-7.351,1.877c-1.239,0.295-2.473,0.645-3.73,0.897c-1.261,0.242-2.525,0.484-3.794,0.727
			c-2.54,0.485-5.096,0.973-7.664,1.463c-2.563,0.532-5.184,0.779-7.8,1.129c-2.62,0.332-5.25,0.664-7.889,0.998
			c-2.641,0.31-5.311,0.405-7.976,0.599c-2.669,0.147-5.339,0.398-8.02,0.458c-2.681,0.034-5.364,0.067-8.048,0.1l-4.025,0.016
			c-1.341-0.029-2.68-0.111-4.02-0.165c-2.677-0.122-5.353-0.244-8.022-0.365c-2.67-0.112-5.317-0.467-7.963-0.714
			c-1.322-0.135-2.642-0.271-3.959-0.405l-1.974-0.202l-1.96-0.285c-5.218-0.782-10.407-1.472-15.451-2.603
			c-2.527-0.53-5.054-0.983-7.531-1.569c-2.467-0.625-4.917-1.247-7.347-1.862c-2.437-0.583-4.813-1.309-7.167-2.015
			c-2.354-0.707-4.692-1.385-6.975-2.146c-2.272-0.792-4.519-1.576-6.739-2.35c-1.105-0.398-2.219-0.748-3.296-1.179
			c-1.078-0.429-2.149-0.854-3.212-1.277c-8.546-3.272-16.35-7.011-23.443-10.6c-7.053-3.687-13.346-7.354-18.77-10.833
			c-5.411-3.503-10.005-6.716-13.656-9.545c-3.684-2.775-6.419-5.162-8.282-6.773c-0.931-0.807-1.619-1.459-2.082-1.897
			C99.062,125.852,98.824,125.625,98.824,125.625z"/>
	</g>
	<g>
		<path d="M193.255,182.797c0,0,0.453,0.23,1.302,0.661c0.842,0.438,2.111,1.021,3.702,1.784c1.601,0.747,3.562,1.61,5.81,2.577
			c2.254,0.955,4.818,1.972,7.631,3.01c2.8,1.069,5.884,2.073,9.138,3.108c3.276,0.97,6.729,1.97,10.349,2.774
			c1.8,0.442,3.651,0.783,5.515,1.165c0.929,0.207,1.881,0.317,2.827,0.48c0.949,0.144,1.896,0.34,2.856,0.457
			c1.922,0.224,3.852,0.521,5.802,0.655l2.925,0.256l2.936,0.114c1.957,0.137,3.913,0.066,5.863,0.071
			c1.948-0.021,3.882-0.18,5.808-0.255c0.957-0.102,1.909-0.204,2.857-0.305c0.947-0.109,1.9-0.152,2.83-0.313
			c0.932-0.15,1.858-0.298,2.777-0.446c0.919-0.155,1.842-0.26,2.733-0.481c1.786-0.414,3.578-0.711,5.279-1.2
			c1.699-0.491,3.397-0.885,5-1.425c1.605-0.545,3.168-1.075,4.679-1.587c1.485-0.6,2.919-1.18,4.296-1.736
			c0.347-0.139,0.689-0.276,1.028-0.411c0.329-0.157,0.654-0.312,0.976-0.465c0.646-0.305,1.276-0.603,1.892-0.893
			c1.229-0.589,2.444-1.071,3.491-1.69c1.072-0.58,2.065-1.143,3.01-1.63c0.942-0.491,1.813-0.939,2.549-1.422
			c1.494-0.931,2.708-1.624,3.522-2.117c0.827-0.48,1.268-0.736,1.268-0.736s-0.367,0.351-1.055,1.008
			c-0.699,0.646-1.707,1.622-3.04,2.815c-0.647,0.622-1.427,1.228-2.274,1.895c-0.841,0.677-1.777,1.373-2.769,2.138
			c-0.973,0.796-2.118,1.47-3.28,2.266c-0.59,0.384-1.195,0.778-1.815,1.182c-0.311,0.201-0.626,0.404-0.944,0.609
			c-0.33,0.185-0.663,0.372-1,0.561c-1.362,0.742-2.78,1.514-4.249,2.314c-1.511,0.715-3.1,1.404-4.727,2.141
			c-0.805,0.393-1.667,0.666-2.525,0.985c-0.862,0.312-1.735,0.628-2.617,0.947c-0.877,0.345-1.79,0.601-2.715,0.854
			c-0.923,0.259-1.855,0.521-2.796,0.786c-1.879,0.542-3.846,0.848-5.813,1.281c-1.979,0.36-4.003,0.601-6.039,0.873
			c-2.046,0.131-4.108,0.38-6.185,0.405c-2.075,0.014-4.162,0.107-6.241-0.023l-3.118-0.15c-1.034-0.099-2.067-0.198-3.098-0.297
			c-2.068-0.148-4.093-0.548-6.117-0.83c-4.021-0.71-7.942-1.591-11.65-2.712c-3.729-1.053-7.232-2.371-10.519-3.669
			c-3.261-1.372-6.303-2.742-9.024-4.181c-1.372-0.693-2.653-1.422-3.875-2.102c-1.204-0.717-2.352-1.38-3.406-2.044
			c-2.127-1.294-3.905-2.547-5.358-3.581C194.76,184.177,193.255,182.797,193.255,182.797z"/>
	</g>
	<path stroke="#000000" stroke-miterlimit="10" d="M313.077,168.795c-59.845-99.671-114.398,0-114.398,0H313.077z"/>
	<g>
		<path d="M145.663,164.523c0,0,0.115-0.695,0.391-1.878c0.271-1.186,0.705-2.859,1.292-4.838c1.176-3.958,3.063-9.094,5.252-14.099
			c2.189-5.004,4.684-9.875,6.797-13.421c1.057-1.773,1.995-3.226,2.684-4.229c0.684-1.005,1.118-1.56,1.118-1.56
			s-0.114,0.695-0.389,1.879c-0.27,1.187-0.702,2.86-1.289,4.84c-1.174,3.958-3.064,9.094-5.258,14.096
			c-2.193,5.002-4.69,9.872-6.802,13.419c-1.057,1.773-1.993,3.227-2.681,4.23C146.095,163.967,145.663,164.523,145.663,164.523z"/>
	</g>
	<g>
		<path d="M341.877,124.497c0,0,0.495,0.532,1.271,1.506c0.784,0.97,1.851,2.382,3.029,4.125c1.182,1.741,2.479,3.812,3.769,6.078
			c0.647,1.132,1.296,2.312,1.925,3.524c0.642,1.207,1.248,2.455,1.861,3.699c0.588,1.257,1.184,2.51,1.724,3.765
			c0.559,1.247,1.065,2.494,1.548,3.706c0.961,2.424,1.765,4.731,2.383,6.743c0.621,2.01,1.054,3.726,1.317,4.946
			c0.273,1.215,0.377,1.935,0.377,1.935s-0.497-0.531-1.273-1.505c-0.786-0.969-1.854-2.38-3.033-4.123
			c-1.183-1.741-2.479-3.812-3.769-6.078c-0.644-1.134-1.299-2.311-1.922-3.526c-0.642-1.207-1.246-2.456-1.858-3.701
			c-0.587-1.257-1.181-2.511-1.721-3.767c-0.553-1.25-1.066-2.494-1.545-3.707c-0.96-2.424-1.764-4.731-2.383-6.743
			c-0.622-2.01-1.055-3.725-1.321-4.944C341.981,125.216,341.877,124.497,341.877,124.497z"/>
	</g>
	<g>
		<path d="M193.255,136.241c0,0-0.013,0.869-0.116,2.371c-0.102,1.502-0.276,3.643-0.594,6.188
			c-0.577,5.102-1.728,11.82-3.182,18.473c-1.463,6.65-3.232,13.233-4.849,18.106c-0.778,2.444-1.519,4.459-2.057,5.866
			s-0.891,2.201-0.891,2.201s0.012-0.869,0.114-2.372c0.101-1.503,0.273-3.644,0.591-6.188c0.574-5.103,1.728-11.82,3.187-18.472
			c1.467-6.649,3.24-13.231,4.854-18.105c0.778-2.443,1.517-4.459,2.054-5.867C192.903,137.035,193.255,136.241,193.255,136.241z"/>
	</g>
	<g>
		<path d="M313.077,136.241c0,0,0.492,0.761,1.257,2.125c0.771,1.362,1.813,3.329,2.976,5.718c1.155,2.392,2.418,5.212,3.667,8.27
			c0.627,1.528,1.254,3.114,1.858,4.737c0.618,1.619,1.199,3.278,1.786,4.937c0.562,1.667,1.131,3.331,1.643,4.986
			c0.53,1.648,1.009,3.286,1.463,4.874c0.903,3.177,1.649,6.176,2.214,8.771c0.558,2.599,0.949,4.79,1.181,6.338
			c0.238,1.546,0.319,2.448,0.319,2.448s-0.493-0.76-1.259-2.124c-0.772-1.361-1.816-3.327-2.98-5.716
			c-1.156-2.392-2.419-5.212-3.667-8.271c-0.622-1.529-1.256-3.113-1.855-4.738c-0.618-1.618-1.195-3.279-1.782-4.938
			c-0.561-1.667-1.127-3.333-1.64-4.987c-0.524-1.65-1.01-3.286-1.459-4.875c-0.903-3.177-1.648-6.176-2.215-8.771
			c-0.558-2.599-0.951-4.789-1.185-6.336C313.159,137.143,313.077,136.241,313.077,136.241z"/>
	</g>
	<path stroke="#000000" stroke-miterlimit="10" d="M288.201,287.757l0.016-146.017c0,0,3.342-36.84-32.132-140.175l-0.207,0.002
		c-35.485,103.331-32.148,140.171-32.148,140.171v146.017"/>
	<path fill="#FFFFFF" d="M277.236,284.49l0.009-133.746c0,0,2.193-33.744-21.086-128.395l-0.136,0.002
		c-23.288,94.646-21.097,128.39-21.097,128.39v133.744c0,0-5.196,10.953-0.055,20.098l0.132,14.964h42.298L277.236,284.49z"/>
	<path fill="#FFFFFF" stroke="#000000" stroke-width="2" stroke-miterlimit="10" d="M198.679,476.253
		c0,0-23.375-142.988-5.424-142.156c0,0,39.661-38.657,134.429-60.271c0,0,26.301-15.379,68.466,127.193
		c0,0,2.506,15.378-12.106,9.975c0,0-7.099-2.076-10.854-6.234c0,0-16.7-80.639-31.312-93.939c0,0-10.425-15.797-28.8-5.404
		c0,0-88.678,34.084-89.43,39.487c0,0-5.557,6.235,8.953,4.158c0,0,75.043-30.344,81.306-29.513c0,0,14.194-7.897,24.213,0
		c0,0,18.371,9.869,22.962,113.061c0,0,1.671,18.29-16.699,3.326c0,0-7.515-7.482-7.932-17.459c0,0,4.166-55.736,0.417-66.922
		c0,0-4.167-9.977-14.607-8.729c0,0-28.392,2.909-68.679,25.771c0,0-7.306,8.246,9.811,6.201c0,0,45.444-20.521,54.271-20.333
		c0,0,12.107-1.248,10.854,10.391c0,0-0.417,64.014-18.369,81.471c0,0-15.863,9.145-15.445-2.494c0,0,0-17.042,5.427-24.939
		c0,0,4.175-19.951-1.67-29.096c0,0-0.568-8.314-21.159,14.132c0,0-5.711,7.897,0,22.445c0,0,12.239,17.458,0,49.88H198.679z"/>
	<path fill="none" stroke="#000000" stroke-miterlimit="10" d="M366.927,291.698c0,0-5.847,0.832,5.009,19.537
		c0,0,7.098,11.639,7.098,15.378c0,0,5.272,8.22,11.271-7.065c0,0,4.593-10.392-5.009-20.367
		C385.296,299.181,368.078,285.695,366.927,291.698z"/>
	<g>
		<path d="M256.269,59.01c0,0,0.2,14.162,0.5,35.405c0.075,5.311,0.156,11.064,0.242,17.149c0.069,6.085,0.143,12.502,0.218,19.141
			c0.141,13.277,0.29,27.439,0.44,41.601c0.092,7.081,0.184,14.162,0.273,21.132c0.123,6.971,0.157,13.83,0.21,20.469
			c-0.004,6.638-0.039,13.056-0.149,19.141c-0.048,3.043-0.096,6.002-0.142,8.865c-0.066,2.863-0.131,5.629-0.192,8.284
			c-0.122,5.311-0.286,10.179-0.431,14.494c-0.152,4.315-0.307,8.077-0.466,11.175c-0.152,3.098-0.248,5.532-0.353,7.191
			c-0.098,1.66-0.15,2.545-0.15,2.545h-0.4c0,0-0.052-0.885-0.15-2.545c-0.105-1.659-0.201-4.094-0.353-7.191
			c-0.159-3.098-0.313-6.859-0.466-11.175c-0.144-4.315-0.309-9.183-0.431-14.494c-0.062-2.655-0.126-5.421-0.193-8.284
			c-0.045-2.863-0.093-5.822-0.142-8.865c-0.11-6.085-0.145-12.502-0.149-19.141c0.053-6.639,0.087-13.498,0.21-20.469
			c0.09-6.97,0.182-14.051,0.273-21.132c0.15-14.162,0.3-28.324,0.441-41.601c0.075-6.638,0.148-13.056,0.217-19.141
			c0.086-6.085,0.167-11.839,0.242-17.149c0.3-21.243,0.5-35.405,0.5-35.405H256.269z"/>
	</g>
</g>
</svg>
