<?xml version="1.0" encoding="UTF-8"?>
<svg width="262" height="243.79" version="1.1" viewBox="0 0 262 243.79483" xmlns="http://www.w3.org/2000/svg"><defs><linearGradient id="f" x1="219.55" x2="133.4" y1="184.76" y2="98.6"><stop stop-color="#6e7e8e" offset="0"/><stop stop-color="#647483" offset=".52"/><stop stop-color="#6e7e8e" offset="1"/></linearGradient><linearGradient id="e" x1="172.41" x2="172.41" y1="111.5" y2="85.86"><stop stop-color="#5d6b76" stop-opacity=".1" offset="0"/><stop stop-color="#5d6b76" offset="1"/></linearGradient><linearGradient id="d" x1="245.42" x2="251.81" y1="149.89" y2="138.82"><stop stop-color="#5d6b76" stop-opacity=".2" offset="0"/><stop stop-color="#5d6b76" stop-opacity=".4" offset="1"/></linearGradient><linearGradient id="g" x1="149.06" x2="201.7" y1="259" y2="167.83"><stop stop-color="#5d6b76" stop-opacity=".3" offset="0"/><stop stop-color="#5d6b76" offset="1"/></linearGradient><linearGradient id="c" x1="215.37" x2="216.83" y1="255.37" y2="252.85"><stop stop-color="#5d6b76" stop-opacity=".3" offset="0"/><stop stop-color="#5d6b76" stop-opacity=".5" offset="1"/></linearGradient><linearGradient id="b" x1="220.01" x2="218.21" y1="251" y2="249.96"><stop stop-color="#5d6b76" stop-opacity=".1" offset="0"/><stop stop-color="#5d6b76" stop-opacity=".7" offset="1"/></linearGradient><linearGradient id="a" x1="226.58" x2="233.79" y1="246.49" y2="239.28"><stop stop-color="#5d6b76" stop-opacity=".2" offset="0"/><stop stop-color="#5d6b76" stop-opacity=".5" offset="1"/></linearGradient></defs><title>Clash</title><g transform="translate(-44 -59.96)"><rect x="59.96" y="59.96" width="230.08" height="230.08" fill="#fff"/><rect x="69.5" y="69.5" width="211" height="211" fill="#191917"/><rect x="79" y="79" width="192" height="192" fill="#0c0c0c"/><g fill="#fff"><path d="m67 220.33a5.1 5.1 0 0 0 2 0.83c1.41 0.26 2.46-0.21 2.83 0.33a1.78 1.78 0 0 1 0.09 1.18 6.13 6.13 0 0 1 -0.33 2c-0.41 0.86-1.19 0.85-2.43 1.69a8.13 8.13 0 0 0 -2.16 2.06z"/><path d="m70 235.17c0.44-0.2 1.32 0.47 1.63 1.29a2.26 2.26 0 0 1 -0.29 2 1.59 1.59 0 0 1 -1 -0.21c-1.12-0.71-0.99-2.81-0.34-3.08z"/><path d="m74.61 244.61a1.35 1.35 0 0 0 -1.55 -0.19 2.14 2.14 0 0 0 -0.4 2.87 1.58 1.58 0 0 0 1 0c1.03-0.37 1.56-2 0.95-2.68z"/><path d="m76.38 244.63c-0.43-0.52-0.35-0.87-0.32-1s0.13-0.36 1.24-0.79a9.57 9.57 0 0 1 1.38 -0.42 2.63 2.63 0 0 1 -1.25 1.92 2.24 2.24 0 0 1 -1.05 0.29z"/><path d="m74.08 259c0.39 0.12 0.82 0.18 1 0s0-0.57 0.21-1.08 0.84-0.7 0.88-1.08-0.18-0.62-1.34-1.17a2.18 2.18 0 0 0 -1 0.42 2 2 0 0 0 -0.75 2.33 1.45 1.45 0 0 0 1 0.58z"/><path d="m82.38 270.33a1.38 1.38 0 0 1 -0.12 -1.17 1.18 1.18 0 0 1 1.17 -0.79 1.06 1.06 0 0 1 0.83 0.71 1.09 1.09 0 0 1 -0.17 1 1.39 1.39 0 0 1 -1.71 0.25z"/><path d="m88 262.46a1.2 1.2 0 0 1 0.46 -0.75 1.55 1.55 0 0 1 1.88 0.33 1.29 1.29 0 0 1 0.42 0.92 1.31 1.31 0 0 1 -1.12 1.21 1.4 1.4 0 0 1 -1.08 -0.42 1.49 1.49 0 0 1 -0.56 -1.29z"/><path d="m88.63 268c-0.42 0.46-0.14 1.36 0 1.92s0.53 1.64 1.29 1.79c0.39 0.08 0.47-0.21 1.21-0.33 1-0.16 1.2 0.2 1.78 0a2.58 2.58 0 0 0 1.3 -1.74 3.25 3.25 0 0 0 0 -1.58c0-0.84-0.23-1.18-0.46-1.33-0.39-0.26-0.71 0.06-1.58 0s-1.26-0.59-1.67-0.37-0.21 0.75-0.71 1.21-0.79 0.06-1.16 0.43z"/><path d="m92.54 275.29a1.69 1.69 0 0 1 2.54 0.17c0.17 0.43-0.14 1.05-0.67 1.54a1.33 1.33 0 0 1 -1.78 0.07 1.36 1.36 0 0 1 -0.09 -1.78z"/><path d="m255.25 198.13-72.5 72.5-109.12-72.5h-6.19v14.25c-0.42 1.05-0.74 2.29-0.19 2.88 0.83 0.87 3-0.35 3.63 0.5s-0.79 2.14-0.19 3.06 2.5 0 3.63 1.06c0.85 0.84 0.07 1.71 1.06 3.13 0.61 0.87 1.07 0.78 2.06 2.06 0.33 0.42 1.17 1.52 0.88 1.94s-1.43-0.15-1.62 0.19 1.91 1.75 1.63 2.92a1.06 1.06 0 0 1 -0.8 0.78c-0.53 0.07-0.74-0.59-1.58-1.07-0.1-0.05-1.6-0.89-2.5-0.19a1.69 1.69 0 0 0 -0.44 2 2.76 2.76 0 0 0 1.63 0.87c-0.05 0-0.7 2.15-0.81 2.56-0.92 3.6 5.51 7.46 4.44 10.5-0.73 2.09-3.29 2.17-3.63 4.56-0.18 1.21 0.67 1.61 1.69 4.1a21.72 21.72 0 0 1 1.26 4.77 36.21 36.21 0 0 1 0.19 7.63c-0.08 2.62 0.52 5.29 0.06 7.88a2.42 2.42 0 0 0 0.28 1.81 1.49 1.49 0 0 0 1.32 0.66 1.63 1.63 0 0 0 1.05 -0.91c0.73-1.28 0.22-2.43 0.16-4.28-0.07-2.27 0.55-5.26 2-5.74 0.48-0.16 0.75 0.06 1.44-0.24a2.6 2.6 0 0 0 1.5 -1.58 2 2 0 0 0 -0.33 -2c-0.62-0.5-1.48 0.12-2.08-0.48a1.14 1.14 0 0 1 -0.33 -0.9 1.32 1.32 0 0 1 0.6 -0.9 2.37 2.37 0 0 1 1.51 -0.38c2.08 0.07 5.45 0.22 6.16 1.15a1.4 1.4 0 0 1 0.21 0.37c0.13 0.4-0.07 0.62 0 1.21 0 0.26 0 0.54 0.21 0.65s0.35-0.07 0.48 0-0.29 1 0 1.55c0.18 0.32 0.63 0.56 0.9 0.44 0.66-0.3 0-2.84 0.38-2.92 0.15 0 0.23 0.5 0.73 0.73s0.82-0.13 1.42 0 1.12 0.78 1 1.1-1.41 0.31-1.45 0.65c0 0.14 0.21 0.27 0.27 0.31 0.44 0.26 0.89 0 1.33 0a2.36 2.36 0 0 1 1.6 1c1.2 1.28 0.08 4-0.33 7.33a23.11 23.11 0 0 0 0 5.92l-4.18 2.94 3.81 7.38a19.53 19.53 0 0 1 0.33 2.77c0.21 4.44-1.22 6.44-0.1 9.5 0.19 0.51 0.73 2 1.69 2.1 0.7 0.07 1.3-0.64 1.48-0.85 1.06-1.26 0.92-2.8 0.73-6.48-0.23-4.49-0.22-5.92 0.42-7.62a10.5 10.5 0 0 1 1 -2l3.22-5.87c0.05-0.11 0.16-0.33 0.28-0.61 0.89-2.15 0.66-4.07 1-8.06 0.07-0.92 0.13-1.49 0.44-1.58s1.24 0.65 1.19 1.31c0 0.43-0.4 0.54-0.36 0.87 0.07 0.54 1.18 0.46 1.36 1 0.26 0.75-1.8 1.54-1.76 3a1.4 1.4 0 0 0 0.76 1.3 0.78 0.78 0 0 0 0.74 -0.17c0.28-0.29 0-0.72 0.32-1.06a0.71 0.71 0 0 1 0.6 -0.27c0.69 0.15 0.49 2.27 1.26 2.46a0.58 0.58 0 0 0 0.37 0c0.86-0.35 1.21-2.44 0.49-3.91-0.47-1-1.25-1.35-1.08-1.71a0.81 0.81 0 0 1 1 -0.17c0.46 0.25 0.21 0.83 0.73 1.46s0.88 0.45 1 0.83-0.31 0.53-0.5 1.13a2.39 2.39 0 0 0 0 1.35 9.49 9.49 0 0 1 -0.25 4l4.69 1.19a20.21 20.21 0 0 1 -0.69 -2.87c-0.29-1.81-0.12-2.31 0.15-2.6s0.48-0.17 1-0.62c0.71-0.6 0.62-1.07 1.25-1.4 0.1 0 0.71-0.37 1.15-0.06a0.82 0.82 0 0 1 0.33 0.73c0 0.4-0.43 0.46-0.58 0.79-0.41 0.85 1.23 2.31 1.06 2.48s-0.77-0.23-1.25-0.81-0.41-0.79-0.77-0.92-0.69 0-0.8 0.17c-0.2 0.38 0.64 1.09 1.39 2a11.29 11.29 0 0 1 1.88 3.31l100.33 2.51 13.08-3.17c0.49-1.57 0.26-2.3-0.05-2.68s-0.48-0.39-0.44-0.56c0.1-0.38 1.56 0 1.84-0.62 0.15-0.31-0.1-0.77-0.31-1s-0.51-0.3-1.16-0.53c-0.89-0.32-1.34-0.49-1.43-0.77-0.16-0.53 1-1.31 1.33-1.54a1.63 1.63 0 0 0 0.69 -0.84c0.15-0.47-0.06-0.76 0.16-1.09a0.82 0.82 0 0 1 1 -0.34c0.3 0.19 0.2 0.77 0.18 0.94a2.39 2.39 0 0 1 -1.07 1.51 1 1 0 0 0 -0.39 1.27 0.71 0.71 0 0 0 0.69 0.22c0.4-0.09 0.39-0.48 0.78-0.62s0.77 0.32 1.19 0.16 0.44-1.05 0.77-1.1c0.15 0 0.38 0.12 0.73 0.79 0.07 0.14 0.18 0.34 0.29 0.6 0.43 1 0.34 1.35 0.61 1.87 0.35 0.68 1.16 1.35 1.79 1.22 0.43-0.09 0.43-0.48 1.22-1.16 0.45-0.39 1.07-0.93 1.45-0.78s0.37 1.4 0.29 3c-0.05 1.13-0.11 2.75-0.08 4.76 0.09 2.41 0.08 4.34 0.06 5.56-0.06 4.17-0.35 7.9 1.16 9.25a1.61 1.61 0 0 0 1.19 0.5c0.69-0.08 1.1-0.87 1.28-1.22 0.86-1.67 0.53-3.48 0.32-5.41-0.14-1.23-0.19-2.67-0.29-5.55a47.84 47.84 0 0 1 0.24 -6.62c-0.09-2.16 0-3.92 0-5.16 0.15-3.23 0.48-4.21-0.16-5.84-0.26-0.67-0.64-1.35-0.4-1.58 0.4-0.39 2.25 0.6 2.18 0.85a3.32 3.32 0 0 0 -0.43 0.71 6.28 6.28 0 0 0 -0.5 1 1.3 1.3 0 0 0 0.14 0.74 1 1 0 0 0 0.61 -0.05c0.4-0.18 0.37-0.53 0.72-0.81 0.55-0.45 1.26-0.1 1.44-0.44 0.06-0.11 0.07-0.31-0.23-0.74-0.27-0.25-0.65-0.61-1.08-1.07a11 11 0 0 1 -1.53 -1.91c-0.49-0.8-0.73-1.2-0.69-1.69 0.06-0.75 0.64-0.9 0.63-1.62s-0.65-1.16-0.47-1.41 0.57 0.11 1.34 0a2.46 2.46 0 0 0 1.18 -0.6c0.22-0.21 0.49-0.46 0.45-0.71s-0.64-0.6-1.45-0.62a2.83 2.83 0 0 1 0.94 -0.78 3.53 3.53 0 0 1 2.67 0c0.61 0.17 1.31 0.36 1.41 0.81s-0.5 0.8-0.34 1.16a0.88 0.88 0 0 0 1.06 0.25c0.55-0.25 0.6-1.08 0.63-1.47a3 3 0 0 0 -0.41 -1.75c-0.39-0.63-0.88-0.8-0.81-1.16s0.49-0.47 0.56-0.5a1.14 1.14 0 0 1 1.06 0.13c0.67 0.56-0.27 2 0.38 2.63 0.46 0.46 1.5 0.28 1.61 0s-0.31-0.36-0.52-1c0-0.09-0.27-0.83 0-1.08s0.58 0.1 0.82-0.08-0.14-1 0.2-1.48 1.84-0.17 1.93-0.14 1.63 0.52 1.84 1.66c0.1 0.53-0.08 1.16-0.34 1.22s-0.59-0.65-1.12-0.62a0.77 0.77 0 0 0 -0.47 0.22 1.38 1.38 0 0 0 -0.17 1.06c0.07 0.25 0.28 0.67 0.57 0.69s0.46-0.62 0.78-0.66c0.5-0.05 1.06 1.44 1.78 3.47s1 2.88 1.06 3.06c0.86 3.84-0.9 5.82 0.34 7.06a2.33 2.33 0 0 0 2.88 0.25c0.59-0.56 0.27-1.65 0-3.09a53.85 53.85 0 0 1 -0.24 -6c-0.27-5.15-0.4-7.72 0.62-10.44 1.32-3.53 3.42-4.53 2.82-6.5s-3.24-3.06-3-3.37 1.54 0.53 2 0a0.43 0.43 0 0 0 0.13 -0.41c-0.12-0.27-0.76-0.05-1.53-0.44-0.39-0.2-0.45-0.37-0.47-0.44a0.56 0.56 0 0 1 0.31 -0.62c0.22-0.07 0.33 0.16 0.73 0.3a1.29 1.29 0 0 0 1.21 -0.11c0.32-0.32 0.08-0.89 0.38-1a0.37 0.37 0 0 1 0.34 0c0.45 0.31-0.3 1.61 0.19 2.16 0.15 0.17 0.45 0.3 1.09 0.19a0.63 0.63 0 0 0 0.38 -0.31c0.18-0.44-0.52-0.89-0.37-1.41s0.58-0.35 0.68-0.74-0.21-0.5-0.58-1.29a2.13 2.13 0 0 1 -0.34 -1.41c0.11-0.41 0.38-0.41 0.72-0.87 0.49-0.67 0.15-1 0.59-2.09 0.36-0.91 0.67-1 0.72-1.66 0-0.39-0.06-0.63 0.13-0.87s0.45-0.18 1-0.37c0.22-0.08 1.14-0.42 1.31-1.12a1.13 1.13 0 0 0 -0.16 -0.87c-0.47-0.69-1.57-0.43-1.69-0.8 0-0.16 0.08-0.46 1-1.08a3 3 0 0 1 0.86 0.48c0.3 0.24 0.39 0.4 0.53 0.38s0.51-0.65 0.35-1.1c-0.25-0.68-1.32-0.55-1.45-1.09s0.61-1 0.73-1.09a2.66 2.66 0 0 1 2 -0.41l4.58-28.25zm-143.25 76.74c0.32 0.14 0.24 1.24 0 1.29s-0.16-0.29-0.52-0.47-0.49 0-0.75-0.21-0.33-0.36-0.27-0.45 0.42 0.14 0.92 0 0.48-0.22 0.62-0.16zm123-3q0.69 0.31 0.67 0.52t-1.83 0.42q-0.35 0-0.37-0.08t1.53-0.87zm-7.17 8.22c-0.35 0.33-0.92 0.06-1 0-0.26-0.12-0.28-0.27-0.54-0.54-0.58-0.61-1.24-0.66-1.21-0.83s0.43 0 0.88-0.29 0.64-0.91 0.83-0.87 0 0.64 0.42 1.08 0.55 0.23 0.71 0.54a0.77 0.77 0 0 1 -0.09 0.9zm2.25-1.21c-0.22 0.07-0.47-0.15-0.54-0.21-0.57-0.5-0.16-1.23-0.67-1.75s-1-0.28-1-0.56 0.24-0.46 0.51-0.64a2.33 2.33 0 0 1 1.92 1c0.46 0.82 0.21 2.02-0.22 2.16zm4.5-0.21a1.21 1.21 0 0 1 0.29 1.25 1.15 1.15 0 0 1 -0.53 0.58 1.92 1.92 0 0 0 -0.35 -0.5c-0.25-0.26-0.43-0.29-0.46-0.42s0.14-0.41 1.05-0.91zm-0.37-3.21c-0.23 0.24-0.34 0.49-0.58 0.5a0.63 0.63 0 0 1 -0.46 -0.24 1.07 1.07 0 0 1 -0.12 -0.93c0.23-0.54 1.22-0.84 2.38-0.42 0.25 0.13 0.29 0.23 0.29 0.29-0.02 0.28-0.89 0.17-1.51 0.8zm4-4.58a1.92 1.92 0 0 1 -1.79 -0.17c-0.14-0.19-0.15-0.3-0.12-0.37 0.11-0.28 0.76 0 1.37-0.38 0.46-0.27 0.45-0.64 0.88-0.75a1.07 1.07 0 0 1 0.7 0.09 1.81 1.81 0 0 1 -1.08 1.58zm2.38 1.38c0 0.58-0.09 0.68-0.17 0.71s-0.55-0.32-0.71-0.54a1.1 1.1 0 0 1 -0.2 -0.4c-0.08-0.41 0.31-0.92 1-1.27a7 7 0 0 1 0.03 1.49z"/><path d="m239.88 277.81a0.64 0.64 0 1 1 -0.65 0.48 0.66 0.66 0 0 1 0.65 -0.48z"/><path d="m252.06 279.44c0 0.06 1.23 0 1.4-0.42s-1.1-1.58-1.1-1.58a0.9 0.9 0 0 0 -0.71 -0.12 1.11 1.11 0 0 0 -0.46 1.43 1.3 1.3 0 0 0 0.87 0.69z"/><path d="m253.56 272.44a1.44 1.44 0 1 1 0.25 2.81 1.4105 1.4105 0 0 1 -0.25 -2.81z"/><path d="m252.44 268.83a2 2 0 0 1 -0.37 -1.19 1.91 1.91 0 0 1 0.06 -0.83 1.82 1.82 0 0 1 1 -1 1.6 1.6 0 0 1 1.3 0 1.77 1.77 0 0 1 0.86 1.42 2.07 2.07 0 0 1 -1.6 2.25 1.55 1.55 0 0 1 -1.25 -0.65z"/><path d="m256.5 265.33a0.53 0.53 0 0 0 0.17 -1c-0.24 0-0.58 0.46-0.44 0.79a0.51 0.51 0 0 0 0.27 0.21z"/><path d="m261.19 264.79c0.35 0.15 0.91-0.38 1.15-0.67a2 2 0 0 0 0.46 -0.94c0.06-0.31 0.12-0.65 0-0.79-0.46-0.42-2.59 0.93-2.44 1.46 0 0.15 0.25 0.16 0.56 0.54s0.14 0.35 0.27 0.4z"/><path d="m260.23 267.58a0.87 0.87 0 0 1 0.75 1 0.86 0.86 0 0 1 -0.92 0.6c-0.74-0.2-1.05-0.86-0.9-1.23a1 1 0 0 1 1.07 -0.37z"/><path d="m264.56 266.88a1 1 0 0 1 1.29 -0.12 0.88 0.88 0 0 1 0 1.1c-0.7 0.13-0.92 0.05-1-0.06s0.13-0.38 0-0.62-0.29-0.18-0.29-0.3z"/><path d="m272.65 264.25c0.29 0 0.46 0.26 0.79 0.67s0.76 0.94 0.67 1.38a1.61 1.61 0 0 1 -1.58 0.94 1.31 1.31 0 0 1 -1 -0.23 1.51 1.51 0 0 1 -0.31 -1.65c0.24-0.61 0.86-1.21 1.43-1.11z"/><path d="m276.6 263.08a1.09 1.09 0 0 0 1.21 -0.21 1.18 1.18 0 0 0 -0.58 -1.62c-0.92 0.09-1.45 0.72-1.37 1.17s0.7 0.65 0.74 0.66z"/><path d="m273.21 258.77a2.13 2.13 0 0 0 1.73 -2.68 2 2 0 0 0 -2.11 -1.15 1.86 1.86 0 0 0 -1.48 1 2.26 2.26 0 0 0 1.86 2.83z"/><path d="m276.67 256.13a1.2 1.2 0 0 1 0.63 -0.9 1 1 0 0 1 0.77 0c0.36 0.15 0.31 0.45 0.69 0.63s0.51 0 0.73 0.15a0.81 0.81 0 0 1 0.17 0.88 1.09 1.09 0 0 1 -0.45 0.48 1.46 1.46 0 0 1 -0.86 0.38 2.45 2.45 0 0 1 -0.94 -0.44c-0.49-0.29-0.58-0.4-0.65-0.52a1 1 0 0 1 -0.09 -0.66z"/><path d="m275.81 252.81a1 1 0 0 0 0.86 -0.54c0.3-0.67-0.51-1.45-0.56-1.5a2 2 0 0 0 -0.57 -0.37 1.16 1.16 0 0 0 -0.85 0.44 1.53 1.53 0 0 0 1.12 1.97z"/><path d="m276.13 246.31c0.06 0 0.75-0.27 1.08 0a1.24 1.24 0 0 1 -0.56 1.77 0.81 0.81 0 0 1 -0.78 -0.25 1.19 1.19 0 0 1 0.26 -1.52z"/><path d="m277.27 242.75a1.43 1.43 0 0 1 0.52 -1c0.71-0.52 2.19-0.11 3.46 1.27a2.34 2.34 0 0 1 -2.71 1.17 2.26 2.26 0 0 1 -1.27 -1.44z"/><path d="m278.44 239.9a0.88 0.88 0 0 0 0.63 0.31c0.38 0 0.48-0.42 0.87-0.62 0.74-0.39 1.55 0.4 1.92 0.13 0.21-0.16 0.28-0.66-0.33-2.19-0.66 0.91-1.17 1.08-1.51 1.06s-0.48-0.26-0.86-0.22c-0.55 0-1.15 0.61-1.06 1.08a0.71 0.71 0 0 0 0.34 0.45z"/><path d="m278 236.77a0.77 0.77 0 0 0 0.88 0.17c0.36-0.22 0-0.79 0.38-1.81 0.2-0.61 0.4-0.69 0.35-1-0.08-0.59-0.75-1.12-1.15-1s-0.27 0.41-0.6 0.5-0.44-0.12-0.62 0-0.29 0.32-0.23 1.15a0.86 0.86 0 0 0 0.06 0.77c0.17 0.19 0.4 0.08 0.6 0.27s0.02 0.64 0.33 0.95z"/><path d="m67 220.33a5.1 5.1 0 0 0 2 0.83c1.41 0.26 2.46-0.21 2.83 0.33a1.78 1.78 0 0 1 0.09 1.18 6.13 6.13 0 0 1 -0.33 2c-0.41 0.86-1.19 0.85-2.43 1.69a8.13 8.13 0 0 0 -2.16 2.06z"/><path d="m70 235.17c0.44-0.2 1.32 0.47 1.63 1.29a2.26 2.26 0 0 1 -0.29 2 1.59 1.59 0 0 1 -1 -0.21c-1.12-0.71-0.99-2.81-0.34-3.08z"/><path d="m74.61 244.61a1.35 1.35 0 0 0 -1.55 -0.19 2.14 2.14 0 0 0 -0.4 2.87 1.58 1.58 0 0 0 1 0c1.03-0.37 1.56-2 0.95-2.68z"/><path d="m76.38 244.63c-0.43-0.52-0.35-0.87-0.32-1s0.13-0.36 1.24-0.79a9.57 9.57 0 0 1 1.38 -0.42 2.63 2.63 0 0 1 -1.25 1.92 2.24 2.24 0 0 1 -1.05 0.29z"/><path d="m74.08 259c0.39 0.12 0.82 0.18 1 0s0-0.57 0.21-1.08 0.84-0.7 0.88-1.08-0.18-0.62-1.34-1.17a2.18 2.18 0 0 0 -1 0.42 2 2 0 0 0 -0.75 2.33 1.45 1.45 0 0 0 1 0.58z"/><path d="m82.38 270.33a1.38 1.38 0 0 1 -0.12 -1.17 1.18 1.18 0 0 1 1.17 -0.79 1.06 1.06 0 0 1 0.83 0.71 1.09 1.09 0 0 1 -0.17 1 1.39 1.39 0 0 1 -1.71 0.25z"/><path d="m88 262.46a1.2 1.2 0 0 1 0.46 -0.75 1.55 1.55 0 0 1 1.88 0.33 1.29 1.29 0 0 1 0.42 0.92 1.31 1.31 0 0 1 -1.12 1.21 1.4 1.4 0 0 1 -1.08 -0.42 1.49 1.49 0 0 1 -0.56 -1.29z"/><path d="m88.63 268c-0.42 0.46-0.14 1.36 0 1.92s0.53 1.64 1.29 1.79c0.39 0.08 0.47-0.21 1.21-0.33 1-0.16 1.2 0.2 1.78 0a2.58 2.58 0 0 0 1.3 -1.74 3.25 3.25 0 0 0 0 -1.58c0-0.84-0.23-1.18-0.46-1.33-0.39-0.26-0.71 0.06-1.58 0s-1.26-0.59-1.67-0.37-0.21 0.75-0.71 1.21-0.79 0.06-1.16 0.43z"/><path d="m92.54 275.29a1.69 1.69 0 0 1 2.54 0.17c0.17 0.43-0.14 1.05-0.67 1.54a1.33 1.33 0 0 1 -1.78 0.07 1.36 1.36 0 0 1 -0.09 -1.78z"/><path d="m255.25 198.13-72.5 72.5-109.12-72.5h-6.19v14.25c-0.42 1.05-0.74 2.29-0.19 2.88 0.83 0.87 3-0.35 3.63 0.5s-0.79 2.14-0.19 3.06 2.5 0 3.63 1.06c0.85 0.84 0.07 1.71 1.06 3.13 0.61 0.87 1.07 0.78 2.06 2.06 0.33 0.42 1.17 1.52 0.88 1.94s-1.43-0.15-1.62 0.19 1.91 1.75 1.63 2.92a1.06 1.06 0 0 1 -0.8 0.78c-0.53 0.07-0.74-0.59-1.58-1.07-0.1-0.05-1.6-0.89-2.5-0.19a1.69 1.69 0 0 0 -0.44 2 2.76 2.76 0 0 0 1.63 0.87c-0.05 0-0.7 2.15-0.81 2.56-0.92 3.6 5.51 7.46 4.44 10.5-0.73 2.09-3.29 2.17-3.63 4.56-0.18 1.21 0.67 1.61 1.69 4.1a21.72 21.72 0 0 1 1.26 4.77 36.21 36.21 0 0 1 0.19 7.63c-0.08 2.62 0.52 5.29 0.06 7.88a2.42 2.42 0 0 0 0.28 1.81 1.49 1.49 0 0 0 1.32 0.66 1.63 1.63 0 0 0 1.05 -0.91c0.73-1.28 0.22-2.43 0.16-4.28-0.07-2.27 0.55-5.26 2-5.74 0.48-0.16 0.75 0.06 1.44-0.24a2.6 2.6 0 0 0 1.5 -1.58 2 2 0 0 0 -0.33 -2c-0.62-0.5-1.48 0.12-2.08-0.48a1.14 1.14 0 0 1 -0.33 -0.9 1.32 1.32 0 0 1 0.6 -0.9 2.37 2.37 0 0 1 1.51 -0.38c2.08 0.07 5.45 0.22 6.16 1.15a1.4 1.4 0 0 1 0.21 0.37c0.13 0.4-0.07 0.62 0 1.21 0 0.26 0 0.54 0.21 0.65s0.35-0.07 0.48 0-0.29 1 0 1.55c0.18 0.32 0.63 0.56 0.9 0.44 0.66-0.3 0-2.84 0.38-2.92 0.15 0 0.23 0.5 0.73 0.73s0.82-0.13 1.42 0 1.12 0.78 1 1.1-1.41 0.31-1.45 0.65c0 0.14 0.21 0.27 0.27 0.31 0.44 0.26 0.89 0 1.33 0a2.36 2.36 0 0 1 1.6 1c1.2 1.28 0.08 4-0.33 7.33a23.11 23.11 0 0 0 0 5.92l-4.18 2.94 3.81 7.38a19.53 19.53 0 0 1 0.33 2.77c0.21 4.44-1.22 6.44-0.1 9.5 0.19 0.51 0.73 2 1.69 2.1 0.7 0.07 1.3-0.64 1.48-0.85 1.06-1.26 0.92-2.8 0.73-6.48-0.23-4.49-0.22-5.92 0.42-7.62a10.5 10.5 0 0 1 1 -2l3.22-5.87c0.05-0.11 0.16-0.33 0.28-0.61 0.89-2.15 0.66-4.07 1-8.06 0.07-0.92 0.13-1.49 0.44-1.58s1.24 0.65 1.19 1.31c0 0.43-0.4 0.54-0.36 0.87 0.07 0.54 1.18 0.46 1.36 1 0.26 0.75-1.8 1.54-1.76 3a1.4 1.4 0 0 0 0.76 1.3 0.78 0.78 0 0 0 0.74 -0.17c0.28-0.29 0-0.72 0.32-1.06a0.71 0.71 0 0 1 0.6 -0.27c0.69 0.15 0.49 2.27 1.26 2.46a0.58 0.58 0 0 0 0.37 0c0.86-0.35 1.21-2.44 0.49-3.91-0.47-1-1.25-1.35-1.08-1.71a0.81 0.81 0 0 1 1 -0.17c0.46 0.25 0.21 0.83 0.73 1.46s0.88 0.45 1 0.83-0.31 0.53-0.5 1.13a2.39 2.39 0 0 0 0 1.35 9.49 9.49 0 0 1 -0.25 4l4.69 1.19a20.21 20.21 0 0 1 -0.69 -2.87c-0.29-1.81-0.12-2.31 0.15-2.6s0.48-0.17 1-0.62c0.71-0.6 0.62-1.07 1.25-1.4 0.1 0 0.71-0.37 1.15-0.06a0.82 0.82 0 0 1 0.33 0.73c0 0.4-0.43 0.46-0.58 0.79-0.41 0.85 1.23 2.31 1.06 2.48s-0.77-0.23-1.25-0.81-0.41-0.79-0.77-0.92-0.69 0-0.8 0.17c-0.2 0.38 0.64 1.09 1.39 2a11.29 11.29 0 0 1 1.88 3.31l100.33 2.51 13.08-3.17c0.49-1.57 0.26-2.3-0.05-2.68s-0.48-0.39-0.44-0.56c0.1-0.38 1.56 0 1.84-0.62 0.15-0.31-0.1-0.77-0.31-1s-0.51-0.3-1.16-0.53c-0.89-0.32-1.34-0.49-1.43-0.77-0.16-0.53 1-1.31 1.33-1.54a1.63 1.63 0 0 0 0.69 -0.84c0.15-0.47-0.06-0.76 0.16-1.09a0.82 0.82 0 0 1 1 -0.34c0.3 0.19 0.2 0.77 0.18 0.94a2.39 2.39 0 0 1 -1.07 1.51 1 1 0 0 0 -0.39 1.27 0.71 0.71 0 0 0 0.69 0.22c0.4-0.09 0.39-0.48 0.78-0.62s0.77 0.32 1.19 0.16 0.44-1.05 0.77-1.1c0.15 0 0.38 0.12 0.73 0.79 0.07 0.14 0.18 0.34 0.29 0.6 0.43 1 0.34 1.35 0.61 1.87 0.35 0.68 1.16 1.35 1.79 1.22 0.43-0.09 0.43-0.48 1.22-1.16 0.45-0.39 1.07-0.93 1.45-0.78s0.37 1.4 0.29 3c-0.05 1.13-0.11 2.75-0.08 4.76 0.09 2.41 0.08 4.34 0.06 5.56-0.06 4.17-0.35 7.9 1.16 9.25a1.61 1.61 0 0 0 1.19 0.5c0.69-0.08 1.1-0.87 1.28-1.22 0.86-1.67 0.53-3.48 0.32-5.41-0.14-1.23-0.19-2.67-0.29-5.55a47.84 47.84 0 0 1 0.24 -6.62c-0.09-2.16 0-3.92 0-5.16 0.15-3.23 0.48-4.21-0.16-5.84-0.26-0.67-0.64-1.35-0.4-1.58 0.4-0.39 2.25 0.6 2.18 0.85a3.32 3.32 0 0 0 -0.43 0.71 6.28 6.28 0 0 0 -0.5 1 1.3 1.3 0 0 0 0.14 0.74 1 1 0 0 0 0.61 -0.05c0.4-0.18 0.37-0.53 0.72-0.81 0.55-0.45 1.26-0.1 1.44-0.44 0.06-0.11 0.07-0.31-0.23-0.74-0.27-0.25-0.65-0.61-1.08-1.07a11 11 0 0 1 -1.53 -1.91c-0.49-0.8-0.73-1.2-0.69-1.69 0.06-0.75 0.64-0.9 0.63-1.62s-0.65-1.16-0.47-1.41 0.57 0.11 1.34 0a2.46 2.46 0 0 0 1.18 -0.6c0.22-0.21 0.49-0.46 0.45-0.71s-0.64-0.6-1.45-0.62a2.83 2.83 0 0 1 0.94 -0.78 3.53 3.53 0 0 1 2.67 0c0.61 0.17 1.31 0.36 1.41 0.81s-0.5 0.8-0.34 1.16a0.88 0.88 0 0 0 1.06 0.25c0.55-0.25 0.6-1.08 0.63-1.47a3 3 0 0 0 -0.41 -1.75c-0.39-0.63-0.88-0.8-0.81-1.16s0.49-0.47 0.56-0.5a1.14 1.14 0 0 1 1.06 0.13c0.67 0.56-0.27 2 0.38 2.63 0.46 0.46 1.5 0.28 1.61 0s-0.31-0.36-0.52-1c0-0.09-0.27-0.83 0-1.08s0.58 0.1 0.82-0.08-0.14-1 0.2-1.48 1.84-0.17 1.93-0.14 1.63 0.52 1.84 1.66c0.1 0.53-0.08 1.16-0.34 1.22s-0.59-0.65-1.12-0.62a0.77 0.77 0 0 0 -0.47 0.22 1.38 1.38 0 0 0 -0.17 1.06c0.07 0.25 0.28 0.67 0.57 0.69s0.46-0.62 0.78-0.66c0.5-0.05 1.06 1.44 1.78 3.47s1 2.88 1.06 3.06c0.86 3.84-0.9 5.82 0.34 7.06a2.33 2.33 0 0 0 2.88 0.25c0.59-0.56 0.27-1.65 0-3.09a53.85 53.85 0 0 1 -0.24 -6c-0.27-5.15-0.4-7.72 0.62-10.44 1.32-3.53 3.42-4.53 2.82-6.5s-3.24-3.06-3-3.37 1.54 0.53 2 0a0.43 0.43 0 0 0 0.13 -0.41c-0.12-0.27-0.76-0.05-1.53-0.44-0.39-0.2-0.45-0.37-0.47-0.44a0.56 0.56 0 0 1 0.31 -0.62c0.22-0.07 0.33 0.16 0.73 0.3a1.29 1.29 0 0 0 1.21 -0.11c0.32-0.32 0.08-0.89 0.38-1a0.37 0.37 0 0 1 0.34 0c0.45 0.31-0.3 1.61 0.19 2.16 0.15 0.17 0.45 0.3 1.09 0.19a0.63 0.63 0 0 0 0.38 -0.31c0.18-0.44-0.52-0.89-0.37-1.41s0.58-0.35 0.68-0.74-0.21-0.5-0.58-1.29a2.13 2.13 0 0 1 -0.34 -1.41c0.11-0.41 0.38-0.41 0.72-0.87 0.49-0.67 0.15-1 0.59-2.09 0.36-0.91 0.67-1 0.72-1.66 0-0.39-0.06-0.63 0.13-0.87s0.45-0.18 1-0.37c0.22-0.08 1.14-0.42 1.31-1.12a1.13 1.13 0 0 0 -0.16 -0.87c-0.47-0.69-1.57-0.43-1.69-0.8 0-0.16 0.08-0.46 1-1.08a3 3 0 0 1 0.86 0.48c0.3 0.24 0.39 0.4 0.53 0.38s0.51-0.65 0.35-1.1c-0.25-0.68-1.32-0.55-1.45-1.09s0.61-1 0.73-1.09a2.66 2.66 0 0 1 2 -0.41l4.58-28.25zm-143.25 76.74c0.32 0.14 0.24 1.24 0 1.29s-0.16-0.29-0.52-0.47-0.49 0-0.75-0.21-0.33-0.36-0.27-0.45 0.42 0.14 0.92 0 0.48-0.22 0.62-0.16zm123-3q0.69 0.31 0.67 0.52t-1.83 0.42q-0.35 0-0.37-0.08t1.53-0.87zm-7.17 8.22c-0.35 0.33-0.92 0.06-1 0-0.26-0.12-0.28-0.27-0.54-0.54-0.58-0.61-1.24-0.66-1.21-0.83s0.43 0 0.88-0.29 0.64-0.91 0.83-0.87 0 0.64 0.42 1.08 0.55 0.23 0.71 0.54a0.77 0.77 0 0 1 -0.09 0.9zm2.25-1.21c-0.22 0.07-0.47-0.15-0.54-0.21-0.57-0.5-0.16-1.23-0.67-1.75s-1-0.28-1-0.56 0.24-0.46 0.51-0.64a2.33 2.33 0 0 1 1.92 1c0.46 0.82 0.21 2.02-0.22 2.16zm4.5-0.21a1.21 1.21 0 0 1 0.29 1.25 1.15 1.15 0 0 1 -0.53 0.58 1.92 1.92 0 0 0 -0.35 -0.5c-0.25-0.26-0.43-0.29-0.46-0.42s0.14-0.41 1.05-0.91zm-0.37-3.21c-0.23 0.24-0.34 0.49-0.58 0.5a0.63 0.63 0 0 1 -0.46 -0.24 1.07 1.07 0 0 1 -0.12 -0.93c0.23-0.54 1.22-0.84 2.38-0.42 0.25 0.13 0.29 0.23 0.29 0.29-0.02 0.28-0.89 0.17-1.51 0.8zm4-4.58a1.92 1.92 0 0 1 -1.79 -0.17c-0.14-0.19-0.15-0.3-0.12-0.37 0.11-0.28 0.76 0 1.37-0.38 0.46-0.27 0.45-0.64 0.88-0.75a1.07 1.07 0 0 1 0.7 0.09 1.81 1.81 0 0 1 -1.08 1.58zm2.38 1.38c0 0.58-0.09 0.68-0.17 0.71s-0.55-0.32-0.71-0.54a1.1 1.1 0 0 1 -0.2 -0.4c-0.08-0.41 0.31-0.92 1-1.27a7 7 0 0 1 0.03 1.49z"/><path d="m239.88 277.81a0.64 0.64 0 1 1 -0.65 0.48 0.66 0.66 0 0 1 0.65 -0.48z"/><path d="m252.06 279.44c0 0.06 1.23 0 1.4-0.42s-1.1-1.58-1.1-1.58a0.9 0.9 0 0 0 -0.71 -0.12 1.11 1.11 0 0 0 -0.46 1.43 1.3 1.3 0 0 0 0.87 0.69z"/><path d="m253.56 272.44a1.44 1.44 0 1 1 0.25 2.81 1.4105 1.4105 0 0 1 -0.25 -2.81z"/><path d="m252.44 268.83a2 2 0 0 1 -0.37 -1.19 1.91 1.91 0 0 1 0.06 -0.83 1.82 1.82 0 0 1 1 -1 1.6 1.6 0 0 1 1.3 0 1.77 1.77 0 0 1 0.86 1.42 2.07 2.07 0 0 1 -1.6 2.25 1.55 1.55 0 0 1 -1.25 -0.65z"/><path d="m256.5 265.33a0.53 0.53 0 0 0 0.17 -1c-0.24 0-0.58 0.46-0.44 0.79a0.51 0.51 0 0 0 0.27 0.21z"/><path d="m261.19 264.79c0.35 0.15 0.91-0.38 1.15-0.67a2 2 0 0 0 0.46 -0.94c0.06-0.31 0.12-0.65 0-0.79-0.46-0.42-2.59 0.93-2.44 1.46 0 0.15 0.25 0.16 0.56 0.54s0.14 0.35 0.27 0.4z"/><path d="m260.23 267.58a0.87 0.87 0 0 1 0.75 1 0.86 0.86 0 0 1 -0.92 0.6c-0.74-0.2-1.05-0.86-0.9-1.23a1 1 0 0 1 1.07 -0.37z"/><path d="m264.56 266.88a1 1 0 0 1 1.29 -0.12 0.88 0.88 0 0 1 0 1.1c-0.7 0.13-0.92 0.05-1-0.06s0.13-0.38 0-0.62-0.29-0.18-0.29-0.3z"/><path d="m272.65 264.25c0.29 0 0.46 0.26 0.79 0.67s0.76 0.94 0.67 1.38a1.61 1.61 0 0 1 -1.58 0.94 1.31 1.31 0 0 1 -1 -0.23 1.51 1.51 0 0 1 -0.31 -1.65c0.24-0.61 0.86-1.21 1.43-1.11z"/><path d="m276.6 263.08a1.09 1.09 0 0 0 1.21 -0.21 1.18 1.18 0 0 0 -0.58 -1.62c-0.92 0.09-1.45 0.72-1.37 1.17s0.7 0.65 0.74 0.66z"/><path d="m273.21 258.77a2.13 2.13 0 0 0 1.73 -2.68 2 2 0 0 0 -2.11 -1.15 1.86 1.86 0 0 0 -1.48 1 2.26 2.26 0 0 0 1.86 2.83z"/><path d="m276.67 256.13a1.2 1.2 0 0 1 0.63 -0.9 1 1 0 0 1 0.77 0c0.36 0.15 0.31 0.45 0.69 0.63s0.51 0 0.73 0.15a0.81 0.81 0 0 1 0.17 0.88 1.09 1.09 0 0 1 -0.45 0.48 1.46 1.46 0 0 1 -0.86 0.38 2.45 2.45 0 0 1 -0.94 -0.44c-0.49-0.29-0.58-0.4-0.65-0.52a1 1 0 0 1 -0.09 -0.66z"/><path d="m275.81 252.81a1 1 0 0 0 0.86 -0.54c0.3-0.67-0.51-1.45-0.56-1.5a2 2 0 0 0 -0.57 -0.37 1.16 1.16 0 0 0 -0.85 0.44 1.53 1.53 0 0 0 1.12 1.97z"/><path d="m276.13 246.31c0.06 0 0.75-0.27 1.08 0a1.24 1.24 0 0 1 -0.56 1.77 0.81 0.81 0 0 1 -0.78 -0.25 1.19 1.19 0 0 1 0.26 -1.52z"/><path d="m277.27 242.75a1.43 1.43 0 0 1 0.52 -1c0.71-0.52 2.19-0.11 3.46 1.27a2.34 2.34 0 0 1 -2.71 1.17 2.26 2.26 0 0 1 -1.27 -1.44z"/><path d="m278.44 239.9a0.88 0.88 0 0 0 0.63 0.31c0.38 0 0.48-0.42 0.87-0.62 0.74-0.39 1.55 0.4 1.92 0.13 0.21-0.16 0.28-0.66-0.33-2.19-0.66 0.91-1.17 1.08-1.51 1.06s-0.48-0.26-0.86-0.22c-0.55 0-1.15 0.61-1.06 1.08a0.71 0.71 0 0 0 0.34 0.45z"/><path d="m278 236.77a0.77 0.77 0 0 0 0.88 0.17c0.36-0.22 0-0.79 0.38-1.81 0.2-0.61 0.4-0.69 0.35-1-0.08-0.59-0.75-1.12-1.15-1s-0.27 0.41-0.6 0.5-0.44-0.12-0.62 0-0.29 0.32-0.23 1.15a0.86 0.86 0 0 0 0.06 0.77c0.17 0.19 0.4 0.08 0.6 0.27s0.02 0.64 0.33 0.95z"/></g><path d="m102.44 197.66a62.67 62.67 0 0 0 7.86 33.77c18.86 33.05 62.37 34.73 65.25 34.8 5.46 0 38.65-0.8 61.89-26.82a76.88 76.88 0 0 0 18.75 -41.76zm126.34 7.53a2.76 2.76 0 0 1 -2.18 1.31 2.42 2.42 0 0 0 -1.33 1.47c-0.14 0.71 0.34 1 0.13 1.64-0.29 0.83-1.37 0.74-1.61 1.56-0.18 0.64 0.39 1 0.14 1.38-0.38 0.54-1.82-0.15-2.42 0.54a1.94 1.94 0 0 0 -0.33 0.62 1.13 1.13 0 0 0 -0.09 0.69c0.16 0.5 1 0.43 1.06 0.82s-0.32 0.77-0.71 0.8-0.66-0.58-1.07-0.55c-0.22 0-0.51 0.2-0.83 1q-1.39-2-1.87-1.79-0.23 0.09-0.25 0.7c0.39 3 0.24 4-0.12 4.1s-1.15-1.27-1.78-1.07a0.76 0.76 0 0 0 -0.42 0.92c0.13 0.25 0.5 0.12 0.84 0.43a1.05 1.05 0 0 1 0.34 0.94 1.17 1.17 0 0 1 -1 0.87 5.05 5.05 0 0 1 -1.53 -0.19c-1.47-0.42-2.13-1.37-2.68-1.09-0.27 0.14-0.39 0.52-0.55 1a1.15 1.15 0 0 0 -0.08 0.66 1 1 0 0 0 0.85 0.74c0.43 0 0.5-0.52 1-0.61s1 0.19 1.06 0.49-0.91 0.71-0.86 1.23 0.67 0.56 0.61 0.78-0.53 0.26-0.93 0.16c-0.23-0.06-0.52-0.19-1-0.82-0.75-0.94-0.69-1.39-1.31-1.8-0.08-0.06-0.65-0.43-0.93-0.25s0 0.88-0.34 1.19-0.73 0-1 0.21a0.81 0.81 0 0 0 0 0.93c0.41 0.64 1.54 0.2 2.2 0.86a1.59 1.59 0 0 1 0.39 1.13 1 1 0 0 1 -0.48 0.63c-0.57 0.29-1.3-0.28-1.48-0.08s0.89 1.2 0.61 1.74c-0.16 0.3-0.67 0.34-1.23 0.38-1.35 0.09-2.24-0.32-2.34-0.11s0.45 0.44 0.85 1.23a3.35 3.35 0 0 1 0.26 0.73l-1.11 0.21c-1.26 0.17-2.2-0.63-2.37-0.41s0.72 0.93 0.55 1.19-1.4-0.47-2 0c-0.41 0.31-0.21 0.85-0.63 1.06s-0.62-0.12-1.19-0.18c-1-0.1-2.09 0.51-2.15 1.08s1.28 0.92 1.23 1.52-1 0.54-2.49 1.34c-1.64 0.88-2.36 1.85-2.86 1.58s-0.14-0.81-0.56-1-0.68 0.32-1.82 0.53c-0.5 0.09-0.79 0.06-1 0.29s0.05 0.47-0.06 0.82a1.41 1.41 0 0 1 -1.24 0.81c-0.77 0-1.14-0.67-1.51-0.49s-0.13 0.48-0.41 1.12a2 2 0 0 1 -1 1.14 1.81 1.81 0 0 1 -1.92 -0.48c-0.42-0.5-0.14-0.94-0.51-1.19-0.55-0.37-1.29 0.55-2.37 0.29-0.74-0.18-1-0.76-1.39-0.61s-0.37 1-0.68 1-0.63-1.34-1.39-1.47c-0.45-0.08-0.58 0.36-1.33 0.67a4.84 4.84 0 0 1 -3.28 -0.18 7.31 7.31 0 0 1 -1.67 -0.76c-2-1.49-2.75-1.57-3-1.35s-0.08 0.69-0.53 1.37c-0.34 0.52-0.95 1-1.27 0.86s-0.12-0.81-0.59-1.15a1 1 0 0 0 -0.65 -0.16c-1.4 0.78-2 0.74-2.22 0.53-0.53-0.44 0.12-1.87-0.36-2.11s-0.8 0.54-1.46 0.39-0.5-0.61-1.06-0.74a3.15 3.15 0 0 0 -1.39 0.37c-0.77 0.29-0.85 0.4-0.89 0.49-0.15 0.37 0.31 0.74 0.13 1a0.66 0.66 0 0 1 -0.55 0.2 5 5 0 0 1 -2.45 -0.86 7 7 0 0 0 -2.79 -0.78 2.8 2.8 0 0 1 -2 -1.31 2 2 0 0 1 -0.19 -0.65c-1.19 0.17-1.49 0.1-1.52 0s0.85-0.43 1-1.15c0.13-0.49-0.12-1.08-0.42-1.15s-0.34 0.26-0.8 0.33a1.85 1.85 0 0 1 -0.82 -0.14 6.29 6.29 0 0 1 -0.91 -0.35c-2.06-1-2.61-0.81-3.34-1.6-0.24-0.26-0.45-0.57-0.76-0.55s-0.43 0.34-0.89 0.41a1.07 1.07 0 0 1 -0.51 0c-0.64-0.27-0.06-1.54-0.79-2.48a8.37 8.37 0 0 0 -1.87 -1.18l-0.76-0.41a1.42 1.42 0 0 1 -0.13 -1.31c0.28-0.43 0.91-0.37 0.93-0.57s-1.11-0.85-2.15-0.61c-0.52 0.12-0.66 0.35-1.27 0.4-0.44 0-1.12 0-1.19-0.28s1-0.58 1.27-1.51c0.1-0.34 0.12-0.84-0.13-1s-0.82 0.14-1.14 0.45c-0.6 0.58-0.5 1.25-1 1.4a0.55 0.55 0 0 1 -0.45 0c-0.39-0.28 0.19-1.31-0.15-1.58-0.13-0.11-0.43-0.11-1.12 0.29a2 2 0 0 0 0.67 -0.6c0.39-0.58 0.16-1 0.59-1.61 0.24-0.35 0.34-0.26 0.57-0.62 0.33-0.51 0.2-0.81 0.39-1.31 0.35-1 1.3-1.24 1.19-1.47s-0.72-0.11-1.17 0.14a1.67 1.67 0 0 0 -0.69 0.72c-0.14 0-1.55-0.5-2.28 0.2-0.08 0.08-0.36 0.35-0.3 0.61 0.12 0.49 1.3 0.44 1.35 0.78 0 0.14-0.16 0.35-0.89 0.66 0.07 0.2 0.61 1.8-0.09 2.36-0.16 0.13-0.52 0.32-0.71 0.18s-0.16-0.39 0-0.69c0.37-1.43 0.22-1.9 0-2.05s-1.12 0.31-1.44 0-0.11-0.46-0.08-0.61c0.17-0.92 1.25-1.41 1.5-1.52l1.8-0.65a0.63 0.63 0 0 0 -0.17 -0.49c-0.28-0.24-0.69 0.07-1-0.12s-0.06-1.1-0.51-1.39a0.83 0.83 0 0 0 -1 0.13c-0.31 0.36 0.15 0.89-0.18 1.43-0.15 0.25-0.32 0.23-0.68 0.49-0.89 0.65-1.1 1.68-1.23 1.64s0.32-1-0.13-1.47c-0.23-0.23-0.49-0.14-0.63-0.37-0.25-0.41 0.39-1 0.21-1.23s-0.6 0.19-1.44 0.33a4.09 4.09 0 0 1 -0.93 0l0.57-3a1.05 1.05 0 0 0 -0.7 -0.06c-0.5 0.15-0.55 0.71-1 0.86-0.21 0.08-0.56 0.06-1.14-0.37 0.39-2 0.05-2.73-0.39-3.06s-1-0.18-1.27-0.61 0.33-0.9 0.18-1.78c-0.12-0.69-0.63-0.78-0.68-1.43a1.64 1.64 0 0 1 0.38 -1.15c1-1.08 3.67 0.82 7.06 0.37a8.29 8.29 0 0 0 2.92 -1 4.65 4.65 0 0 1 2.28 0.16c0.67 0.23 0.92 0.52 1.39 0.45 0.68-0.1 0.67-0.75 1.44-1.19a3.67 3.67 0 0 1 3.59 0.33c0.38 0.27 0.5 0.51 0.89 0.57a2.14 2.14 0 0 0 1.69 -0.78 1.8 1.8 0 0 1 1.35 0.2c0.51 0.37 0.41 0.92 0.85 1.31s0.85 0.46 2 0.18c1.06 0.39 2.26 0.66 2.88 0.11s0.17-1.18 0.76-1.72 2.08-0.39 3.25-0.16 1.19 0.43 2 0.53a6.78 6.78 0 0 0 3.13 -0.53c0.73-0.22 5.69-1.73 6.66-0.39 0.28 0.39 0.11 0.85 0.48 1s1-0.17 1.73-0.53a11.29 11.29 0 0 1 2.79 -0.94 8.27 8.27 0 0 1 4.35 -0.25c0.44 0.1 0.33 0.12 1.69 0.53 2.92 0.88 3.53 0.82 3.93 0.53s0.32-0.89 0.76-1.06c1-0.39 2.56 2.05 3.25 1.72 0.18-0.09 0.36-0.38 0.23-1.47a5.85 5.85 0 0 1 2.06 0.45c1.25 0.53 1.59 1.23 2.41 1.27 0.49 0 1.19-0.19 2.07-1.27 1.78-1.17 2.57-1.15 3-0.9s0.29 0.95 0.85 1.27 1.07-0.13 2.66-0.37c1-0.15 1.83-0.27 2.2 0.14s0.1 0.7-0.13 1.78c-0.35 1.69-0.71 3.39 0 3.93a1.25 1.25 0 0 0 0.89 0.18 2 2 0 0 0 1.3 -0.64c0.63-0.78 0.06-1.76 0.35-3.31a5.38 5.38 0 0 1 0.79 -1.94 12 12 0 0 0 4.49 0c2.26-0.44 3.62-1.44 5.7-0.94a8.66 8.66 0 0 1 1.52 0.61 12.56 12.56 0 0 0 6.68 0.37 42.13 42.13 0 0 1 9.08 -0.06 2.3 2.3 0 0 1 -0.18 1.69z" fill="#fff"/><g fill="#fff"><path d="m76.17 109.35a2.25 2.25 0 0 1 2 2.15 2.28 2.28 0 0 1 -2 2.42 2 2 0 0 1 -1.75 -1.25c-0.56-1.34 0.5-3.27 1.75-3.32z"/><path d="m73.17 104.75c0.58-0.23 1.4 0.36 1.58 1.08a1.35 1.35 0 0 1 -0.67 1.58c-0.62 0.17-1.43-0.61-1.5-1.42a1.24 1.24 0 0 1 0.59 -1.24z"/><path d="m70.28 99.78c0.43-0.12 1 0.51 1.22 1 0.07 0.15 0.47 1 0 1.5a1 1 0 0 1 -1 0.31 1.07 1.07 0 0 1 -0.62 -0.53c-0.42-0.8-0.14-2.13 0.4-2.28z"/><path d="m76.81 92.88a3.66 3.66 0 0 0 -0.22 -2c-0.9-1.87-4.34-2.32-6.44-1.16-0.2 0.11-1.61 0.89-1.53 1.84 0 0.46 0.42 0.84 1.59 1.5 2.28 1.28 4.57 2.56 5.78 1.59a2.82 2.82 0 0 0 0.82 -1.77z"/><path d="m82.81 90.19c1.21 1.8 1.24 2.59 1 3s-0.71 0.32-1.28 1c-0.32 0.38-0.34 0.58-0.64 0.73a1.51 1.51 0 0 1 -1.23 0 1.66 1.66 0 0 1 -0.81 -0.87 1.74 1.74 0 0 1 -0.09 -1.34c0.2-0.47 0.65-0.65 1.25-1a9.51 9.51 0 0 0 1.8 -1.52z"/><path d="m82.94 98a1.7 1.7 0 0 1 0.7 -0.67c0.53-0.26 0.86 0 1.33-0.28s0.53-0.82 0.78-0.8 0.2 0.59 0.66 1.13 1.08 0.42 1.31 0.91c0.15 0.32 0 0.49-0.22 1.44-0.25 1.26 0 1.46-0.31 1.84a2.07 2.07 0 0 1 -2 0.51 2.37 2.37 0 0 1 -1.34 -0.87 2.2 2.2 0 0 1 -0.33 -0.64c-0.27-0.87 0.13-1.52-0.24-1.84-0.11-0.1-0.26-0.13-0.34-0.31a0.63 0.63 0 0 1 0 -0.42z"/><path d="m89.84 90.34a0.9 0.9 0 0 1 0.78 -0.16c0.56 0.27 0.49 1.85 0 2.06-0.32 0.13-0.91-0.2-1.08-0.73a1.1 1.1 0 0 1 0.3 -1.17z"/><path d="m78.69 82.31a1.08 1.08 0 0 1 0.63 -0.91c0.61-0.2 1.42 0.59 1.31 1.22a0.72 0.72 0 0 1 -0.39 0.53c-0.43 0.2-1.12-0.09-1.55-0.84z"/><path d="m83.7 85.08a1.87 1.87 0 0 1 2.46 -0.51 1.81 1.81 0 0 1 0.72 0.84 1.39 1.39 0 0 1 -0.44 1.66 1.22 1.22 0 0 1 -0.91 -0.09c-0.33-0.16-0.3-0.31-0.62-0.5-0.52-0.31-0.86-0.08-1.12-0.34a1 1 0 0 1 -0.09 -1.06z"/><path d="m91.22 73a2.61 2.61 0 0 0 1.06 -0.06c0.72-0.22 1.72-0.84 1.72-1.65a1.63 1.63 0 0 0 -1.16 -1.19c-0.55 0.35-1 0.68-1.31 0.94-0.64 0.5-0.78 0.68-0.81 0.91a1.31 1.31 0 0 0 0.5 1.05z"/><path d="m92.56 84.78a1.12 1.12 0 0 1 0.81 -0.59 1.25 1.25 0 0 1 1.25 0.34 1.29 1.29 0 0 1 -0.62 1.85 1.26 1.26 0 0 1 -1.32 -0.69 1.08 1.08 0 0 1 -0.12 -0.91z"/><path d="m98.25 68.5c2.26-1.05 4.58-0.32 5.31 1.13a3 3 0 0 1 -0.72 3.63 2.66 2.66 0 0 1 -1.78 0.44 2.84 2.84 0 0 1 -0.5 -0.19c-2.07-1.02-2.28-4.28-2.31-5.01z"/><path d="m93.69 77.75a1.33 1.33 0 0 0 0.59 0.94 1.15 1.15 0 0 0 1.31 0 1.1 1.1 0 0 0 0.28 -1.25 0.92 0.92 0 0 0 -0.52 -1.07 0.9 0.9 0 0 0 -1.08 0.28c-0.12 0.21 0 0.4-0.19 0.53s-0.41 0-0.5 0.13-0.05 0.15 0.11 0.44z"/><path d="m86.68 79.64a1.84 1.84 0 0 0 1.32 -0.51c0.71-0.69 0.76-2 0.32-2.3-0.2-0.16-0.38 0-0.6-0.21s-0.13-0.79-0.43-1.08c-0.12-0.12-0.36-0.24-0.88-0.14a2.37 2.37 0 0 0 -1.8 1c-0.61 1.21 0.72 3.16 2.07 3.24z"/><path d="m111.75 68.83c-0.21 1.79 0.12 2.43 0.5 2.67a5.81 5.81 0 0 0 1.09 0.28 6.6 6.6 0 0 1 1.36 0.55 2.86 2.86 0 0 1 -0.52 0.79 2.92 2.92 0 0 1 -1.27 0.79 2.79 2.79 0 0 0 -0.54 2.42l-1-0.29a1.4 1.4 0 0 1 -0.31 -1.14c0.15-0.62 0.85-0.73 1.19-1.47a2 2 0 0 0 0.13 -1.1 11 11 0 0 0 -3.71 0.71 1.64 1.64 0 0 0 -1.07 0.55 1.58 1.58 0 0 0 -0.34 0.74 2 2 0 0 1 -0.5 1c-0.41 0.44-0.89 0.48-1 0.83 0 0.15 0 0.39 0.38 0.75 0.52 0.61 0.8 0.7 1 0.64s0.19-0.51 0.48-1a2.23 2.23 0 0 1 1 -0.86 2.14 2.14 0 0 1 0.76 1.69 1.89 1.89 0 0 1 -0.34 0.94 3.44 3.44 0 0 0 -3.54 1.42 0.79 0.79 0 0 0 -1.33 -0.58l-0.33 1.17 0.33 3.13c-1.46 0.09-2-0.25-2.25-0.59s-0.23-0.65-0.62-0.94a1.47 1.47 0 0 0 -0.75 -0.26 1.51 1.51 0 0 0 -0.91 0.82c-0.28 0.87 0.83 1.86 0.53 2.22s-0.92-0.17-1.47 0.25a1 1 0 0 0 -0.28 0.34 2.46 2.46 0 0 1 0.07 3.37 2.37 2.37 0 0 1 -2.07 0.33 4.16 4.16 0 0 1 -2 2.38 2.25 2.25 0 0 1 -1 4.17c-0.52 2-1.22 2.58-1.78 2.76-0.28 0.09-0.93 0.19-1.12 0.66a0.86 0.86 0 0 0 0 0.53 1.17 1.17 0 0 1 0.56 0.38 1.41 1.41 0 0 1 0.16 1.25 2.21 2.21 0 0 1 -1.57 1.3v2.92a1.81 1.81 0 0 0 -1.61 -0.22 1.78 1.78 0 0 0 -1 1.05l1 1.33-1.42 1 0.79 1.58a7.17 7.17 0 0 0 -2.54 0.32 7 7 0 0 0 -0.94 0.38 0.84 0.84 0 0 0 -0.44 -0.91 0.88 0.88 0 0 0 -1 0.5c-0.11 0.25 0 0.57 0.14 1.18s0.3 0.76 0.22 1c-0.13 0.41-0.73 0.71-1 0.55s0-0.92-0.47-1.22a0.8 0.8 0 0 0 -0.84 0 1 1 0 0 0 -0.37 0.75 1.44 1.44 0 0 0 0.16 0.78c0.44 0.92 1.22 0.94 1.69 1.68a2.26 2.26 0 0 1 0.28 1.51 0.78 0.78 0 0 1 -1 0.34 0.76 0.76 0 0 1 -0.35 -0.81l-0.34-1.14-1.54-0.21c0.47-1.2 0.28-1.57 0.14-1.71s-0.21-0.1-0.91-0.37l-0.52-0.21-0.1 1.08a4.15 4.15 0 0 0 0.31 1.13 7.66 7.66 0 0 0 1 1.47 3.55 3.55 0 0 1 0.46 2.41h-1.93a0.75 0.75 0 0 0 -0.57 0.25c-0.23 0.32 0.07 0.75-0.09 0.94s-0.47 0.13-1.37-0.31a0.91 0.91 0 0 0 -0.62 0c-0.71 0.34-0.4 1.7-0.81 3.72-0.32 1.56-0.93 2.83-1.24 2.78s-0.15-0.8-0.56-1-0.94 0.35-1.2 0.71a2.43 2.43 0 0 0 -0.37 1.81l-3-4.26-0.23 26.42 4.38 0.13 83.22-81zm5.52 0.57c0.31-0.31 1-0.22 1.81 0.23a0.83 0.83 0 0 1 -0.42 0.28c-0.23 0.06-0.33 0-0.56 0.05s-0.15 0.13-0.34 0.2a0.55 0.55 0 0 1 -0.46 0 0.51 0.51 0 0 1 -0.19 -0.52 0.59 0.59 0 0 1 0.16 -0.24zm-2.78 0.71q-1-0.11-1-0.28s0-0.07 0.08-0.11a1 1 0 0 1 0.29 -0.21 1.7 1.7 0 0 1 1.55 0.28 0.57 0.57 0 0 1 -0.24 0.38 0.58 0.58 0 0 1 -0.67 -0.06zm0.5 5c-1-0.32-1.24-0.56-1.23-0.73s0.38-0.28 0.77-0.62a2.51 2.51 0 0 0 0.73 -1.25 0.59 0.59 0 0 1 0.48 -0.23c0.29 0.06 0.32 0.56 0.54 1 0.5 1 1.65 1.17 1.6 1.46s-0.56 0.4-2.88 0.36zm5.5-2.25c-0.36-0.2-0.49-0.41-0.71-0.36s-0.24 0.25-0.38 0.24-0.23-0.79-0.62-0.94-0.62 0.29-1 0.15a0.73 0.73 0 0 1 -0.37 -0.42 0.38 0.38 0 0 1 0 -0.33c0.17-0.24 0.76 0.09 1.31-0.08a1.5 1.5 0 0 0 0.85 -0.85 7.86 7.86 0 0 0 0.16 1.29 0.52 0.52 0 0 0 0.21 0.38c0.15 0.08 0.26 0 0.42 0s0.12 0.26 0.35 0.48 0.15 0.08 0.35 0.23 0.44 0.36 0.4 0.44-0.53 0-0.96-0.24zm2-1.6a1 1 0 0 1 -0.65 -0.4c-0.18-0.29 0-0.53-0.23-0.71s-0.59 0-0.81-0.2a0.45 0.45 0 0 1 -0.1 -0.44c0.1-0.21 0.62-0.33 2.5 0.1 0.48 0.42 0.54 0.59 0.5 0.67s-0.46 0-0.79 0.17a1.08 1.08 0 0 0 -0.43 0.8zm0.82 0.63a0.41 0.41 0 0 1 -0.15 -0.2 1.31 1.31 0 0 1 0.44 -0.35 1.38 1.38 0 0 1 1 -0.08l-0.46 0.44a0.68 0.68 0 0 1 -0.84 0.18z"/><path d="m280.5 114.83c-0.46-0.28-0.86-0.19-1.21-0.34a1.66 1.66 0 0 0 -0.31 0.61c-0.17 0.49-0.07 0.67-0.23 0.79s-0.65-0.14-0.93 0.08-0.14 0.46-0.29 0.5-0.29-0.15-0.42-0.35c-0.29-0.2-0.34-0.32-0.32-0.4s0.2-0.12 0.48-0.33 0.24-0.32 0.42-0.37 0.36 0.1 0.52 0.06c0.36-0.08 0.34-1.09 0.47-1.61a0.23 0.23 0 0 0 -0.11 -0.11c-0.39-0.14-0.92 0.69-1.15 0.56s0.21-0.77-0.08-1.4c-0.22-0.46-0.77-0.79-1.11-0.67s-0.16 0.26-0.5 0.52a3.64 3.64 0 0 1 -0.68 0.32 1.11 1.11 0 0 1 -0.16 1c-0.23 0.34-0.48 0.3-0.66 0.66s-0.08 0.68-0.17 0.7-0.16-0.43-0.56-0.7c-0.21-0.14-0.31-0.1-0.53-0.2-0.48-0.22-0.36-0.66-0.73-0.87s-0.65 0.15-1-0.08-0.21-0.38-0.7-1l-0.36-0.38c-0.63-0.65-0.85-0.78-0.82-1a0.41 0.41 0 0 1 0.41 -0.28c0.22 0 0.27 0.3 0.66 0.59s0.58-0.1 1 0.1 0.28 0.56 0.69 0.77 0.49 0 0.75 0.16 0.22 0.65 0.5 0.84 0.48 0.15 1.14-0.2c-0.17-0.12 0.14-0.57-0.07-0.94s-0.44-0.17-0.65-0.43c-0.37-0.46 0.22-1.24-0.1-1.54s-0.77 0-0.82-0.12 0.47-0.27 0.53-0.62-0.2-0.46-0.77-1.17c-0.22-0.27-0.39-0.51-0.5-0.67a0.82 0.82 0 0 0 -0.73 -0.08c-0.19 0.11-0.18 0.31-0.38 0.4a0.55 0.55 0 0 1 -0.67 -0.21c-0.08-0.27 0.51-0.5 0.5-0.94a0.84 0.84 0 0 0 -0.37 -0.59 1.43 1.43 0 0 0 -1.15 0.05 1.79 1.79 0 0 0 -0.34 0.31 1.91 1.91 0 0 0 -0.3 0.47 1.71 1.71 0 0 0 0.24 0.87c0.3 0.48 0.74 0.58 0.92 1.09a1.24 1.24 0 0 1 0.06 0.52 1.32 1.32 0 0 1 -0.83 0.42 1.36 1.36 0 0 1 -1.32 -0.83c-0.26-0.71 0.42-1.43 0.1-1.73a0.48 0.48 0 0 0 -0.44 -0.08c-0.16 0.05-0.28 0.2-0.41 0.52-0.34 0.8-0.22 1.25-0.54 1.46a0.64 0.64 0 0 1 -0.42 0.09c-0.39-0.74-0.35-1.17-0.22-1.42s0.31-0.34 0.63-0.77a4.13 4.13 0 0 0 0.41 -0.71q0.34-2 0-2.12t-0.66 0.62c-1.38-0.12-1.84-0.52-2-0.87s0-0.52-0.23-0.76c-0.46-0.51-1.54 0-1.72-0.41-0.11-0.21 0.23-0.42 0.11-0.73s-0.6-0.32-0.72-0.66a0.71 0.71 0 0 1 0.11 -0.57c0.54-0.09 0.76 0 0.85 0.13s0 0.57 0.17 0.86a0.71 0.71 0 0 0 0.45 0.25 1 1 0 0 0 0.42 -0.33 1.13 1.13 0 0 0 0.14 -0.95c2 0.26 2.55 0.14 2.61-0.05s-0.19-0.27-0.17-0.59 0.31-0.44 0.39-0.81a1 1 0 0 0 -0.12 -0.71 1.41 1.41 0 0 0 1.31 -1.41c0.72 0.41 1.52 0.8 1.68 0.61v-0.37a4.42 4.42 0 0 0 -0.56 -1.15 1.58 1.58 0 0 1 0.33 -1.12c0.38-0.43 0.91-0.35 0.94-0.56s-1.21-1-1.75-0.67 0 1.08-0.59 1.89a2.42 2.42 0 0 1 -1 0.76c-2.19 1.19-3.9 2.13-5.21 1.4a2.14 2.14 0 0 1 -0.53 -0.42 0.67 0.67 0 0 0 -0.59 0.07c-0.2 0.19 0 0.53-0.19 0.85s-0.32 0.41-0.91 0.52a1.66 1.66 0 0 0 0.53 -1.7 1.23 1.23 0 0 0 -0.35 -0.5 1.54 1.54 0 0 1 -0.1 0.23 1.62 1.62 0 0 1 -0.5 0.54c-0.37 0.23-1 0.33-1.27 0s0.08-1-0.23-1.19a0.56 0.56 0 0 0 -0.45 0 1.06 1.06 0 0 0 -0.61 0.55c-0.28 0.47-0.11 0.63-0.33 0.9s-0.62 0.12-1 0.46-0.36 0.88-0.61 0.91-0.44-0.37-0.45-0.41c-0.28-0.54 0-1-0.25-1.56a0.55 0.55 0 0 0 -0.21 -0.23 0.68 0.68 0 0 0 -0.56 0 2.53 2.53 0 0 0 -0.63 0.38c-0.48 0.39-0.64 0.83-0.76 0.79s0.13-0.84-0.2-1.09-0.39 0.07-0.92 0a1.8 1.8 0 0 1 -0.73 -0.35c-0.07-0.06-0.39-0.32-0.33-0.46s0.3 0 0.56-0.17a0.82 0.82 0 0 0 0.37 -0.53c0.08-0.65-2.14-1.45-2.44-1.55-1.53-0.54-3.8-1.29-6.85-2.12-3.55-3.93-4.13-5.29-3.94-5.77 0-0.08 0.24-0.54 0-0.81s-0.38-0.09-0.59-0.28-0.13-0.5-0.25-1.23c-0.08-0.5-0.18-1-0.5-1.15a0.72 0.72 0 0 0 -0.56 0.13c-0.23 0.16-0.2 0.33-0.41 0.5s-0.58 0.26-0.7 0.14 0.87-1.35 0.56-1.82-1.15 0.06-1.58-0.47c-0.16-0.19-0.14-0.38-0.42-0.62s-0.45-0.26-0.44-0.37 0.07-0.14 0.36-0.22a5.19 5.19 0 0 0 3 -2 5.15 5.15 0 0 0 -0.83 0.23c-0.31 0.11-0.45 0.2-0.85 0.35s-0.76 0.29-0.86 0.2 0-0.37 0.19-1.1c0.24-0.91 0.23-1.24 0.39-1.26s0.43 1 0.89 1.06c0.31 0 0.53-0.41 1.3-1.66s1.11-1.79 1.4-2.17c0.77-1 1.16-1.23 1.06-1.56-0.15-0.51-1.25-0.68-2-0.6a3.53 3.53 0 0 0 -1.35 0.46 7.52 7.52 0 0 1 -0.89 0.61c-0.41 0.19-1 0.35-1.19 0.14s0.44-0.7 0.27-1.13c-0.08-0.22-0.32-0.32-0.66-0.43-1.17-0.38-1.5-0.14-2.12-0.37-0.9-0.34-0.78-1-1.83-1.65a3.62 3.62 0 0 0 -1.56 -0.46l-35.75-1.44 90 82.88v-34a1.91 1.91 0 0 0 -0.75 -1.05zm-18.86-15.31c0.15-0.16 0.36 0 0.66-0.14s0.28-0.21 0.55-0.42 0.6-0.45 0.87-0.42 0.26 0.16 0.48 0.29c0.71 0.43 1.61-0.09 1.72 0.14s-0.13 0.34-0.32 0.44a0.57 0.57 0 0 1 -0.27 0.05 12.13 12.13 0 0 0 -1.76 -0.16 2.58 2.58 0 0 0 -0.81 0.26 2.25 2.25 0 0 1 -0.62 0.32c-0.06 0-0.47 0.11-0.56 0a0.29 0.29 0 0 1 0.06 -0.36zm-5.78 0.45c-0.58 0.09-1.14 0-1.14-0.11s0.34 0 0.66-0.28 0.32-0.59 0.48-0.59 0.2 0.08 0.34 0.44c0.41 0.06 0.51 0.13 0.52 0.19s-0.47 0.29-0.86 0.38zm7.8 5.27a0.78 0.78 0 0 1 1 0.35 2.39 2.39 0 0 0 -0.66 0.32c-0.17 0.12-0.27 0.23-0.39 0.2s-0.22-0.22-0.27-0.37a0.73 0.73 0 0 1 0.32 -0.51zm-0.77 3.73c-0.13 0.23 0 0.44-0.22 0.58a0.47 0.47 0 0 1 -0.31 0.09 0.52 0.52 0 0 1 -0.3 -0.33c0-0.2 0.13-0.38 0.31-0.58a2 2 0 0 1 0.34 -0.3c0.58 0 0.72 0 0.73 0.08s-0.37 0.13-0.55 0.49zm1.25 2.52c-0.11 0.22 0 0.37-0.18 0.49a0.48 0.48 0 0 1 -0.51 0.06 0.49 0.49 0 0 1 -0.28 -0.45 1 1 0 0 0 0.22 -0.41c0.09-0.36-0.09-0.57 0-0.94a1.06 1.06 0 0 1 0.22 -0.44c0.08-0.23 0.14-0.27 0.17-0.27s0 0.58 0.35 0.95 0.64 0.26 0.65 0.42-0.45 0.19-0.64 0.58zm15.46 4.64c0.09-0.2 0.16-0.24 0.2-0.24s0.14 0.08 0.4 0.68c0.18 0.41 0.22 0.52 0.17 0.57s-0.2 0-0.31 0a1.63 1.63 0 0 0 -0.33 -0.35c-0.13-0.1-0.22-0.13-0.25-0.23a0.44 0.44 0 0 1 0.12 -0.43zm-2 2.17c0.69 0 1.18 0.48 1.5 0.25 0.17-0.12 0.07-0.29 0.31-0.5s0.28-0.1 0.65-0.29 0.39-0.29 0.46-0.25-0.26 0.6-0.17 1.33c0.06 0.5 0.32 0.8 0.15 1.16a0.71 0.71 0 0 1 -0.2 0.24 0.81 0.81 0 0 1 -0.63 0c-0.31-0.16-0.26-0.53-0.55-0.63s-0.34 0.13-0.7 0-0.3-0.16-0.44-0.1-0.14 0.23-0.29 0.28a0.38 0.38 0 0 1 -0.37 -0.12c-0.15-0.16 0-0.35-0.15-0.47s-0.41 0-0.51-0.12-0.07-0.17 0.05-0.44a1.63 1.63 0 0 1 0.89 -0.35zm0.83 3.25a1 1 0 0 1 -0.6 -0.37 1.13 1.13 0 0 1 0.77 0c0.17 0.06 0.41 0.19 0.39 0.29s-0.32 0.11-0.55 0.07zm0.55 4a0.53 0.53 0 0 1 -0.16 0.23 0.88 0.88 0 0 1 -1 -0.08 0.69 0.69 0 0 1 0.77 -0.54 0.64 0.64 0 0 1 0.41 0.38zm-2.51-11.29a1.82 1.82 0 0 1 0.44 -0.15 0.3 0.3 0 0 1 0.23 0.16 0.29 0.29 0 0 1 0 0.21 0.42 0.42 0 0 1 -0.67 0.13c-0.19-0.06-0.28 0-0.29-0.07s0.13-0.2 0.3-0.29zm-1.25 1.35a0.46 0.46 0 0 1 0.49 -0.17 0.76 0.76 0 0 1 0.47 0.75c0 0.35-0.42 0.62-0.57 0.56s0-0.26-0.22-0.53-0.19-0.18-0.22-0.32a0.41 0.41 0 0 1 0.07 -0.3zm-0.44 3.42c0.21-0.18 0.23-0.45 0.31-0.44s0.09 0.2 0.1 0.33a7.1 7.1 0 0 0 0.19 1.06c0.26 0.69 1.77 0.66 1.76 0.78a6.59 6.59 0 0 1 -1.63 0.09 9 9 0 0 1 -1.83 0c0-0.07 0.76-0.07 0.94-0.48a0.86 0.86 0 0 0 -0.17 -0.75c-0.39-0.19-0.47-0.28-0.46-0.33s0.49 0 0.8-0.29zm-8.87-5.66c-0.18-0.05-0.29-0.37-0.19-0.61a0.55 0.55 0 0 1 0.34 -0.3 0.5 0.5 0 0 1 0.33 0.44c0.02 0.27-0.27 0.51-0.46 0.46zm0.78 1a0.68 0.68 0 0 1 -0.3 0.06 0.42 0.42 0 0 1 -0.06 -0.37 0.41 0.41 0 0 1 0.39 -0.27s0.28 0 0.33 0.13-0.14 0.35-0.35 0.44zm1.63-2a1.21 1.21 0 0 1 -0.16 0.61 0.87 0.87 0 0 1 -0.47 0.36 1.38 1.38 0 0 1 -0.66 0 0.83 0.83 0 0 1 -0.23 -0.47c0-0.22 0.28-0.25 0.31-0.47s-0.17-0.4-0.39-0.61c-0.5-0.47-0.76-0.42-0.83-0.66-0.11-0.42 0.59-1.06 0.59-1.06 0.29 0 0.63 0.09 0.73 0.31s-0.16 0.49 0 0.7 0.82 0 1.09 0.34c0.1 0.1 0.08 0.38 0.03 0.92zm1.47 4.91c-0.08 0-0.2-0.13-0.24-0.17a0.25 0.25 0 1 1 0.31 -0.34c0.06 0.23 0.03 0.45-0.06 0.48zm0-1.75a1.54 1.54 0 0 1 -0.81 -0.19 1.1 1.1 0 0 1 0.52 -0.34 0.72 0.72 0 0 1 0.53 0c0.14 0.07 0.31 0.22 0.28 0.34s-0.44 0.15-0.54 0.16zm0.49 0.91c0-0.06 0.11-0.11 0.31-0.3a2.26 2.26 0 0 0 0.38 -0.48 0.58 0.58 0 0 1 0 0.72c-0.25 0.2-0.69 0.13-0.72 0.03zm1.29 5a0.75 0.75 0 0 0 -0.19 -0.6c-0.09-0.08-0.19-0.11-0.23-0.23a0.3 0.3 0 0 1 0.08 -0.33c0.13-0.08 0.36 0.07 0.46 0.21a0.88 0.88 0 0 1 -0.15 0.93zm1.27-3c-0.35 0.54-0.55 0.84-0.66 0.8s0.13-0.94-0.2-1.14-0.4 0.1-0.72 0c0 0-0.29-0.13-0.31-0.33s0.5-0.41 0.84-0.92a1.54 1.54 0 0 0 0.22 -1.41c-0.33-0.68-1.49-0.67-1.47-0.84s0.39 0 1.14-0.23c0.33-0.08 0.52-0.17 0.61-0.07s-0.12 0.36 0 0.66 0.33 0.23 0.58 0.58 0.09 0.36 0.25 0.58c0.32 0.45 1 0.45 1 0.55s-1.06 0-1.17 0.33 0.29 0.36 0.3 0.77c-0.08-0.04-0.1 0.08-0.44 0.61zm1.08 4.31c-0.09 0-0.16-0.11-0.21-0.21a0.75 0.75 0 0 1 0.06 -0.65 0.69 0.69 0 0 1 0.38 -0.27c0.34-0.1 0.73 0 0.74 0.18s-0.3 0.1-0.57 0.4-0.32 0.49-0.42 0.49zm1.17 3.06c-0.16 0-0.36-0.13-0.38-0.26s0.07-0.15 0.16-0.27a1.34 1.34 0 0 0 0.22 -0.54 1 1 0 0 0 0.31 0.56c0.26 0.21 0.58 0.18 0.59 0.24s-0.21 0.08-0.93 0.21zm1.5-0.9a1.28 1.28 0 0 1 -0.37 -0.48c-0.36-0.56-0.87-0.61-0.83-0.81s0.45-0.06 0.83-0.4c0.17-0.14 0.15-0.22 0.56-0.83 0.26-0.38 0.33-0.45 0.38-0.44s-0.18 0.75 0.13 1.1a0.6 0.6 0 0 0 0.35 0.17 0.77 0.77 0 0 1 0.21 -0.54 0.78 0.78 0 0 1 0.6 -0.23 3 3 0 0 1 -0.1 1.65c-0.59-0.18-0.84-0.12-0.94 0s0.19 0.85 0 1-0.23 0-0.36 0a1 1 0 0 1 -0.49 -0.25zm0.9 2a4 4 0 0 1 0.65 -0.56c0.08-0.05 0.4-0.26 0.6-0.15s0.23 0.73 0 1.08a1 1 0 0 1 -0.5 0.33c-0.14 0-1 0.22-1.14 0s0.11-0.46 0.36-0.73zm-0.29 4.79q0-0.15 0.93-0.42 0.56-0.1 0.6 0t-0.77 0.6q-0.77-0.08-0.79-0.21zm1.79 1.39a1 1 0 0 0 0.21 -0.77 0.88 0.88 0 0 1 0.47 0.94 0.93 0.93 0 0 1 -1.31 0.19 1 1 0 0 0 0.64 -0.39zm0.35 6.69c-0.63-0.41-0.72-0.72-0.71-0.9a4.77 4.77 0 0 1 0.23 -0.75l0.1-0.33a1.11 1.11 0 0 1 0.67 0.46 1.27 1.27 0 0 1 -0.32 1.49zm0.62-11.44c-0.81-0.2-1-0.31-1-0.37s0.31-0.08 0.77-0.33l0.21-0.12a0.46 0.46 0 0 1 0.31 0.5 0.45 0.45 0 0 1 -0.31 0.29zm0.4-3a0.43 0.43 0 0 1 -0.4 -0.48 0.5 0.5 0 0 1 0.71 -0.08 0.44 0.44 0 0 1 -0.34 0.57zm0.31-1.29a1.06 1.06 0 0 1 -0.62 -0.12 1.05 1.05 0 0 1 -0.37 -0.35c0-0.18-0.08-0.41 0-0.48s0.14 0 0.21 0a1 1 0 0 0 0.77 -0.12 1.18 1.18 0 0 1 0.13 0.63 1.16 1.16 0 0 1 -0.14 0.45z"/><path d="m251.44 87a2.07 2.07 0 0 0 -1.19 3.35 4.69 4.69 0 0 0 2.17 1.24c0.55 0.13 1.4 0.34 1.85-0.09s0.06-1.28 0.54-1.67 1.23 0.22 1.53-0.07c0.57-0.56-1.12-3.65-2-3.45-0.25 0.06-0.2 0.35-0.57 0.61-0.66 0.45-1.34-0.2-2.33 0.08z"/><path d="m244.73 83.89a1.58 1.58 0 0 0 1.88 -0.41 1.46 1.46 0 0 0 -0.25 -1.73 1.21 1.21 0 0 0 -0.92 -0.88 1.08 1.08 0 0 0 -1.08 0.4c-0.14 0.22 0 0.34-0.15 0.69s-0.45 0.47-0.5 0.75 0.47 0.97 1.02 1.18z"/><path d="m240 71.88a2 2 0 0 0 1.69 0c1.07-0.74 0.34-3.22-0.08-3.25-0.1 0-0.19 0.12-0.26 0.25a3.28 3.28 0 0 0 -0.9 0.63 2.1 2.1 0 0 0 -0.81 1.69 1.37 1.37 0 0 0 0.36 0.68z"/><path d="m245.77 72.31a3.66 3.66 0 0 0 2.15 0.46c0.91 0 1.44 0.07 1.78-0.27 0.52-0.52 0.1-1.37 0.59-1.68s1 0.24 1.33 0 0.08-1.22-0.27-1.71c-1.22-1.71-5.57-0.43-6.11-0.27-0.46 1.43-0.24 2.84 0.53 3.47z"/><path d="m249.67 75.1c-0.4-0.44-1.15-0.27-1.69-0.15a1.32 1.32 0 0 0 -0.87 0.42 1.35 1.35 0 0 0 0.15 1.46 1.46 1.46 0 0 0 1.41 0.59 1.53 1.53 0 0 0 1.09 -0.94s0.35-0.89-0.09-1.38z"/><path d="m251 80a0.78 0.78 0 0 0 -0.24 0.58c0 0.19 0.19 0.3 0.5 0.52s0.62 0.44 0.77 0.38 0.3-0.61 0.17-1.27a0.73 0.73 0 0 0 -0.4 -0.71c-0.32-0.06-0.65 0.37-0.8 0.5z"/><path d="m255.94 80.38a2 2 0 0 0 1.33 0.06 1 1 0 0 0 0.33 -0.5c0.1-0.41-0.21-0.7-0.75-1.52-0.69-1-0.72-1.37-1.08-1.44-0.13 0-0.5-0.05-1 0.46a2.6 2.6 0 0 0 0 1.56 2.19 2.19 0 0 0 1.17 1.38z"/><path d="m255.77 83.6a1.43 1.43 0 0 0 0.36 1 1.82 1.82 0 0 0 1 0.15 1.16 1.16 0 0 0 0.85 -2 1.25 1.25 0 0 0 -0.8 -0.47 1.4 1.4 0 0 0 -1.41 1.32z"/><path d="m259.6 90.38a1.86 1.86 0 0 0 0.51 0.24 1.48 1.48 0 0 0 1 -0.65 1.4 1.4 0 0 0 0.17 -1.19c-0.17-0.39-0.51-0.4-1.19-1a5.55 5.55 0 0 1 -0.58 -0.58 1.12 1.12 0 0 0 -1 0.33c-0.41 0.51 0 1.41 0.33 2a2.08 2.08 0 0 0 0.76 0.85z"/><path d="m265.35 90.65c0.35 0.25 0.73 0.51 1.08 0.37s0.53-0.74 0.5-1.12a1.47 1.47 0 0 0 -0.58 -1 1.17 1.17 0 0 0 -1 -0.23 1.08 1.08 0 0 0 -0.81 1c0.03 0.43 0.46 0.7 0.81 0.98z"/><path d="m260.54 92.73c-0.22 0.19-0.07 0.51-0.35 0.85s-0.31 0.14-0.52 0.35a1.44 1.44 0 0 0 -0.25 1.31 1.63 1.63 0 0 0 0.49 0.79 1.73 1.73 0 0 0 2.47 -2 2 2 0 0 0 -1 -1.29c-0.5-0.17-0.73-0.1-0.84-0.01z"/><path d="m275.21 93.17c0.73-0.07 1.16-0.11 1.45-0.44a2.1 2.1 0 0 0 -0.57 -2.75 2.07 2.07 0 0 0 -2.47 0 4.33 4.33 0 0 0 -0.55 0.82 2.71 2.71 0 0 0 -0.33 0.67 1.55 1.55 0 0 0 0.37 1.35c0.48 0.5 1.27 0.42 2.1 0.35z"/><path d="m279.65 105.31a0.88 0.88 0 0 0 0 -1.1 0.93 0.93 0 0 0 -1.33 0.08 0.89 0.89 0 0 0 0.06 1 0.9 0.9 0 0 0 1.27 0.02z"/><path d="m281.1 98a1.18 1.18 0 0 1 -0.44 0.6c-0.49 0.32-1 0-1.29 0.31-0.11 0.12-0.18 0.36 0 0.9a1.14 1.14 0 0 0 0.31 0.4c0.25 0.21 0.47 0.18 0.75 0.37a1.42 1.42 0 0 1 0.42 0.44 2.36 2.36 0 0 0 0.65 -1.19 2.45 2.45 0 0 0 -0.4 -1.83z"/><path d="m240.75 118c-20.35-28-55.69-28.06-59.75-28-4.66-0.56-35.3-3.7-59.75 18.75-18.17 16.68-22.05 37.51-23 44h154.87a67.17 67.17 0 0 0 -12.37 -34.75zm-7.87 27.06c-0.24 0.53-2-0.22-6.65-0.5-2.83-0.17-4.26-0.24-5.23 0.35-0.56 0.34-1.42 1.05-2.12 0.75-0.25-0.11-0.33-0.28-0.65-0.71-0.68-0.94-1.62-2-1.81-1.85s0.61 1.83 0.27 2c-0.18 0.11-0.48-0.3-0.83-0.19s-0.32 0.62-0.6 1c-0.7 0.87-3.21 0.68-4.17-0.56-0.4-0.51-0.39-1-0.73-1.07s-0.67 0.76-1.7 1.18c-0.33 0.14-0.76 0.24-0.84 0.11s0.65-0.66 0.54-1-1.26-0.09-2.77-0.28-1.79-0.9-2.67-0.69-0.73 0.71-2.06 1.4a5.51 5.51 0 0 1 -1.67 0.58 11.81 11.81 0 0 1 -2 -0.08c-0.5 0-1.39 0-2.33 0.08-0.66 0-1.1 0.09-1.21-0.12s0.42-0.64 0.31-0.94-0.5-0.41-2.15-0.25c-0.38 0.11-0.87 0.31-0.9 0.6s0.52 0.57 0.44 0.81-0.38 0.11-0.92 0.33-0.77 0.56-0.94 0.47 0.07-0.76-0.23-1.07-0.63-0.18-1-0.08l-1 0.48c-0.19 0.67-0.4 0.83-0.56 0.85s-0.42-0.42-1-0.75a1.75 1.75 0 0 0 -1.35 -0.23c-0.36 0.14-0.37 0.38-1.1 0.86-0.32 0.21-0.47 0.26-0.55 0.21s0.12-0.46 0-0.71a0.85 0.85 0 0 0 -1.14 -0.06c-0.3 0.31 0 0.89-0.28 1s-0.32 0-0.46-0.08a1.42 1.42 0 0 0 -0.75 -0.3 2 2 0 0 0 -1.11 0.4c-0.79 0.43-1.66 0.91-2 0.65s0-0.47-0.27-0.83a1.55 1.55 0 0 0 -1.11 -0.51 2.92 2.92 0 0 0 -1.76 0.34 12.1 12.1 0 0 1 -1.75 -0.23 0.9 0.9 0 0 0 -0.62 0c-0.32 0.16-0.26 0.49-0.5 0.71a1.74 1.74 0 0 1 -2.1 -0.48c-0.39-0.48-0.19-0.85-0.56-1.15-0.62-0.49-1.85 0-1.85 0.21s0.74 0.21 0.81 0.6a0.48 0.48 0 0 1 -0.24 0.47c-0.29 0.15-0.52-0.23-1.18-0.39s-0.94 0.11-1.32-0.16a1.54 1.54 0 0 1 -0.46 -0.73c-0.23-0.54-0.12-0.7-0.33-1s-0.55-0.56-0.85-0.48-0.24 1-0.85 1.35c-0.4 0.24-0.81 0.08-1 0.37s0 0.31-0.06 0.52-0.33 0.42-0.92 0.54c-1.33-0.84-1.88-1-2-0.81s0.29 1 0.08 1.17-0.31-0.07-0.46-0.17c-0.51-0.34-0.54-0.7-0.92-0.9a1.14 1.14 0 0 0 -0.77 -0.08h-1.85a2.41 2.41 0 0 1 -1.23 -0.15l-0.63-0.35c-0.43-0.23-0.54-0.29-0.66-0.26s-0.33 0.39-0.46 0.58c-0.39 0.62-1.63 0.43-3.27 0.32-2.8-0.2-3.66 0-3.79 0.39-0.08 0.22 0.1 0.47-0.06 0.65s-0.35 0.09-0.77 0c-1-0.1-1.31 0-1.37-0.17s0.27-0.33 0.45-0.91c0-0.17 0.1-0.35 0-0.41s-0.17-0.07-1.19 0.77c-0.67 0.55-0.79 0.71-1 0.69-0.44 0-0.88-0.65-0.75-1s0.71-0.21 1.13-0.75c0.08-0.11 0.3-0.39 0.21-0.6-0.2-0.48-1.91-0.6-2.6 0.19-0.3 0.34-0.4 0.83-0.62 0.81s-0.18-0.22-0.33-0.35c-0.45-0.41-1.53 0.09-1.75 0.19a24.55 24.55 0 0 1 -4.06 0.21c-4.67 0.1-5.2-0.23-6.83 0.19a3.67 3.67 0 0 1 -1.23 0.17c-1.52-0.09-1.83-1.2-2.92-1.15s-1.07 0.95-2.48 1.15c-0.69 0.1-1.33 0-1.35-0.19s0.62-0.22 0.9-0.77c0.15-0.29 0-0.42 0.19-0.94a2.72 2.72 0 0 1 0.35 -0.79c0.47-0.66 1.11-0.56 1.27-1 0.09-0.23 0-0.63-0.69-1.33a1 1 0 0 0 1.27 0 0.87 0.87 0 0 0 0.23 -0.59 0.68 0.68 0 0 0 1 0 0.66 0.66 0 0 0 0 -0.75c0.59 0.3 1.11 0.34 1.27 0.13s-0.24-0.89-0.29-1a2.32 2.32 0 0 0 -1.31 -0.85 2.22 2.22 0 0 1 0.33 -0.67c0.2-0.27 0.65-0.75 0.9-0.65s0.08 0.46 0.29 1.23a4.6 4.6 0 0 0 0.23 0.65c0.14 0.1 0.3 0.18 0.4 0.13s0-0.48 0.1-1c0.07-0.32 0.29-0.8 0.61-0.9s1.05 0.32 1.45 1.17a1 1 0 0 0 0.79 0.1 0.87 0.87 0 0 0 0.58 -0.67c0.08-0.71-1.21-1.27-1.1-1.5s0.38-0.12 1.48 0.19a3 3 0 0 0 -0.44 -0.9c-0.27-0.38-0.44-0.42-0.58-0.67-0.4-0.68 0-1.8 0.33-1.81s0.24 0.82 0.94 1.17c0.34 0.17 0.55 0.08 0.92 0.35s0.38 0.43 0.52 0.4 0.27-0.34 0.25-0.6a1.38 1.38 0 0 0 -0.62 -0.9c-0.47-0.35-1-1.18-1.38-3.18a2.52 2.52 0 0 1 -0.06 -0.3c0 0.11 0 0.2 0.06 0.3a2 2 0 0 0 0.55 1 2 2 0 0 0 0.83 0.48 1.78 1.78 0 0 0 0 -1.75 0.93 0.93 0 0 1 0.5 0.1c0.53 0.29 0.46 1 0.88 1.15 0.23 0.06 0.31-0.15 0.58-0.08s0.29 0.2 0.65 0.65 0.41 0.51 0.45 0.55c0.67 0.59 1.82-0.1 2.18 0.39 0.17 0.23 0 0.49 0.21 0.75a0.93 0.93 0 0 0 0.71 0.25h0.38c0.04 0 0-0.29-0.64-1.1-0.36-0.49-0.41-0.54-0.45-0.69a1.88 1.88 0 0 1 0.23 -1.1 2.76 2.76 0 0 0 -0.17 -1.92 2.83 2.83 0 0 1 0.6 0.75 3.34 3.34 0 0 0 0.5 0.85 1.83 1.83 0 0 0 0.35 0.29 0.44 0.44 0 0 0 0.31 -0.12c0.15-0.16 0.06-0.39 0.1-0.9v-0.33l0.64 0.06a1 1 0 0 0 0.26 -0.21 0.91 0.91 0 0 0 0.2 -1c-0.21-0.3-0.74 0-1.29-0.17s-1-0.54-1.44-2a1.35 1.35 0 0 1 0.31 -1.6 1.13 1.13 0 0 1 0.77 -0.19 0.88 0.88 0 0 0 0.31 0.71 0.77 0.77 0 0 0 0.4 0.15 0.92 0.92 0 0 0 0.4 -0.44 1.49 1.49 0 0 0 -0.75 -1.62 0.65 0.65 0 0 1 -0.06 -0.58c0.31-0.63 2.35-0.4 3.83 0.38a3.31 3.31 0 0 1 1.38 1.13 3.45 3.45 0 0 1 0.43 2.15c-0.26 5.27 0.19 4.27-0.16 6.5-0.27 1.7-0.57 2.51 0 3.17a1.66 1.66 0 0 0 1.79 0.58c1-0.51 0.33-2.87 0.19-8.25-0.1-3.61 0.11-5.71 1.1-6.09 0.58-0.22 1 0.31 1.77 0s0.79-0.92 1.85-2.1c0.7-0.79 0.77-0.6 1.5-1.39s1.83-2 1.58-2.84-1.74-1-1.69-1.54 1.13-0.22 2-1.12c0.58-0.59 0.77-1.33 1.29-1.33a0.67 0.67 0 0 1 0.38 0.13c0.43 0.32 0.1 1 0.4 1.23s0.77-0.36 1.69-0.62a3.65 3.65 0 0 1 1.46 -0.1h0.46c0.02 0-0.41-0.28-0.73-0.69a1.89 1.89 0 0 1 -0.37 -1 1.89 1.89 0 0 1 1.27 0.17 1.8 1.8 0 0 1 0.58 0.5 1.42 1.42 0 0 1 0 -0.71 1.45 1.45 0 0 1 0.56 -0.77 0.94 0.94 0 0 0 1.06 1.15c0.23-0.08 0.51-0.22 0.54-0.44s-0.12-0.24-0.27-0.54-0.31-0.79-0.12-1 0.34 0 0.58-0.06 0.51-0.34 0.67-1.27a1.92 1.92 0 0 0 2.5 1.13q0.34 1.85 0.69 1.85 0.14 0 0.29-0.31a2.26 2.26 0 0 1 1.67 -0.21 3.85 3.85 0 0 1 1 0.6c0.14 0.11 0.26 0.22 0.33 0.29 0.31-0.32 0.33-0.49 0.29-0.58s-0.37-0.09-0.62-0.31a0.83 0.83 0 0 1 -0.27 -0.73 1 1 0 0 1 1 -0.69 1.6 1.6 0 0 1 0.85 0.44c0.35 0.37 0.3 0.74 0.58 1.23 0.06 0.11 0.57 1 1 1s0.45-1.63 1-1.74c0.32-0.06 0.49 0.37 1.19 0.66a2.79 2.79 0 0 0 1.17 0.19c0 0.19 0.09 0.45 0.23 0.48s0.5-0.74 0.77-0.71 0.29 0.21 0.42 1.11a1.72 1.72 0 0 0 1.21 0 1.64 1.64 0 0 0 0.6 -0.42 1 1 0 0 0 0.23 0.81c0.33 0.32 0.77 0 1.25 0.35s0.28 0.67 0.72 1 1.4 0.27 1.45 0.08-0.81-0.37-1-1a0.73 0.73 0 0 1 0.15 -0.71c0.24-0.19 0.55 0.13 0.92 0s0.45-0.87 0.67-0.87 0.48 1 0.56 1.38c0.32 1.47 0.36 2.35 0.49 3.13a11.61 11.61 0 0 0 0.85 2.66c0.85 2.27 0.56 5 0 10.25-0.39 3.42-0.83 5.64 0.16 6.22a2.69 2.69 0 0 0 1.92 0.13 2.17 2.17 0 0 0 0.94 -0.52c0.79-0.83 0.28-2.53 0.13-3.07s-0.25-3.67-0.48-10.08c-0.14-3.89 0-5.9 1.18-6.55a2.75 2.75 0 0 1 1 -0.27 5.78 5.78 0 0 1 3.67 1c1.47 0.78 2.75 1.46 3 2.49a6.58 6.58 0 0 1 0.08 2v0.2c-0.22 1.61-0.05 4.85-0.2 7.63-0.11 2.06-0.37 3.28 0.33 3.81a1.39 1.39 0 0 0 1 0.27 1.43 1.43 0 0 0 0.85 -0.67c0.91-1.39-0.45-3.87 0-7.2a5.64 5.64 0 0 1 0.94 -2.62 5.28 5.28 0 0 1 2.13 -1.71 1.28 1.28 0 0 1 0.58 0c0.7 0.2 1 1 1.36 1.89a15.2 15.2 0 0 0 2.44 4.21c0.47 0.53 0.45 0.4 0.74 0.77s1 1.42 1.19 4.38a17.72 17.72 0 0 1 -0.27 4.63 14.69 14.69 0 0 0 -0.42 2.65c0 1.07-0.09 2.27 0.62 2.76a1.39 1.39 0 0 0 1.27 0.15c1.4-0.64 1.06-4.75 0.62-9.73-0.26-2.88-0.52-4.37 0.48-5.38 0.76-0.77 2.21-1.2 2.9-0.71 0.48 0.34 0.32 0.94 1 1.4 0.51 0.34 1 0.25 1.13 0.6s-0.25 0.77-0.1 0.92 0.75-0.05 1-0.48 0.14-0.74 0.35-0.85 0.36-0.06 0.88 0.35a0.79 0.79 0 0 1 0.06 0.67c-0.21 0.42-1 0.39-1 0.5s0.59 0 1.11 0.33a1.43 1.43 0 0 1 0.73 1.35 1 1 0 0 1 -0.23 0.44c-0.46 0.55-1.09 0.35-1.29 0.73a0.75 0.75 0 0 0 0.27 0.9c0.48 0.25 1.21-0.61 1.52-0.37s0 0.75 0.19 0.88 0.49-0.38 1.08-0.42c0.41 0 0.43 0.2 0.9 0.19s0.87-0.35 1.06-0.19a0.42 0.42 0 0 1 0.08 0.39c-0.07 0.29-0.37 0.35-0.77 0.65s-0.79 0.59-0.75 1a0.66 0.66 0 0 0 0.52 0.58c0.32 0 0.47-0.39 1-0.92s1.44-1.18 1.69-1-0.41 1.27-0.08 1.58 0.93-0.08 1.56-0.46h0.29c0.02 0-0.59 0.32-0.9 0.88s0 0.88-0.31 1.33-0.45 0.19-0.81 0.56a2.69 2.69 0 0 0 -0.6 1.31c-0.16 0.63-0.08 0.87-0.31 1.06s-0.55 0-0.73 0.25 0 1 0.25 1.06 0.5-0.78 1.23-0.94c0.36-0.08 0.45 0.1 1.1 0.21 1 0.17 1.73-0.12 1.79 0s-1.33 0.8-1.24 1.12 0.7 0 1 0.41-0.15 0.85 0.1 1.1a0.68 0.68 0 0 0 0.65 0.06c0.42-0.14 0.52-0.56 1-1.27s0.61-1 0.92-1.17c0.88-0.49 2.38 0.14 2.42 0.69s-0.81 0.69-0.73 0.94 2.26-0.28 2.69 0.4-1.15 2.22-0.77 2.62c0.16 0.17 0.58 0.06 0.79 0 0.5-0.23 0.51-0.67 0.81-0.79 0.37-0.2 1.95 1.24 1.71 1.78z"/><path d="m157.09 143.5c0-0.07 0.06-0.17 0.33-0.29 0.61-0.26 1 0 1.82 0s1.22-0.32 1.79-0.05a1.53 1.53 0 0 1 0.47 0.34 3.82 3.82 0 0 1 -2 0.84 3.61 3.61 0 0 1 -1.86 -0.35c-0.19-0.08-0.57-0.28-0.55-0.49z"/><path d="m162.69 142.88a0.79 0.79 0 0 1 0.26 -0.51c0.58-0.49 2 0.17 2.06 0.73a0.56 0.56 0 0 1 -0.25 0.44 1.39 1.39 0 0 1 -1.12 0.22 1.42 1.42 0 0 1 -0.95 -0.88z"/><path d="m168.75 142.2a0.79 0.79 0 0 1 0.11 -0.46c0.16-0.25 0.4-0.25 0.83-0.46 0.61-0.3 0.64-0.56 0.92-0.52a0.71 0.71 0 0 1 0.58 0.74 0.51 0.51 0 0 1 -0.31 0.28 6.52 6.52 0 0 1 -2.13 0.42z"/><path d="m173.59 144c0-0.29 0.62-0.54 1.09-0.39a1.08 1.08 0 0 1 0.63 0.61 1.23 1.23 0 0 1 -1.09 0.38c-0.31-0.12-0.66-0.39-0.63-0.6z"/><path d="m176.09 146.13c-1-0.23-1.1-0.26-1.1-0.3 0-0.23 1.74-0.74 3.51-0.35a6 6 0 0 1 1.44 0.52 3.91 3.91 0 0 1 -1.84 0.5 13.21 13.21 0 0 1 -2.01 -0.37z"/><path d="m185.81 144.41c-0.24-0.17-0.08-0.52-0.31-0.94-0.33-0.57-1.06-0.63-1-0.75a8.85 8.85 0 0 0 2.07 0c1-0.27 1.18-0.85 2-0.79 0.4 0 0.4 0.18 1 0.4 0.93 0.33 2.25 0.45 2.53 0s-0.25-0.78-0.06-1 1.34 0.78 2.31 0.47c0.73-0.24 1-1.13 1.28-1s0.22 0.47 0.22 0.76a1.72 1.72 0 0 1 -0.88 1c-0.38 0.16-0.55 0-1.31 0.11a1.89 1.89 0 0 0 -1.31 0.5c-0.25 0.31-0.08 0.53-0.31 0.75s-1.09 0.15-1.6 0c-0.67-0.18-0.63-0.31-1.18-0.46-0.2-0.05-1.53-0.41-2.16 0.28a1.22 1.22 0 0 0 -0.28 0.56c-0.6 0.23-0.82 0.2-1.01 0.11z"/><path d="m202.75 142c0.94 0.71 1.89 0.94 2.38 0.56a0.88 0.88 0 0 0 0.34 -0.72 1 1 0 0 0 -0.69 -0.78 2 2 0 0 0 -2.03 0.94z"/><path d="m219.72 141.59c-0.09-0.37-1.19-0.09-2.94-0.56-1-0.26-1.3-0.54-2-0.41-0.47 0.09-0.53 0.26-1.3 0.71-1.52 0.87-2.39 0.84-2.51 1.38 0 0.18 0 0.48 0.44 0.94 1 0.39 1.38 0.33 1.53 0.16s-0.06-0.55 0.16-0.91a1.13 1.13 0 0 1 1.31 -0.37c0.32 0.15 0.32 0.44 0.59 0.5s0.53-0.23 0.84-0.44c1-0.66 2.07 0.37 3.24-0.31 0.28-0.13 0.7-0.44 0.64-0.69z"/></g><path d="m175 67c-59.65 0-108 48.13-108 107.5s48.35 107.5 108 107.5 108-48.13 108-107.5-48.35-107.5-108-107.5zm0 181a73.5 73.5 0 1 1 73.84 -73.5 73.67 73.67 0 0 1 -73.84 73.5z" fill="#768696"/><path d="m150 105a82.92 82.92 0 0 0 -10.05 4.49q-1.62 0.88-3.15 1.82a71 71 0 0 0 -7.42 5.25 79.28 79.28 0 0 0 -23.62 32.52l-6.76-0.08 6-6 3-6-1-3 7-5-4-5 1-3 3 2 1-3h3l-1-3 1-2a10 10 0 0 0 4.58 0.58 9.81 9.81 0 0 0 2.42 -0.58 3.36 3.36 0 0 0 0.75 -2.08 3.7 3.7 0 0 0 -1.75 -2.92l4-1 19-18 3 3 1-2 0.83 1.25 1.17 1.75a4.4 4.4 0 0 0 1 -3 6.75 6.75 0 0 0 4.67 1.33 5.73 5.73 0 0 0 1.33 -0.33l1-2 10 4 2.92-8.5a2.5 2.5 0 0 1 2.25 1.58 2.47 2.47 0 0 1 -0.17 1.92l5 4a5.39 5.39 0 0 0 -3 -7 3.21 3.21 0 0 1 4 -0.75q0.14 1.05 0.33 2.17 0.16 0.9 0.33 1.75l1.34-0.17 5 7 2-5 3 4 14 3c8.28 2.32 10.31 4.1 10.25 5.38 0 0.5-0.36 1-1.19 1.56 0.44 0.09 3.46 0.73 4.38 3.13a3.93 3.93 0 0 1 0.25 1.19c4.44-0.68 7.64 0.43 8.06 2.06 0.06 0.22 0.28 1.29-1.37 3 1.93-1.55 3.88-2.32 4.88-1.62 0.31 0.21 0.67 0.68 0.81 3.5a34.25 34.25 0 0 1 -0.12 5.06 3.1 3.1 0 0 1 2.6 0.54c0.55 0.54 0.59 1.29 0.88 1.29s0.5-0.37 0.88-2.08l0.5 1.46c0.31 0.93 0.5 1.5 0.54 1.63a9.78 9.78 0 0 0 2.75 3.5c0.81 0.69 2.28 3 5.17 7.6 3.07 4.89 5.8 9.45 7.88 13l-10.81 0.06c-2.52-6.75-10.4-25.08-30-37.19a74.41 74.41 0 0 0 -33.81 -10.62s-16.72-1.45-30.53 3.55z" fill="url(#f)"/><path d="m243.08 129.75a11.55 11.55 0 0 1 -3.58 1.19c-1.3 0.2-2.16 0.08-2.69 0.69a2.62 2.62 0 0 0 -0.23 2.29l4.35 7.65a15 15 0 0 0 5.13 -7.25z" fill="#6c7e8c"/><path d="m136.81 111.5a14.38 14.38 0 0 1 3.19 -6.42c3.19-3.6 6.66-3.41 10.25-7a16.41 16.41 0 0 0 3.75 -6.08l6 1 1-2a30 30 0 0 1 10 4c0.18-1 0.43-2 0.75-3.08a31.86 31.86 0 0 1 2.17 -5.42 6 6 0 0 1 2.25 1.58c0.83 1 0.73 1.53 1.52 2.35 1 1.1 2.82 1.77 3.38 1.25s0-1.86-0.44-2.56a5 5 0 0 0 -2.63 -2.12 3.21 3.21 0 0 1 4 -0.75l0.67 3.92 1.33-0.17 5 7 2-5 3 4 14 3-4 8a72.87 72.87 0 0 0 -67.19 4.5z" fill="url(#e)"/><path d="m231.94 112.56a1.51 1.51 0 0 0 0.56 -1.75 1.44 1.44 0 0 0 -0.87 -0.75l1-0.94a7.81 7.81 0 0 0 -1.87 -1.44c-0.87-0.47-1.39-0.53-2.44-1.06a11.05 11.05 0 0 1 -1.69 -1.06 2.72 2.72 0 0 0 3.06 -1.37 2.14 2.14 0 0 0 1 2.56c3.47 1 5.43 2.83 5.19 4-0.21 0.97-1.96 1.62-3.94 1.81z" fill="#6c7b8e"/><path d="m169.75 87a10.87 10.87 0 0 1 -0.33 4.25l1.58-0.75a5.38 5.38 0 0 0 -1.25 -3.5z" fill="#5d6b76"/><path d="m247.25 136.19a16.8 16.8 0 0 1 -6.31 5.38 36.6 36.6 0 0 1 3.38 7.69l10.81-0.06z" fill="url(#d)"/><path d="m106.17 201a10.83 10.83 0 0 0 -1.6 3.24c-0.66 2.21 0 2.86-0.48 5.67s-1.34 3.5-1 5.16a6.18 6.18 0 0 0 2.38 3.34 75.29 75.29 0 0 1 9.75 10.42c0.93-2 2.15-3.31 2.78-3.11s0.92 2 0.39 4.36a1.28 1.28 0 0 0 0.67 0.56c1 0.31 1.88-1.29 3.5-1.81a4.53 4.53 0 0 1 3.25 0.33 4.91 4.91 0 0 1 1.33 2.17c0.62 2.21-0.91 3.66-0.83 6.25a7.48 7.48 0 0 0 1.33 3.92 2.37 2.37 0 0 0 0.25 1.42 2.34 2.34 0 0 0 0.75 0.83 6.15 6.15 0 0 0 0.25 1.25 7.27 7.27 0 0 0 3.25 3.92 7.32 7.32 0 0 1 -2 -5.42 6.22 6.22 0 0 1 0.58 -2.08 11.45 11.45 0 0 1 3.92 4.17 10.89 10.89 0 0 1 0.83 2 3 3 0 0 1 -2.33 2.08 2.63 2.63 0 0 0 2.08 1c1.1-0.12 1.56-1.29 3.5-3.12a20.3 20.3 0 0 1 1.67 -1.42l8.08 7.67a4.76 4.76 0 0 1 2.58 -0.5c1 0.11 1.07 0.48 2.17 0.75a7.45 7.45 0 0 0 4.17 -0.33 11.72 11.72 0 0 1 2.08 -0.83 7 7 0 0 1 1.83 -0.17 2.19 2.19 0 0 0 0.5 1.33c0.85 1 2.77 1.06 4.67 0l-0.58 3.17a49.89 49.89 0 0 0 11.83 -0.08c3.82-0.5 6.33-1.08 6.33-1.08 3.7-0.86 5-1.58 7.33-1.5a12 12 0 0 1 5.58 1.67 0.78 0.78 0 0 0 0.67 0c0.74-0.49-0.71-2.95-0.08-3.75s2.71-0.36 8.75 2.75c0.11-0.23 0.29-0.49 0.5-0.5 0.51 0 0.59 1.4 1.58 2.42s2.65 1.31 2.83 1-0.84-0.9-2.08-2.5c-0.85-1.1-2.64-3.42-1.92-4.75 0.48-0.88 1.85-1 2.08-1 2-0.12 2.94 1.71 4.58 1.42a2.8 2.8 0 0 0 1.58 -1l0.92-3.92a4.31 4.31 0 0 0 3.5 0.25c1.32-0.61 1.84-2.08 2.58-4.17a17.51 17.51 0 0 0 0.75 -2.83 16.24 16.24 0 0 1 5.83 -4.58 3.14 3.14 0 0 1 1.67 1.58c0.33 0.85 0 1.59 0.25 1.67s1.28-1.27 2.08-2.92a21.27 21.27 0 0 0 1.42 -3.83c0.87-3.07 2.86-4.85 4.38-6.62 1.92-2.25 4.33-6 6.38-12.29l3.5-1.17c-1.45-0.42-2.69-1.3-2.83-2.33-0.2-1.45 1.68-3.52 4.92-3.75a2.33 2.33 0 0 0 1.75 -1.17 2.27 2.27 0 0 0 0.08 -1.83 2.84 2.84 0 0 1 1.67 -0.25c1.22 0.22 1.58 1.3 2.37 1.33 0.5 0 1.27-0.36 2.29-2.5h-15.13a73.74 73.74 0 0 1 -17 25.83c-19.2 18.79-43 20.89-50.17 21.25-6.81 0-28-0.82-47.42-16.17a75.76 75.76 0 0 1 -23.07 -30.9z" fill="url(#g)"/><path d="m216 252.38a1.88 1.88 0 0 1 0.75 2.5 1.69 1.69 0 0 1 -1.37 0.5z" fill="url(#c)"/><path d="m218.47 249.5c0.61-0.34 0.89-0.2 1-0.16 0.47 0.26 0.54 1.33 0 2.66z" fill="url(#b)"/><path d="m225.38 245.28 1.63-1.34 1.47-1.19c1.72-1.43 1.78-1.77 2.72-2.41a8.23 8.23 0 0 1 2.38 -1.09c0.69 0.34 1.12 0.89 1.06 1.38-0.08 0.69-1.1 1-1.5 1.13-1.1 0.34-1.59-0.06-2.56 0.16a3.73 3.73 0 0 0 -2 1.35 1 1 0 0 0 -0.13 0.15c-0.47 0.7 0.24 1.61 0 2s-0.89 0.46-3.07-0.14z" fill="url(#a)"/><rect x="44" y="149" width="262" height="52" fill="#fff"/><rect x="70" y="156" width="21" height="19"/><rect x="52" y="175" width="18" height="19"/><rect x="91" y="175" width="21" height="19"/><rect x="112" y="156" width="21" height="19"/><rect x="133" y="175" width="21" height="19"/><rect x="154" y="156" width="21" height="19"/><rect x="175" y="175" width="21" height="19"/><rect x="196" y="156" width="21" height="19"/><rect x="217" y="175" width="21" height="19"/><rect x="238" y="156" width="21" height="19"/><rect x="259" y="175" width="21" height="19"/><rect x="280" y="156" width="18" height="19"/></g></svg>