<?xml version="1.0" encoding="utf-8"?>
<!-- Generator: Adobe Illustrator 16.0.0, SVG Export Plug-In . SVG Version: 6.00 Build 0)  -->
<!DOCTYPE svg PUBLIC "-//W3C//DTD SVG 1.1//EN" "http://www.w3.org/Graphics/SVG/1.1/DTD/svg11.dtd">
<svg version="1.1" id="Layer_2" xmlns="http://www.w3.org/2000/svg" xmlns:xlink="http://www.w3.org/1999/xlink" x="0px" y="0px"
	 width="512px" height="512px" viewBox="0 0 512 512" enable-background="new 0 0 512 512" xml:space="preserve">
<g>
	<rect x="24.057" y="19.181" fill="#FFFFFF" stroke="#000000" stroke-miterlimit="10" width="463.892" height="463.093"/>
	<rect x="42.341" y="37.636" stroke="#000000" stroke-miterlimit="10" width="426.475" height="424.035"/>
	<rect x="61.049" y="56.52" fill="#406181" width="389.91" height="388.414"/>
	<rect x="11.301" y="174.119" stroke="#000000" stroke-miterlimit="10" width="489.404" height="164.376"/>
	<rect x="11.301" y="185.277" fill="#FFFFFF" stroke="#000000" stroke-miterlimit="10" width="489.404" height="142.062"/>
	<polygon stroke="#000000" stroke-miterlimit="10" points="256.003,90.426 256.003,167.251 179.255,167.251 169.476,147.508 
		146.089,136.78 146.515,111.885 68.278,90.856 11.301,82.272 210.295,0.726 211.57,90.426 	"/>
	<polygon fill="#FFFFFF" stroke="#FFFFFF" stroke-miterlimit="10" points="256.083,96.434 256.012,159.526 183.082,159.526 
		177.979,141.929 154.593,132.486 154.593,106.735 83.301,86.615 34.687,79.291 204.477,9.713 204.347,96.004 	"/>
	<polygon stroke="#000000" stroke-miterlimit="10" points="256.089,90.355 256.003,167.18 332.751,167.268 342.555,147.537 
		365.951,136.833 365.553,111.939 443.813,90.999 500.799,82.48 301.898,0.709 300.522,90.407 	"/>
	<polygon fill="#FFFFFF" stroke="#FFFFFF" stroke-miterlimit="10" points="256.083,96.434 256.012,159.526 328.784,159.475 
		333.865,141.872 357.24,132.402 357.213,106.65 428.479,86.445 477.087,79.066 307.214,9.688 307.444,95.979 	"/>
	<polygon stroke="#000000" stroke-miterlimit="10" points="295.76,377.982 256.003,512 216.247,375.406 231.554,228.194 
		232.405,100.297 280.025,100.297 281.303,228.625 	"/>
	<polygon fill="#FFFFFF" stroke="#FFFFFF" stroke-miterlimit="10" points="289.807,375.406 256.083,491.717 222.2,374.55 
		237.754,228.198 238.385,106.735 273.744,106.735 274.689,228.605 	"/>
	<ellipse stroke="#000000" stroke-miterlimit="10" cx="256.083" cy="82.272" rx="28.914" ry="29.417"/>
	<ellipse fill="#FFFFFF" stroke="#FFFFFF" stroke-miterlimit="10" cx="256.083" cy="82.272" rx="23.201" ry="23.605"/>
	<path stroke="#000000" stroke-miterlimit="10" d="M383.217,256.305c0,72.769-56.919,131.763-127.132,131.763
		c-70.215,0-127.135-58.994-127.135-131.763c0-72.768,56.919-131.759,127.135-131.759
		C326.298,124.546,383.217,183.538,383.217,256.305z"/>
	<path fill="#FFFFFF" stroke="#000000" stroke-miterlimit="10" d="M373.317,256.305c0,67.104-52.485,121.504-117.232,121.504
		c-64.748,0-117.235-54.4-117.235-121.504c0-67.102,52.488-121.5,117.235-121.5C320.832,134.805,373.317,189.204,373.317,256.305z"
		/>
	<path stroke="#000000" stroke-miterlimit="10" d="M361.659,256.252c0,60.507-47.326,109.554-105.704,109.554
		c-58.381,0-105.707-49.047-105.707-109.554c0-60.501,47.326-109.549,105.707-109.549
		C314.333,146.703,361.659,195.75,361.659,256.252z"/>
	<polygon fill="#FFFFFF" stroke="#FFFFFF" stroke-miterlimit="10" points="279.284,338.495 231.914,338.495 231.914,277.979 
		177.554,277.55 177.554,229.053 231.554,228.194 231.914,174.119 279.284,174.119 279.284,228.625 334.453,229.053 334.453,277.55 
		279.284,277.55 	"/>
</g>
</svg>
