<?xml version="1.0" encoding="utf-8"?>
<!-- Generator: Adobe Illustrator 16.0.0, SVG Export Plug-In . SVG Version: 6.00 Build 0)  -->
<!DOCTYPE svg PUBLIC "-//W3C//DTD SVG 1.1//EN" "http://www.w3.org/Graphics/SVG/1.1/DTD/svg11.dtd">
<svg version="1.1" id="Layer_2" xmlns="http://www.w3.org/2000/svg" xmlns:xlink="http://www.w3.org/1999/xlink" x="0px" y="0px"
	 width="512px" height="512px" viewBox="0 0 512 512" enable-background="new 0 0 512 512" xml:space="preserve">
<g>
	<polygon fill="#FFFFFF" stroke="#000000" stroke-miterlimit="10" points="493.319,332.495 402.455,283.666 103.461,283.824 
		19.857,332.495 19.857,37.576 493.319,37.576 	"/>
	<polygon stroke="#000000" stroke-miterlimit="10" points="473.621,321.91 402.455,283.666 103.461,283.824 38.777,321.91 
		38.777,55.725 473.621,55.725 	"/>
	<polygon fill="#952B43" points="455.865,312.368 402.455,283.666 103.461,283.824 58.139,310.21 58.139,72.224 455.865,72.224 	"/>
	<path fill="#952B43" d="M393.739,349.047c-148.987,104.032-273.474,0.021-273.474,0.021l16.197-16.86
		c0,0,109.564,98.4,240.691-0.021L393.739,349.047z"/>
	<path fill="#952B43" d="M431.939,383.448c-191.33,151.713-351.198,0.033-351.198,0.033l16.087-16.308
		c0,0,145.042,136.391,318.629-0.027L431.939,383.448z"/>
	<path fill="#FFFFFF" stroke="#000000" stroke-miterlimit="10" d="M56.093,407.825c0,0,182.725,179.283,401.412-0.041l19.362,22.311
		c-240.123,184.276-440.761,0.041-440.761,0.041L56.093,407.825z"/>
	<path fill="#952B43" d="M321.409,306.06c-74.879,35.661-137.444,0.006-137.444,0.006v23.115c0,0,62.564,26.966,137.444-0.005
		V306.06z"/>
	<g>
		<path stroke="#000000" stroke-miterlimit="10" d="M436.145,242.177c4.984,4.67,3.711,13.443-2.851,19.595l-82.698,77.573
			c-6.557,6.154-15.915,7.354-20.9,2.686l-34.412-32.235c-4.985-4.67-3.709-13.444,2.851-19.597l82.697-77.573
			c6.559-6.153,15.917-7.354,20.901-2.684L436.145,242.177z"/>
		<path stroke="#000000" stroke-miterlimit="10" d="M182.17,6.18c-4.984-4.669-14.342-3.469-20.901,2.684L78.572,86.436
			c-6.559,6.153-7.836,14.927-2.851,19.598l34.412,32.235c4.986,4.67,14.344,3.468,20.902-2.685l82.698-77.573
			c6.561-6.152,7.834-14.926,2.85-19.596L182.17,6.18z"/>
		<path stroke="#000000" stroke-miterlimit="10" d="M75.638,242.332c-4.973,4.681-3.676,13.45,2.898,19.588l82.888,77.392
			c6.574,6.141,15.936,7.32,20.91,2.641l34.333-32.311c4.973-4.682,3.676-13.452-2.898-19.588l-82.891-77.394
			c-6.574-6.139-15.936-7.319-20.908-2.638L75.638,242.332z"/>
		<path stroke="#000000" stroke-miterlimit="10" d="M295.199,38.57c-4.973,4.68-3.676,13.45,2.898,19.588l82.888,77.391
			c6.575,6.14,15.937,7.321,20.911,2.641l34.331-32.311c4.974-4.681,3.676-13.451-2.897-19.588L350.439,8.897
			c-6.573-6.139-15.936-7.318-20.908-2.638L295.199,38.57z"/>
		<polygon stroke="#000000" stroke-miterlimit="10" points="410.596,97.798 342.394,21.902 176.064,21.902 101.261,95.323 
			101.261,242.576 172.544,312.368 337.553,312.368 410.596,245.051 		"/>
	</g>
	<path fill="#FFFFFF" stroke="#FFFFFF" stroke-miterlimit="10" d="M295.718,291.904c0,0-38.961,17.421-77.713,0.044l-89.863-84.149
		c0,0-18.625-36.502-0.131-72.846l89.996-81.789c0,0,38.959-17.423,77.712-0.05l90.18,81.838c0,0,18.592,36.519,0.061,72.848"/>
	<g>
		<path fill="#FFFFFF" stroke="#FFFFFF" stroke-miterlimit="10" d="M218.006,53.164c4.984,4.669,4.578,12.628-0.911,17.776
			l-69.2,64.912c-5.488,5.148-13.977,5.536-18.962,0.866l-34.412-32.235c-4.985-4.67-4.577-12.629,0.912-17.778l69.197-64.91
			c5.489-5.147,13.979-5.536,18.963-0.865L218.006,53.164z"/>
		<path fill="#FFFFFF" stroke="#FFFFFF" stroke-miterlimit="10" d="M419.17,239.594c4.984,4.67,4.578,12.629-0.91,17.777
			l-69.199,64.913c-5.487,5.147-13.978,5.535-18.962,0.865l-34.413-32.235c-4.984-4.67-4.578-12.629,0.912-17.777l69.197-64.913
			c5.49-5.147,13.979-5.535,18.963-0.866L419.17,239.594z"/>
		<path fill="#FFFFFF" stroke="#FFFFFF" stroke-miterlimit="10" d="M183.525,323.18c-4.989,4.664-13.48,4.271-18.961-0.886
			L95.44,257.311c-5.481-5.153-5.879-13.113-0.887-17.776l34.448-32.2c4.992-4.665,13.481-4.269,18.964,0.887l69.121,64.981
			c5.48,5.155,5.879,13.112,0.889,17.778L183.525,323.18z"/>
		<path fill="#FFFFFF" stroke="#FFFFFF" stroke-miterlimit="10" d="M384.691,136.747c-4.99,4.663-13.482,4.27-18.964-0.886
			l-69.12-64.983c-5.483-5.154-5.882-13.113-0.89-17.777l34.449-32.2c4.991-4.664,13.482-4.269,18.963,0.888l69.122,64.981
			c5.48,5.155,5.878,13.112,0.888,17.777L384.691,136.747z"/>
		<ellipse stroke="#000000" stroke-miterlimit="10" cx="174.745" cy="96.147" rx="40.939" ry="38.377"/>
		<ellipse stroke="#000000" stroke-miterlimit="10" cx="174.744" cy="250.413" rx="40.939" ry="38.377"/>
		<ellipse stroke="#000000" stroke-miterlimit="10" cx="338.947" cy="250.414" rx="40.939" ry="38.376"/>
		<ellipse stroke="#000000" stroke-miterlimit="10" cx="338.947" cy="96.147" rx="40.939" ry="38.377"/>
		<polygon fill="#FFFFFF" stroke="#FFFFFF" stroke-miterlimit="10" points="327.054,251.592 174.744,108.93 186.251,98.134 
			338.561,240.798 		"/>
		<polygon fill="#FFFFFF" stroke="#FFFFFF" stroke-miterlimit="10" points="338.759,108.916 186.477,251.604 174.966,240.809 
			327.25,98.122 		"/>
		<ellipse fill="#FFFFFF" stroke="#FFFFFF" stroke-miterlimit="10" cx="174.745" cy="96.147" rx="18.481" ry="17.325"/>
		<ellipse fill="#FFFFFF" stroke="#FFFFFF" stroke-miterlimit="10" cx="338.947" cy="96.147" rx="18.481" ry="17.325"/>
		<ellipse fill="#FFFFFF" stroke="#FFFFFF" stroke-miterlimit="10" cx="174.745" cy="250.413" rx="18.481" ry="17.323"/>
		<ellipse fill="#FFFFFF" stroke="#FFFFFF" stroke-miterlimit="10" cx="338.947" cy="250.414" rx="18.481" ry="17.324"/>
		<path stroke="#000000" stroke-miterlimit="10" d="M292.198,192.314c0,6.506-5.627,11.78-12.567,11.78h-45.592
			c-6.94,0-12.567-5.274-12.567-11.78v-40.552c0-6.506,5.626-11.781,12.567-11.781h45.592c6.94,0,12.567,5.275,12.567,11.781
			V192.314z"/>
	</g>
</g>
</svg>
