<?xml version="1.0" encoding="utf-8"?>
<!-- Generator: Adobe Illustrator 16.0.0, SVG Export Plug-In . SVG Version: 6.00 Build 0)  -->
<!DOCTYPE svg PUBLIC "-//W3C//DTD SVG 1.1//EN" "http://www.w3.org/Graphics/SVG/1.1/DTD/svg11.dtd">
<svg version="1.1" id="Layer_2" xmlns="http://www.w3.org/2000/svg" xmlns:xlink="http://www.w3.org/1999/xlink" x="0px" y="0px"
	 width="512px" height="512px" viewBox="0 0 512 512" enable-background="new 0 0 512 512" xml:space="preserve">
<g>
	<rect x="25.836" y="27.893" fill="#FFFFFF" stroke="#000000" stroke-miterlimit="10" width="454.402" height="456.216"/>
	<rect x="45.013" y="45.455" stroke="#000000" stroke-miterlimit="10" width="416.883" height="419.836"/>
	<rect x="62.105" y="63.854" fill="#29799D" width="382.699" height="385.127"/>
	<path stroke="#000000" stroke-miterlimit="10" d="M395.611,388.115c0,6.594-5.276,11.941-11.785,11.941H122.666
		c-6.509,0-11.786-5.348-11.786-11.941v-270.92c0-6.596,5.277-11.943,11.786-11.943h261.161c6.509,0,11.785,5.347,11.785,11.943
		V388.115z"/>
	<path fill="#28789F" d="M374.351,363.861c0,6.594-5.331,11.943-11.907,11.943H144.047c-6.576,0-11.906-5.35-11.906-11.943v-223.25
		c0-6.595,5.331-11.942,11.906-11.942h218.396c6.576,0,11.907,5.347,11.907,11.942V363.861z"/>
	<polygon stroke="#000000" stroke-miterlimit="10" points="510.148,309.733 2.149,309.733 2.149,249.728 25.836,275.158 
		25.836,239.111 2.149,213.974 2.149,189.721 510.148,189.721 510.146,215.229 480.238,241.197 480.238,278.659 510.146,252.863 	
		"/>
	<polygon fill="#FFFFFF" stroke="#000000" stroke-miterlimit="10" points="505.668,218.575 470.65,249.728 442.302,219.411 
		408.534,249.728 378.101,219.411 346.002,249.728 317.237,219.411 283.47,249.728 254.705,219.411 222.188,249.728 
		191.337,219.411 160.906,249.728 130.474,219.411 98.791,249.728 68.775,219.829 35.841,249.728 7.91,219.829 7.91,195.157 
		505.668,195.157 	"/>
	<polygon fill="#FFFFFF" stroke="#000000" stroke-miterlimit="10" points="505.668,256.418 471.483,286.317 441.468,256.418 
		408.951,286.317 378.519,256.418 346.836,285.898 319.738,256.418 283.887,285.898 254.705,256.418 223.021,286.317 
		191.756,256.418 160.489,286.735 129.64,256.418 98.374,285.48 67.94,256.418 35.841,285.898 7.91,256.418 7.91,303.879 
		505.668,303.879 	"/>
	<ellipse stroke="#000000" stroke-miterlimit="10" cx="36.467" cy="216.274" rx="8.546" ry="8.572"/>
	<ellipse stroke="#000000" stroke-miterlimit="10" cx="66.691" cy="283.807" rx="8.546" ry="8.574"/>
	<ellipse stroke="#000000" stroke-miterlimit="10" cx="470.442" cy="216.273" rx="8.545" ry="8.573"/>
	<ellipse stroke="#000000" stroke-miterlimit="10" cx="441.468" cy="283.806" rx="8.546" ry="8.573"/>
</g>
</svg>
