<?xml version="1.0" encoding="utf-8"?>
<!-- Generator: Adobe Illustrator 16.0.0, SVG Export Plug-In . SVG Version: 6.00 Build 0)  -->
<!DOCTYPE svg PUBLIC "-//W3C//DTD SVG 1.1//EN" "http://www.w3.org/Graphics/SVG/1.1/DTD/svg11.dtd">
<svg version="1.1" id="Layer_2" xmlns="http://www.w3.org/2000/svg" xmlns:xlink="http://www.w3.org/1999/xlink" x="0px" y="0px"
	 width="512px" height="512px" viewBox="0 0 512 512" enable-background="new 0 0 512 512" xml:space="preserve">
<polygon fill="#FFFFFF" stroke="#000000" stroke-miterlimit="10" points="1.815,0 510.935,2.399 510.935,17.275 414.005,50.864 
	389.053,73.897 360.742,101.728 354.024,149.233 373.698,220.73 405.848,340.212 434.159,463.535 510.935,490.886 510.935,512 
	1.815,512 1.815,4.319 1.815,2.399 "/>
<polygon points="22.449,23.033 494.318,23.033 414.005,50.864 360.742,101.728 354.024,149.233 434.159,463.535 440.397,491.365 
	22.449,491.365 "/>
<polygon fill="#A22229" points="36.844,37.908 451.394,37.908 414.005,50.864 373.219,119.002 424.083,119.002 379.456,194.339 
	410.166,320.539 420.724,340.212 476.865,428.985 435.118,428.985 452.493,470.065 434.159,463.535 435.623,470.065 36.844,470.065 
	"/>
<g>
	<polygon fill="#FFFFFF" points="508.551,17.413 7.395,193.997 504.08,5.206 	"/>
</g>
<g>
	<line fill="#FFFFFF" x1="506.315" y1="498" x2="8.75" y2="308"/>
	<polygon fill="#FFFFFF" points="503.64,505.007 8.75,308 508.991,490.993 	"/>
</g>
<g>
	<path fill="#FFFFFF" d="M44.371,316.323c0,0,1.563,0.364,4.495,1.048c2.93,0.688,7.228,1.699,12.697,2.985
		c10.921,2.64,26.553,6.3,45.258,10.891c9.352,2.302,19.482,4.795,30.197,7.432c10.706,2.673,21.996,5.491,33.675,8.406
		c11.67,2.952,23.729,6.002,35.982,9.101c12.245,3.135,24.683,6.318,37.122,9.502c12.428,3.228,24.854,6.456,37.088,9.634
		c12.225,3.212,24.255,6.373,35.897,9.433c11.632,3.096,22.877,6.088,33.541,8.926c10.653,2.874,20.727,5.591,30.024,8.1
		c9.299,2.506,17.808,4.861,25.349,6.953c7.542,2.087,14.117,3.906,19.532,5.404c5.409,1.52,9.659,2.714,12.557,3.527
		c2.896,0.82,4.441,1.258,4.441,1.258s-1.563-0.364-4.495-1.047c-2.931-0.688-7.228-1.699-12.697-2.984
		c-5.464-1.308-12.1-2.896-19.71-4.716c-7.611-1.816-16.198-3.869-25.55-6.172c-9.352-2.302-19.482-4.795-30.197-7.432
		c-10.706-2.673-21.996-5.491-33.675-8.407c-11.67-2.952-23.729-6.003-35.981-9.103c-12.245-3.135-24.684-6.319-37.122-9.504
		c-12.427-3.229-24.854-6.457-37.087-9.636c-12.224-3.213-24.254-6.375-35.896-9.435c-11.632-3.097-22.877-6.09-33.541-8.928
		c-10.654-2.874-20.728-5.591-30.025-8.099c-18.593-5.027-34.045-9.383-44.881-12.354c-5.409-1.519-9.66-2.713-12.557-3.526
		C45.916,316.761,44.371,316.323,44.371,316.323z"/>
</g>
<g>
	<path fill="#FFFFFF" d="M41.163,188.581c0,0,5.128-1.142,14.102-3.139c8.981-1.964,21.811-4.769,37.207-8.135
		c15.41-3.298,33.371-7.232,52.646-11.292c19.275-4.063,39.835-8.397,60.395-12.732c20.579-4.246,41.157-8.492,60.448-12.473
		c19.291-3.989,37.327-7.557,52.771-10.694c15.458-3.068,28.34-5.625,37.357-7.415c9.024-1.755,14.181-2.759,14.181-2.759
		s-5.128,1.142-14.102,3.14c-8.98,1.964-21.811,4.77-37.206,8.136c-15.41,3.298-33.369,7.237-52.646,11.291
		c-19.275,4.063-39.835,8.396-60.395,12.73c-20.579,4.245-41.157,8.491-60.449,12.471c-19.291,3.984-37.327,7.557-52.771,10.694
		c-15.458,3.069-28.339,5.626-37.356,7.416C46.32,187.578,41.163,188.581,41.163,188.581z"/>
</g>
<g>
	<path fill="#FFFFFF" d="M41.163,214.653c0,0,5.101-0.621,14.028-1.708c8.931-1.053,21.689-2.557,37-4.362
		c15.317-1.736,33.179-3.849,52.333-5.954c19.153-2.11,39.583-4.36,60.014-6.61c20.44-2.161,40.88-4.322,60.042-6.347
		c19.161-2.034,37.063-3.775,52.397-5.348c15.336-1.565,28.129-2.746,37.078-3.63c8.954-0.842,14.07-1.323,14.07-1.323
		s-5.102,0.622-14.028,1.709c-8.932,1.045-21.683,2.621-36.999,4.363c-15.317,1.735-33.179,3.854-52.333,5.954
		c-19.153,2.109-39.583,4.359-60.014,6.608c-20.44,2.16-40.88,4.32-60.042,6.346c-19.162,2.029-37.063,3.775-52.398,5.347
		c-15.342,1.503-28.128,2.755-37.078,3.632C46.279,214.172,41.163,214.653,41.163,214.653z"/>
</g>
<polygon fill="#FFFFFF" stroke="#FFFFFF" stroke-miterlimit="10" points="286.845,97.41 295.003,119.002 311.317,108.206 "/>
<polygon fill="#FFFFFF" stroke="#000000" stroke-miterlimit="10" points="430.32,64.3 420.244,78.216 425.282,93.091 
	445.196,87.093 "/>
<polygon fill="#FFFFFF" stroke="#FFFFFF" stroke-miterlimit="10" points="409.546,361.891 373.698,388.85 432.721,392.688 "/>
<ellipse fill="#FFFFFF" stroke="#000000" stroke-width="3" stroke-miterlimit="10" cx="169.073" cy="186.526" rx="63.69" ry="62.526"/>
<path fill="#FFFFFF" stroke="#000000" stroke-width="3" stroke-miterlimit="10" d="M64.196,125.721v54.702l36.948,55.663h9.117
	l3.839-5.758l-35.026-49.424l-0.962-27.112c0,0,3.838-20.394,35.988-6.478l31.19-21.593c0,0,2.879-4.32,0-11.517
	c0,0-8.637-20.634-29.271-21.113C116.02,93.091,100.664,83.975,64.196,125.721z"/>
<ellipse fill="#FFFFFF" stroke="#000000" stroke-width="3" stroke-miterlimit="10" cx="240.498" cy="382.398" rx="63.69" ry="62.524"/>
<polygon fill="#FFFFFF" stroke="#000000" stroke-miterlimit="10" points="357.675,178.094 459.285,167.88 357.556,184.437 "/>
<path fill="#FFFFFF" stroke="#000000" stroke-width="3" stroke-miterlimit="10" d="M135.621,323.135v54.702l36.948,55.663h9.117
	l3.838-5.757L150.5,378.318l-0.962-27.112c0,0,3.838-20.394,35.988-6.478l31.19-21.594c0,0,2.879-4.318,0-11.516
	c0,0-8.637-20.634-29.27-21.113C187.445,290.506,172.089,281.39,135.621,323.135z"/>
<ellipse fill="#FFFFFF" stroke="#000000" stroke-width="3" stroke-miterlimit="10" cx="391.758" cy="260.549" rx="72.05" ry="70.732"/>
<path fill="#FFFFFF" stroke="#000000" stroke-width="3" stroke-miterlimit="10" d="M273.113,192.593v61.882l41.798,62.97h10.314
	l4.342-6.516l-39.622-55.911l-1.09-30.67c0,0,4.344-23.071,40.712-7.328l35.285-24.427c0,0,3.257-4.887,0-13.029
	c0,0-9.77-23.342-33.113-23.884C331.739,155.68,314.369,145.367,273.113,192.593z"/>
<path stroke="#000000" stroke-miterlimit="10" d="M433.778,318.01c-41.593-13.89-39.983-60.006-39.983-60.006
	s-41.419,25.985-19.029,71.294l16.992,1.983l9.194-0.571l-9.193-4.089c-6.895-1.918-3.241-6.428-3.241-6.428l3.241-4.129h-8.04
	c-4.799-3.839-2.88-9.116-2.88-9.116l4.889-5.76l-7.767-2.397c-2.879-16.796,15.834-40.787,15.834-40.787
	s-12.475,19.676-8.637,26.392l1.92,10.246h7.197c0,0,7.198,4.149,2.16,9.427l-4.677,5.759l6.836-0.479c0,0,7.197,0.479,7.197,6.717
	l-2.399,6.238l7.678-2.109c0,0,8.854-1.424,8.506,5.621l6.37-2.989L433.778,318.01z"/>
<path stroke="#000000" stroke-miterlimit="10" d="M422.106,245.528c0,0,8.637,8.636,8.157,21.113c0,0,6.72,5.09,11.518-6.093
	C441.781,260.548,443.22,251.286,422.106,245.528z"/>
</svg>
