<?xml version="1.0" encoding="utf-8"?>
<!-- Generator: Adobe Illustrator 16.0.0, SVG Export Plug-In . SVG Version: 6.00 Build 0)  -->
<!DOCTYPE svg PUBLIC "-//W3C//DTD SVG 1.1//EN" "http://www.w3.org/Graphics/SVG/1.1/DTD/svg11.dtd">
<svg version="1.1" id="Layer_2" xmlns="http://www.w3.org/2000/svg" xmlns:xlink="http://www.w3.org/1999/xlink" x="0px" y="0px"
	 width="512px" height="512px" viewBox="0 0 512 512" enable-background="new 0 0 512 512" xml:space="preserve">
<g>
	<rect x="15.082" y="21.195" fill="#FFFFFF" stroke="#000000" stroke-miterlimit="10" width="477.734" height="478.813"/>
	<rect x="34.332" y="40.739" stroke="#000000" stroke-miterlimit="10" width="439.673" height="439.724"/>
	<rect x="52.706" y="59.837" fill="#A22229" width="402.487" height="400.64"/>
	<path fill="#FFFFFF" stroke="#FFFFFF" stroke-miterlimit="10" d="M436.818,260.157c0,99.35-79.213,177.222-179.605,177.222
		c-100.391,0-180.664-77.65-180.664-176.999c0-99.35,80.275-183.664,180.667-183.664
		C357.609,76.716,436.818,160.808,436.818,260.157z"/>
	<path fill="#A52329" d="M416.73,259.84c0,89.568-70.234,159.773-159.246,159.773c-89.01,0-160.183-70.005-160.183-159.571
		c0-89.567,71.176-165.579,160.188-165.579C346.499,94.463,416.73,170.273,416.73,259.84z"/>
	<path fill="#FFFFFF" stroke="#FFFFFF" stroke-miterlimit="10" d="M362.108,257.719c0,56.895-46.006,101.487-104.316,101.487
		c-58.307,0-104.93-44.468-104.93-101.36c0-56.893,46.625-105.176,104.933-105.176C316.104,152.669,362.108,200.825,362.108,257.719
		z"/>
	<path stroke="#000000" stroke-miterlimit="10" d="M305.666,257.703c0,28.018-21.375,49.98-48.464,49.98
		c-27.09,0-48.751-21.898-48.751-49.918c0-28.018,21.663-51.797,48.751-51.797C284.292,205.969,305.666,229.684,305.666,257.703z"/>
	<rect x="247.826" y="130.017" stroke="#000000" stroke-miterlimit="10" width="19.25" height="255.395"/>
	<rect x="134.954" y="248.609" stroke="#000000" stroke-miterlimit="10" width="244.991" height="18.211"/>
	<path fill="#FFFFFF" stroke="#000000" stroke-miterlimit="10" d="M270.574,257.73c0,7.585-5.674,13.532-12.868,13.532
		c-7.193,0-12.944-5.93-12.944-13.517c0-7.585,5.751-14.022,12.944-14.022C264.9,243.724,270.574,250.144,270.574,257.73z"/>
	<rect x="2.396" y="243.724" stroke="#000000" stroke-miterlimit="10" width="107.622" height="27.539"/>
	<rect x="404.882" y="243.724" stroke="#000000" stroke-miterlimit="10" width="106.748" height="27.539"/>
	<rect x="241.263" y="2.097" stroke="#000000" stroke-miterlimit="10" width="31.936" height="108.376"/>
	<rect x="241.263" y="404.067" stroke="#000000" stroke-miterlimit="10" width="31.936" height="107.933"/>
	<rect x="2.396" y="248.609" fill="#FFFFFF" stroke="#000000" stroke-miterlimit="10" width="114.183" height="18.211"/>
	<rect x="398.321" y="248.609" fill="#FFFFFF" stroke="#000000" stroke-miterlimit="10" width="113.309" height="18.211"/>
	<rect x="247.826" y="2.097" fill="#FFFFFF" stroke="#000000" stroke-miterlimit="10" width="19.25" height="114.595"/>
	<rect x="247.826" y="396.518" fill="#FFFFFF" stroke="#000000" stroke-miterlimit="10" width="19.25" height="115.482"/>
</g>
</svg>
