<?xml version="1.0" encoding="utf-8"?>
<!-- Generator: Adobe Illustrator 16.0.0, SVG Export Plug-In . SVG Version: 6.00 Build 0)  -->
<!DOCTYPE svg PUBLIC "-//W3C//DTD SVG 1.1//EN" "http://www.w3.org/Graphics/SVG/1.1/DTD/svg11.dtd">
<svg version="1.1" id="Layer_2" xmlns="http://www.w3.org/2000/svg" xmlns:xlink="http://www.w3.org/1999/xlink" x="0px" y="0px"
	 width="512px" height="512px" viewBox="0 0 512 512" enable-background="new 0 0 512 512" xml:space="preserve">
<g>
	<rect x="21.555" y="31.849" fill="#FFFFFF" stroke="#000000" stroke-miterlimit="10" width="456.304" height="457.091"/>
	<rect x="39.618" y="51.095" stroke="#000000" stroke-miterlimit="10" width="419.749" height="419.037"/>
	<rect x="51.23" y="62.031" fill="#952B43" width="396.095" height="394.979"/>
	<path stroke="#000000" stroke-miterlimit="10" d="M196.021,405.631c0,0-0.981,29.907,10.725,51.532
		c11.706,21.623,31.395,36.35,35.876,38.377c8.627,3.901,11.363,15.931,11.363,15.931c127.96,2.854,122.705-128.908,122.705-128.908
		c-9.135-49.949,6.752-36.304,6.752-36.304s27.648,10.232,51.494,5.628c23.845-4.605,43.721-19.07,47.004-22.773
		c6.326-7.13,18.419-6.043,18.419-6.043c42.389-122.828-82.394-158.646-82.394-158.646s-34.773-3.65-27.41-14.906
		c0,0,18.064-23.619,21.073-48.114c3.011-24.494-4.423-48.173-6.881-52.489c-4.729-8.311,0-19.683,0-19.683
		C302.822-49.501,231,60.288,231,60.288c-23.223,36.31-29.198,22.001-29.198,22.001S185.35,57.48,163.396,46.952
		c-21.953-10.528-46.391-10.708-51.19-9.675c-9.237,1.986-18.392-6.123-18.392-6.123c-105.276,74.033-25.024,177.606-25.024,177.606
		c31.323,40.003,15.173,41.305,15.173,41.305s-28.275,8.275-44.887,26.27c-16.614,17.997-24.313,41.588-24.826,46.548
		c-0.989,9.552-11.394,15.909-11.394,15.909c36.806,124.675,158.417,78.944,158.417,78.944S191.148,394.495,196.021,405.631z"/>
	<path fill="#FFFFFF" stroke="#000000" stroke-miterlimit="10" d="M364.104,397.211c-6.916-3.23-61.349-17.873-49.483-61.359
		c11.866-43.484,71.691-21.887,71.691-21.887s-32.673-47.747,16.887-77.647c49.559-29.901,96.854,33.102,69.82,67.349
		c0,0,5.334,15.254,18.298,9.122c12.961-6.129,31.708-80.411-62.618-127.85l-0.728,0.44c-5.16,5.687-35.695,53.801-72.681,28.869
		c-36.983-24.932,1.72-76.108,1.72-76.108s-54.75,16.823-67.372-40.359c-12.62-57.183,60.921-83.427,84.575-46.685
		c0,0,15.912-0.438,14.191-14.872c-1.72-14.434-65.368-55.551-138.911,20.996l0.611-0.732c3.733,6.743,39.343,51.102,4.636,79.218
		c-34.708,28.115-70.669-25.092-70.669-25.092s-1.114,58.162-58.493,52.773s-59.294-84.632-17.641-96.213
		c0,0,4.488-15.532-9.545-18.31C84.36,46.084,26.304,95.021,75.276,189.749l-0.589-0.364c7.46-1.524,59.954-22.238,75.501,20.029
		c15.546,42.27-45.328,60.583-45.328,60.583s54.034,19.077,31.24,72.901c-22.792,53.827-97.476,31.157-95.414-12.711
		c0,0-13.134-9.146-20.074,3.565c-6.938,12.71,20.85,84.001,124.57,65.952l-0.12-0.688c0.879-7.687-2.288-64.864,42.04-66.855
		c44.33-1.99,42.665,62.553,42.665,62.553s34.52-46.384,77.821-7.716c43.301,38.667-0.953,103.915-41.342,88.379
		c0,0-12.609,9.88-2.863,20.519c9.745,10.636,84.995,5.764,100.136-100.146"/>
	<ellipse fill="#952B43" cx="339.376" cy="86.526" rx="24.083" ry="24.494"/>
	<ellipse fill="#952B43" cx="129.343" cy="111.02" rx="24.084" ry="24.495"/>
	<ellipse fill="#952B43" cx="90.367" cy="326.225" rx="24.084" ry="24.494"/>
	<ellipse fill="#952B43" cx="273.791" cy="429.453" rx="24.084" ry="24.495"/>
	<ellipse fill="#952B43" cx="432.702" cy="280.734" rx="24.084" ry="24.495"/>
	<ellipse stroke="#000000" stroke-miterlimit="10" cx="247.557" cy="246.616" rx="78.057" ry="79.608"/>
	<ellipse fill="#FFFFFF" stroke="#000000" stroke-miterlimit="10" cx="247.557" cy="245.632" rx="63.005" ry="62.877"/>
	<ellipse fill="#952B43" cx="246.698" cy="246.616" rx="33.331" ry="34.118"/>
</g>
</svg>
