<?xml version="1.0" encoding="utf-8"?>
<!-- Generator: Adobe Illustrator 16.0.0, SVG Export Plug-In . SVG Version: 6.00 Build 0)  -->
<!DOCTYPE svg PUBLIC "-//W3C//DTD SVG 1.1//EN" "http://www.w3.org/Graphics/SVG/1.1/DTD/svg11.dtd">
<svg version="1.1" id="Layer_2" xmlns="http://www.w3.org/2000/svg" xmlns:xlink="http://www.w3.org/1999/xlink" x="0px" y="0px"
	 width="512px" height="512px" viewBox="0 0 512 512" enable-background="new 0 0 512 512" xml:space="preserve">
<g>
	<rect x="51.456" y="51.1" fill="#FFFFFF" stroke="#000000" stroke-miterlimit="10" width="409.696" height="408.859"/>
	<rect x="68.209" y="68.04" stroke="#000000" stroke-miterlimit="10" width="376.57" height="374.595"/>
	<rect x="84.011" y="83.824" fill="#F2C439" width="344.967" height="342.64"/>
	<path stroke="#000000" stroke-miterlimit="10" d="M511.793,184.307c7.448-13.744-67.014-12.32-67.014-12.32h-59.778
		l-128.696,95.092l0.189,16.17c0,0,48.928,6.544,73.677,34.264C354.921,345.231,448.588,300.958,511.793,184.307z"/>
	<path fill="#FFFFFF" stroke="#FFFFFF" stroke-miterlimit="10" d="M269.251,272.469l116.892-87.393h51.022
		c0,0,52.544-1.924,60.922,5.775c0,0-102.425,150.917-160.3,117.036C337.787,307.888,311.515,281.323,269.251,272.469z"/>
	<path stroke="#000000" stroke-miterlimit="10" d="M320.271,250.524l64.04-48.508c0,0,100.068-19.634,30.771,72.378
		c0,0-27.414,31.954-65.871,21.175C349.21,295.568,293.237,274.393,320.271,250.524z"/>
	<polygon fill="#FFFFFF" stroke="#FFFFFF" stroke-miterlimit="10" points="385.823,297.406 381.193,263.634 365.582,282.813 
		362.021,216.045 380.73,200.698 381.193,243.206 392.235,231.115 392.235,294.456 	"/>
	<path stroke="#000000" stroke-miterlimit="10" d="M0.769,184.372c-7.456-13.738,67.006-12.36,67.006-12.36l59.779-0.035
		l128.751,95.017l-0.182,16.17c0,0-48.923,6.573-73.657,34.307C157.733,345.204,64.042,300.985,0.769,184.372z"/>
	<path fill="#FFFFFF" stroke="#FFFFFF" stroke-miterlimit="10" d="M243.362,272.393l-116.944-87.325l-51.021,0.03
		c0,0-52.544-1.894-60.917,5.811c0,0,102.511,150.855,160.367,116.942C174.846,307.851,201.101,281.271,243.362,272.393z"/>
	<path stroke="#000000" stroke-miterlimit="10" d="M192.327,250.477l-64.067-48.471c0,0-100.08-19.575-30.728,72.395
		c0,0,27.431,31.939,65.882,21.137C163.415,295.538,219.376,274.33,192.327,250.477z"/>
	<polygon fill="#FFFFFF" stroke="#FFFFFF" stroke-miterlimit="10" points="126.801,297.654 131.413,264.391 147.035,283.268 
		150.561,217.51 131.843,202.406 131.402,244.271 120.354,232.37 120.387,294.753 	"/>
</g>
</svg>
