<?xml version="1.0" encoding="utf-8"?>
<!-- Generator: Adobe Illustrator 16.0.0, SVG Export Plug-In . SVG Version: 6.00 Build 0)  -->
<!DOCTYPE svg PUBLIC "-//W3C//DTD SVG 1.1//EN" "http://www.w3.org/Graphics/SVG/1.1/DTD/svg11.dtd">
<svg version="1.1" id="Layer_2" xmlns="http://www.w3.org/2000/svg" xmlns:xlink="http://www.w3.org/1999/xlink" x="0px" y="0px"
	 width="512px" height="512px" viewBox="0 0 512 512" enable-background="new 0 0 512 512" xml:space="preserve">
<g>
	<rect x="26.408" y="29.562" fill="#FFFFFF" stroke="#000000" stroke-miterlimit="10" width="453.586" height="452.339"/>
	<rect x="46.474" y="48.757" stroke="#000000" stroke-miterlimit="10" width="415.124" height="413.531"/>
	<rect x="64.45" y="66.283" fill="#5E348A" width="379.173" height="378.063"/>
	<path fill="#FFFFFF" stroke="#000000" stroke-width="8" stroke-miterlimit="10" d="M5.923,449.351
		c0,0,264.208-10.432,348.235-93.888c0,0,92.39-103.488,0-194.874c0,0-89.461-94.724-198.574-7.093
		C155.584,153.496,57.762,255.732,5.923,449.351z"/>
	<path fill="#FFFFFF" stroke="#000000" stroke-width="8" stroke-miterlimit="10" d="M284.937,95.176
		c0,0,120.058,24.247,132.663,160.764l89.876-201.152L284.937,95.176z"/>
	
		<ellipse fill="#5E348A" stroke="#000000" stroke-width="8" stroke-miterlimit="10" cx="250.901" cy="255.939" rx="76.097" ry="79.195"/>
	<ellipse stroke="#FFFFFF" stroke-width="9" stroke-miterlimit="10" cx="251.287" cy="255.314" rx="53.929" ry="56.124"/>
	<path stroke="#000000" stroke-width="3" stroke-miterlimit="10" d="M105.106,440.233c33.754-193.892,91.866-243.757,91.866-243.757
		s-55.791,44.549-45.932,236.796L105.106,440.233z"/>
	<path stroke="#000000" stroke-width="2" stroke-miterlimit="10" d="M421.174,70.451c0,0,3.056,49.223-16.18,100.866
		c0,0,26.552-16.074,39.146-105.034L421.174,70.451z"/>
</g>
</svg>
