<?xml version="1.0" encoding="utf-8"?>
<!-- Generator: Adobe Illustrator 16.0.0, SVG Export Plug-In . SVG Version: 6.00 Build 0)  -->
<!DOCTYPE svg PUBLIC "-//W3C//DTD SVG 1.1//EN" "http://www.w3.org/Graphics/SVG/1.1/DTD/svg11.dtd">
<svg version="1.1" id="Layer_2" xmlns="http://www.w3.org/2000/svg" xmlns:xlink="http://www.w3.org/1999/xlink" x="0px" y="0px"
	 width="512px" height="512px" viewBox="0 0 512 512" enable-background="new 0 0 512 512" xml:space="preserve">
<g>
	<polygon fill="#FFFFFF" stroke="#000000" stroke-miterlimit="10" points="478.545,482.111 33.737,482.111 33.737,374.586 
		50.432,351.048 60.449,207.356 33.737,137.591 33.737,36.233 478.545,36.233 478.545,137.997 456.733,207.371 459.906,346.186 
		478.545,379.05 	"/>
	<rect x="51.131" y="55.108" stroke="#000000" stroke-miterlimit="10" width="408.775" height="408.129"/>
	<rect x="68.526" y="67.273" fill="#F2C439" width="374.401" height="383.799"/>
	<path fill="#FFFFFF" stroke="#000000" stroke-width="2" stroke-miterlimit="10" d="M256.035,0.873
		c0,0-74.375,99.944-229.69,131.376c0,0,52.992,115.36-0.043,253.771c0,0,135.427,19.53,229.839,125.98
		c94.429-106.435,229.858-125.941,229.858-125.941c-53.012-138.42,0-253.771,0-253.771C330.688,100.83,256.331,0.873,256.331,0.873
		L256.035,0.873z"/>
	<path fill="#F2C439" stroke="#000000" stroke-width="2" stroke-miterlimit="10" d="M404.409,169.2
		c-77.448-23.49-139.156-78.438-139.156-78.438V43.364c0,0,66.265,80.116,183.472,101.927L404.409,169.2z"/>
	<path fill="#F2C439" stroke="#000000" stroke-width="2" stroke-miterlimit="10" d="M408.138,331.109
		c-12.425-72.146,0.062-147.152,0.062-147.152l46.324-27.341c0,0-32.306,89.344,0,205.953L408.138,331.109z"/>
	<path fill="#F2C439" stroke="#000000" stroke-width="2" stroke-miterlimit="10" d="M400.683,346.209
		c-100.642,31.46-135.43,75.921-135.43,75.921v54.109c0,0,54.252-74.557,183.472-101.4L400.683,346.209z"/>
	<path fill="#F2C439" stroke="#000000" stroke-width="2" stroke-miterlimit="10" d="M265.253,169.2c0,0,24.434,21.812,70.821,38.171
		l41.829-25.587c-61.711-15.1-112.65-60.401-112.65-60.401V169.2z"/>
	<path fill="#F2C439" stroke="#000000" stroke-width="2" stroke-miterlimit="10" d="M265.253,193.528
		c0,0,16.98,18.876,45.971,28.523l-45.971,25.166V193.528z"/>
	<path fill="#F2C439" stroke="#000000" stroke-width="2" stroke-miterlimit="10" d="M345.186,220.373c0,0-8.699,41.946,0,77.18
		l41.001,25.167c-12.013-55.368,0-129.191,0-129.191L345.186,220.373z"/>
	<path fill="#F2C439" stroke="#000000" stroke-width="2" stroke-miterlimit="10" d="M271.879,259.592l44.729-25.796
		c0,0-3.726,28.103,0,52.012L271.879,259.592z"/>
	<path fill="#F2C439" stroke="#000000" stroke-width="2" stroke-miterlimit="10" d="M265.253,349.565
		c0,0,39.345-32.716,70.821-39.849l41.829,23.909c-58.398,14.262-112.65,62.919-112.65,62.919V349.565z"/>
	<path fill="#F2C439" stroke="#000000" stroke-width="2" stroke-miterlimit="10" d="M311.224,295.455
		c-22.364,6.292-45.971,29.781-45.971,29.781v-54.109L311.224,295.455z"/>
	<path fill="#F2C439" stroke="#000000" stroke-width="2" stroke-miterlimit="10" d="M107.928,169.175
		C185.38,145.698,247.097,90.76,247.097,90.76l0.008-47.398c0,0-66.277,80.104-183.488,101.896L107.928,169.175z"/>
	<path fill="#F2C439" stroke="#000000" stroke-width="2" stroke-miterlimit="10" d="M104.173,331.085
		c12.435-72.146-0.039-147.154-0.039-147.154l-46.318-27.349c0,0,32.29,89.349-0.035,205.951L104.173,331.085z"/>
	<path fill="#F2C439" stroke="#000000" stroke-width="2" stroke-miterlimit="10" d="M111.625,346.186
		c100.636,31.477,135.417,75.942,135.417,75.942l-0.008,54.109c0,0-54.243-74.566-183.457-101.433L111.625,346.186z"/>
	<path fill="#F2C439" stroke="#000000" stroke-width="2" stroke-miterlimit="10" d="M247.084,169.198
		c0,0-24.438,21.807-70.827,38.158l-41.826-25.594c61.713-15.09,112.662-60.382,112.662-60.382L247.084,169.198z"/>
	<path fill="#F2C439" stroke="#000000" stroke-width="2" stroke-miterlimit="10" d="M247.081,193.526
		c0,0-16.984,18.873-45.976,28.515l45.968,25.176L247.081,193.526z"/>
	<path fill="#F2C439" stroke="#000000" stroke-width="2" stroke-miterlimit="10" d="M167.145,220.358c0,0,8.691,41.948-0.013,77.18
		l-41.006,25.158c12.021-55.366,0.021-129.189,0.021-129.189L167.145,220.358z"/>
	<path fill="#F2C439" stroke="#000000" stroke-width="2" stroke-miterlimit="10" d="M240.443,259.589l-44.726-25.804
		c0,0,3.724,28.103-0.007,52.012L240.443,259.589z"/>
	<path fill="#F2C439" stroke="#000000" stroke-width="2" stroke-miterlimit="10" d="M247.055,349.563
		c0,0-39.34-32.722-70.815-39.859l-41.833,23.901c58.395,14.271,112.641,62.937,112.641,62.937L247.055,349.563z"/>
	<path fill="#F2C439" stroke="#000000" stroke-width="2" stroke-miterlimit="10" d="M201.092,295.446
		c22.363,6.296,45.967,29.789,45.967,29.789l0.009-54.11L201.092,295.446z"/>
</g>
</svg>
