<?xml version="1.0" encoding="utf-8"?>
<!-- Generator: Adobe Illustrator 16.0.0, SVG Export Plug-In . SVG Version: 6.00 Build 0)  -->
<!DOCTYPE svg PUBLIC "-//W3C//DTD SVG 1.1//EN" "http://www.w3.org/Graphics/SVG/1.1/DTD/svg11.dtd">
<svg version="1.1" id="Layer_2" xmlns="http://www.w3.org/2000/svg" xmlns:xlink="http://www.w3.org/1999/xlink" x="0px" y="0px"
	 width="512px" height="512px" viewBox="0 0 512 512" enable-background="new 0 0 512 512" xml:space="preserve">
<g>
	<rect x="13.281" y="27.473" fill="#FFFFFF" stroke="#000000" stroke-miterlimit="10" width="485.439" height="484.527"/>
	<rect x="32.229" y="46.672" stroke="#000000" stroke-miterlimit="10" width="446.189" height="446.131"/>
	<rect x="50.727" y="65.413" fill="#A22229" width="410.547" height="408.19"/>
	<path stroke="#000000" stroke-miterlimit="10" d="M401.271,126.259c0,17.896-5.77,32.402-12.885,32.402H123.163
		c-7.116,0-12.885-14.506-12.885-32.402V33.364c0-17.895,5.769-32.402,12.885-32.402h265.224c7.115,0,12.885,14.507,12.885,32.402
		V126.259z"/>
	<path fill="#FFFFFF" stroke="#000000" stroke-miterlimit="10" d="M395.857,66.985c0,7.21-5.77,13.055-12.885,13.055H129.479
		c-7.117,0-12.885-5.845-12.885-13.055V20.873c0-7.21,5.768-13.055,12.885-13.055h253.493c7.115,0,12.885,5.845,12.885,13.055
		V66.985z"/>
	<path fill="#FFFFFF" stroke="#000000" stroke-miterlimit="10" d="M395.857,138.293c0,7.21-5.77,13.055-12.885,13.055H129.479
		c-7.117,0-12.885-5.845-12.885-13.055V99.495c0-7.21,5.768-13.055,12.885-13.055h253.493c7.115,0,12.885,5.845,12.885,13.055
		V138.293z"/>
	<rect x="220.81" y="0.962" stroke="#000000" stroke-miterlimit="10" width="70.38" height="157.699"/>
	<rect x="129.678" y="27.473" stroke="#000000" stroke-miterlimit="10" width="251.742" height="19.199"/>
	<rect x="129.678" y="99.696" stroke="#000000" stroke-miterlimit="10" width="251.742" height="19.198"/>
	<path fill="#FFFFFF" stroke="#000000" stroke-miterlimit="10" d="M395.857,33.873c0,0,37.897,12.799,38.347,48.91
		c0,0,1.806,34.74-38.347,44.11v-14.17c25.629-6.7,24.476-31.539,24.476-31.539c-0.287-25.818-24.476-34.97-24.476-34.97V33.873z"/>
	
		<rect x="245.624" y="263.338" fill="#FFFFFF" stroke="#000000" stroke-width="2" stroke-miterlimit="10" width="20.302" height="160.442"/>
	<path fill="#FFFFFF" stroke="#000000" stroke-width="2" stroke-miterlimit="10" d="M246.298,406.864
		c-40.6,50.74-67.445-5.939-67.445-5.939s-2.033-9.14,15.563-7.771c0,0-16.766-12.798-12.672-57.138
		c0,0-56.58,70.855,17.412,115.646c0,0,34.516,15.539,57.07-17.831L256,433.836c22.557,33.368,58.198,16.456,58.198,16.456
		c73.989-44.798,16.279-114.276,16.279-114.276c4.096,44.34-12.67,57.139-12.67,57.139c17.595-1.37,15.34,7.313,15.34,7.313
		s-26.618,57.138-67.222,6.399L246.298,406.864z"/>
	
		<ellipse fill="#FFFFFF" stroke="#000000" stroke-width="4" stroke-miterlimit="10" cx="255.775" cy="251.225" rx="23.686" ry="27.655"/>
	
		<rect x="251.038" y="154.547" fill="#FFFFFF" stroke="#000000" stroke-width="2" stroke-miterlimit="10" width="10.376" height="74.964"/>
	<rect x="226.225" y="3.247" fill="#FFFFFF" stroke="#FFFFFF" stroke-miterlimit="10" width="58.648" height="152.672"/>
	<ellipse fill="#FFFFFF" cx="255.775" cy="251.225" rx="23.686" ry="27.655"/>
	<ellipse stroke="#000000" stroke-miterlimit="10" cx="256.226" cy="246.882" rx="5.188" ry="10.056"/>
	<rect x="246.692" y="269.993" fill="#FFFFFF" width="18.211" height="164.255"/>
</g>
</svg>
