<?xml version="1.0" encoding="UTF-8"?>
<svg width="274.97" height="244.02" version="1.1" viewBox="0 0 274.97 244.0199" xmlns="http://www.w3.org/2000/svg"><title>Maverick</title><g transform="translate(-36.37 -45.98)"><path d="m60 150.25q0 69.89 0 139.75h230q0-115 0-230h-127.33a56.92 56.92 0 0 0 -21.32 -1c-1.86 0.29-5.07 0.91-7.84 1.45-7.74 1.5-9.48 2-13.33 2.67a98.06 98.06 0 0 1 -12.75 1.25 26.27 26.27 0 0 0 4.75 5.5c5.08 4.44 8.77 4.16 16.92 8.67 4.24 2.34 9.48 5.95 9 7-0.21 0.46-1.46 0.32-6.08-0.58-8.31-1.62-12.47-2.44-14.83-3.5-3.31-1.49-5.57-3.27-10.08-6.83-4.74-3.74-5.07-4.78-9.33-7.83a62.8 62.8 0 0 0 -9.08 -5.42 47.18 47.18 0 0 0 -13.08 -4.59c-4.28-0.73-8.3-0.2-16.34 0.84a112.3 112.3 0 0 0 -18.08 3.83c-2 0.6-3.65 1.17-4.83 1.58 0.74 0.28 1.88 0.74 3.25 1.33 2.64 1.15 4.53 2.13 5.08 2.42 5.13 2.63 8 2.77 12.17 5 1.93 1 7.44 4 10.59 10 1.91 3.63 3.85 10.08 1.24 12.54-1.43 1.35-2.94 0.31-9.17 0.42a67.69 67.69 0 0 0 -12.25 1.5 90.92 90.92 0 0 0 -9.5 2.33c3.9 1.4 7.15 2.64 9.58 3.58 9.33 3.64 11.18 4.8 12.67 5.92a43.7 43.7 0 0 1 6.5 6.25 33.48 33.48 0 0 1 4.75 6.06c3.1 5.49 2.77 10.42 5.24 13.1a24.8 24.8 0 0 0 2.95 2.89 5.3 5.3 0 0 1 1.34 1.16c0.88 1.16 1.17 2.8 0.73 3.07s-1.17-0.53-1.51-0.82c-2.71-2.32-7.15-2.82-10.22-3.16-4.27-0.48-7.58 0.21-11.66 1.06-1.8 0.37-3.27 0.78-4.29 1.08 1.53 1.16 2.78 2 3.63 2.58 1.29 0.85 2.4 1.5 2.57 2.66a2.18 2.18 0 0 1 0 0.81zm77.63-69.31a58.7 58.7 0 0 0 -14.19 -7.56 29.92 29.92 0 0 1 -7.52 -4 29.29 29.29 0 0 1 -3.6 -3.1c4.76-0.52 9.75-1.2 14.94-2.06 4.32-0.72 8.46-1.52 12.42-2.37a69.36 69.36 0 0 1 -11.23 3l-4.69 0.81-7.67 1.4a15.82 15.82 0 0 0 1.5 1.67c3.16 3 6.14 3.35 11.17 5.33a45.58 45.58 0 0 1 8.31 4.17 33.06 33.06 0 0 1 6.85 5.57l2.92 3.43-0.68 0.32h-1.49a41 41 0 0 0 -7.04 -6.61zm-56.94 55.44a48.1 48.1 0 0 1 -3.19 -4.06c-3.37-4.67-2.13-7.78-4.74-13.53a26.15 26.15 0 0 0 -4.57 -6.84 24.37 24.37 0 0 1 2.06 2.05c3.8 4.29 5.66 9.46 7 13.27a33 33 0 0 0 1.75 4.11 28.21 28.21 0 0 0 2.19 3.69c2.52 3.55 4.06 3.7 5 6.13a8.32 8.32 0 0 1 0.44 4.13l-2.06-2.06a6.66 6.66 0 0 0 -0.19 -1.75c-0.53-2.18-2-3.32-3.69-5.14z" fill="#fff"/><path d="m280.5 280.5h-75.25c-4.19-5.21-10.29-12.86-17.5-22.25-19.55-25.46-29.33-38.19-34.5-49.25-7.18-15.37-17.36-37-8.92-58.83 6.32-16.33 20.13-25.27 27.33-29.17l-0.17-51.29 109-0.21z" fill="#191917"/><path d="m271 271-74.88 0.08a114.26 114.26 0 0 0 -12.12 -33.58c-13.88-25.06-30-31.11-37.5-53.5-2.61-7.82-4.59-19-2.17-33.83l27-24.5 0.17-46.92 99.5 0.25z" fill="#768696"/><path d="m169.5 67.63a4 4 0 0 1 2.17 -0.58c1.81 0.09 3.15 1.64 5.58 5.08 2.92 4.14 2.68 4.3 3.88 5.79a23.69 23.69 0 0 0 8.25 6.17c-0.09 0.16-4.9-0.7-8.42-4.62a105.49 105.49 0 0 1 -6.75 -9.29 3.67 3.67 0 0 0 -2.38 -1.86 2.21 2.21 0 0 0 -0.79 0.06l1.17 1.42c8.91 10.82 11.34 13.2 14.85 14.83a20.39 20.39 0 0 0 3.75 1.31c-0.36-0.33-0.73-0.78-0.62-1.19 0.4-1.55 7.48-1 8.44-0.87 4.12 0.35 9.17 0.77 14.38 3.88 4.48 2.67 4.55 4.63 10.13 9.44a57.2 57.2 0 0 0 10.5 7.19l-19.14 15.11-43.12-15.62z" fill="#fff"/><g><path d="m205.42 248.35a2.06 2.06 0 0 1 1.82 0.3c0.66 0.59 0.23 1.49 0.93 2.09s1.42 0.15 1.83 0.75a1.65 1.65 0 0 1 0.13 1.17c-0.13 1.13-0.78 1.62-0.54 2s0.75 0.18 0.83 0.17c0.71-0.12 0.83-0.75 1.23-0.73s0.46 1 1.35 1.77c0.73 0.65 1.21 0.41 1.54 1 0.52 0.85-0.36 1.86 0.08 2.29s1.91-0.65 2.71-0.08c0.52 0.37 0.46 1.26 0.46 1.63 0 2.13 1.51 3.8 3.54 6.13a18.49 18.49 0 0 0 5.42 4.25h-14.44c-0.56-1.33-1.12-1.7-1.56-1.75-0.6-0.07-1.11 0.45-1.5 0.17s-0.14-0.64-0.5-1a1.6 1.6 0 0 0 -1.25 -0.33c-1 0.09-1.33 0.89-1.79 0.92s-1.46-1.19-2.71-6.37z" fill="#566675"/><path d="m250.7 234.37a1.39 1.39 0 0 1 1.45 0.37 1.41 1.41 0 0 1 0 1.79 0.93 0.93 0 0 1 -0.79 -0.26c-0.23-0.27 0-0.57-0.28-0.89s-0.66-0.25-0.72-0.49 0.03-0.26 0.34-0.52z" fill="#566675"/><path d="m221.25 227.88a0.89 0.89 0 0 1 0.31 -1.15c0.47-0.15 1.38 0.88 1.17 1.38-0.11 0.25-0.47 0.3-0.54 0.31a0.93 0.93 0 0 1 -0.94 -0.54z" fill="#566675"/><path d="m221.5 229.58a0.82 0.82 0 0 0 -0.54 -0.67c-0.26-0.09-0.49 0-0.94 0.19s-0.71 0.29-0.73 0.46c0 0.4 1.19 1.19 1.84 0.77a0.83 0.83 0 0 0 0.37 -0.75z" fill="#566675"/><path d="m223.6 231.5c0.51-0.6 1.19-0.69 1.48-0.44a0.77 0.77 0 0 1 0.08 0.9 1.09 1.09 0 0 1 -1.6 0.13 0.68 0.68 0 0 1 0.04 -0.59z" fill="#566675"/><path d="m211.35 222.4c0.55-0.15 1.53 1.13 1.31 1.48a1.23 1.23 0 0 1 -1.69 -0.5c-0.1-0.38 0.08-0.9 0.38-0.98z" fill="#566675"/><path d="m181.42 198.4c0.17-0.21 0.65-0.13 0.94 0 0.85 0.43 0.84 1.84 0.83 2a1.33 1.33 0 0 1 -1.13 -0.07c-0.21-0.15-0.31-0.46-0.52-1.09s-0.16-0.8-0.12-0.84z" fill="#566675"/><path d="m187 202.31c0.54 0 0.9 0.38 0.88 0.69s-0.34 0.46-0.37 0.48c-0.6 0.07-1-0.3-1-0.6s0.21-0.45 0.49-0.57z" fill="#566675"/><path d="m175.23 199.63c0-0.19-1.7-0.22-3-1a2.49 2.49 0 0 1 -0.67 -0.5c-0.45-0.51-0.33-0.88-0.69-1.1s-0.77 0.12-1.16-0.16-0.14-0.35-0.49-0.9a1.93 1.93 0 0 0 -0.66 -0.74 1.66 1.66 0 0 0 -0.95 -0.2 2.57 2.57 0 0 0 -1.37 0.63c-0.39 0.27-0.38 0.35-0.37 0.38s0.44 0.08 1.19 0.21a3.61 3.61 0 0 1 0.88 0.23 3.06 3.06 0 0 1 0.87 0.62 12.77 12.77 0 0 0 1.44 1c1.88 1.27 1.76 1.55 2.5 1.79a2.78 2.78 0 0 0 2.48 -0.26z" fill="#566675"/><path d="m165.48 192.81c0 0.41-0.62 0.69-0.87 0.81a4 4 0 0 1 -2.75 0 26.76 26.76 0 0 0 -4.83 -0.75l-2.94-5.33a2.86 2.86 0 0 0 2.12 -0.3c0.5-0.32 0.66-0.74 1.27-0.89a1.7 1.7 0 0 1 1.17 0.13c0.61 0.34 0.63 1 0.92 1.71 0.4 0.94 1.19 1.47 2.78 2.51 1.91 1.3 3.16 1.5 3.13 2.11z" fill="#566675"/><path d="m153.88 182.85a5.42 5.42 0 0 0 1.81 1.29c0.75 0.32 1.22 0.31 1.27 0.52s-0.55 0.84-3.77 2.17z" fill="#566675"/><path d="m257.39 267.58c0.25 0.08 0.37 0.51 0.33 0.83-0.07 0.51-0.6 1-0.94 0.86s-0.36-0.45-0.34-0.72c0.02-0.55 0.56-1.09 0.95-0.97z" fill="#566675"/><path d="m260.52 269.16a0.37 0.37 0 0 1 0.43 0.18c0.06 0.13-0.14 0.23-0.13 0.49v0.15c0 0.07-0.12 0.45-0.24 0.46s-0.33-0.36-0.33-0.7c0.02-0.08 0.02-0.5 0.27-0.58z" fill="#566675"/><path d="m262.28 270.43a0.67 0.67 0 0 1 0.52 0.31 0.57 0.57 0 0 1 0.07 0.27h-1.36a0.83 0.83 0 0 1 0.77 -0.58z" fill="#566675"/><path d="m250 79c0.38 0.36 0.9 0.84 1.57 1.38 1.51 1.22 2.22 1.52 2.67 2.5 0.33 0.73 0.42 1.62 0.17 1.75s-0.77-0.82-2.31-2.19a8.85 8.85 0 0 0 -3.15 -2.18 2.41 2.41 0 0 1 -1 -0.46 2.34 2.34 0 0 1 -0.62 -0.81h-13.87a2.46 2.46 0 0 1 -0.79 1.63 2.89 2.89 0 0 1 -2.12 0.5c-0.77-0.08-1-0.39-1.62-0.25a1.89 1.89 0 0 0 -1 0.67 1 1 0 0 1 -0.79 -0.09c-0.51-0.33-0.63-1.35-0.1-2.47h-15.84c0.69 0.05 1.39 0.2 1.5 0.58s-0.48 0.66-0.62 1.19c-0.38 1.35 2.25 4.2 5 4.16 2.05 0 3.44-1.7 3.79-1.35 0.56 0.57-2.16 4.24-1.75 4.56 0.2 0.15 0.81-0.67 1.75-0.94 1.55-0.44 3.32 0.82 4.81 2.31-0.24 0.12-2.19 1.15-2 2.13 0.07 0.39 0.43 0.5 2 1.43 1.84 1.12 2.1 1.44 2.56 1.31 0.86-0.24 0.67-1.57 1.56-2.12 0.58-0.36 1.67-0.43 3.94 1a12 12 0 0 1 -1.75 -1.62c-0.76-0.86-0.79-1.15-1.31-1.44-1-0.56-1.82 0-2.25-0.56a1.37 1.37 0 0 1 0.06 -1.5c0.34-0.48 0.78-0.34 1.25-0.75 0.81-0.71 0.3-1.83 0.75-2.12 1.06-0.68 5.13 4.62 6.56 3.84 0.54-0.29 0.24-1.19 1-1.71 0.94-0.64 2.42 0 2.81 0.19 2.27 1 2.45 2.93 4.07 3 0.77 0 0.79-0.39 1.87-0.35a5.14 5.14 0 0 1 2.68 0.95 6.06 6.06 0 0 1 1.34 1.22 9 9 0 0 0 0.66 3.53 5 5 0 0 0 1 1.7c0.8 0.85 1.4 0.74 2.09 1.62 0.52 0.66 0.35 0.93 0.81 1.59a4.76 4.76 0 0 0 2.38 1.59c3.08 1.33 3.78 5.16 4.38 4.94s0.27-5.15-1.94-6.06c-0.56-0.23-1.34-0.25-1.72-0.9a1.32 1.32 0 0 1 0 -1.48c0.7-0.67 2.7 0.64 2.94 0.25 0.14-0.22-0.36-0.86-0.87-1.25-0.69-0.53-1.19-0.43-1.44-0.87-0.12-0.22-0.2-0.6 0.13-1.31a1.83 1.83 0 0 1 0.82 0.1c0.81 0.3 1.13 1.15 1.37 1.59 1 1.77 2.83 1 5.13 3.13a25.61 25.61 0 0 1 1.94 2.44l2.63 3.38v-27.38zm-25.89 3.13c-0.57 0.14-1.23-0.35-1.21-0.79s0.45-0.61 0.79-0.68 1 0 1.13 0.43a0.93 0.93 0 0 1 -0.74 0.99zm3.42 3c-0.72-0.26-0.64-1.09-1.48-1.48a1.31 1.31 0 0 1 -0.65 -0.4 1 1 0 0 1 -0.17 -0.62c0.38-0.67 0.76-0.74 0.88-0.75 0.66-0.06 1.22 0.87 1.63 1.54a6.53 6.53 0 0 1 0.71 1.68 1.36 1.36 0 0 1 -0.95 -0.1zm8.71-0.12a3.72 3.72 0 0 1 -1.87 1.21 2 2 0 0 1 -1 -1.17 1.56 1.56 0 0 1 0.5 -1.71c0.21-0.11 0.37 0 0.75 0 1.33 0.14 1.94-0.42 2.21-0.12s-0.19 1.16-0.62 1.7zm19 11a0.86 0.86 0 0 1 0.46 -1 0.87 0.87 0 0 1 1.12 0.58 1 1 0 0 1 -0.17 1.13c-0.3 0.08-1.01-0.12-1.4-0.84zm1.21 4.54c-0.31 0-0.56-0.51-0.54-0.92a1.13 1.13 0 0 1 0.71 -1 1.15 1.15 0 0 1 0.58 0.83c0.05 0.44-0.38 1-0.74 0.96z" fill="#556775"/><path d="m233.46 78.91-6.46-0.05z" fill="#556775"/><path d="m249.88 78.86h-2.58v0.08h2.7z" fill="#556775"/></g><g fill="#44525f"><path d="m249 89.28a1.48 1.48 0 0 1 -1.5 -1.28c0-0.82 1.63-1 1.65-1.7s-2.15-1.89-2.86-1.3 0.3 1.93-0.51 2.7a1.25 1.25 0 0 1 -1.06 0.34c-0.88-0.18-0.67-1.51-1.81-2.37-0.92-0.69-1.73-0.35-2-1a1.39 1.39 0 0 1 0.79 -1.69c0.42 0 0.65 0.58 1.12 0.5a0.8 0.8 0 0 0 0.63 -0.69c0-0.78-2-1-2.09-1.94-0.07-0.55 0.5-0.9 0.29-1.39a1.09 1.09 0 0 0 -0.73 -0.53h2.22a2.47 2.47 0 0 0 0.09 0.69c0.23 0.8 0.81 1.25 1.66 1.91 2.15 1.67 2 1.58 2.13 1.66a12.72 12.72 0 0 0 3.81 1.94c0.34 0.08 1.08 0.25 1.16 0.65s-0.31 0.5-0.25 0.85c0.08 0.5 0.94 0.64 0.91 0.84s-1.18-0.07-2.16 0.5-0.84 1.22-1.49 1.31z"/><path d="m258.09 80.5a1.87 1.87 0 0 0 -1.5 -0.69c-0.15 0-0.37 0.1-0.84 0.53-1 0.95-1.18 1.66-1.56 1.64s-0.44-0.63-0.91-1.36a5 5 0 0 0 -1.84 -1.62h6.41l1.41 1.42c2 2 2.16 2.23 2.13 2.28s-0.71-0.32-3.3-2.2z"/><path d="m264.75 83.84c0.37-0.25 1 0.11 1.31 0.47a1.69 1.69 0 0 1 0.34 1.34 1.49 1.49 0 0 1 -1.72 -0.47c-0.26-0.41-0.28-1.1 0.07-1.34z"/><path d="m271 92.87a3.13 3.13 0 0 0 -0.72 -2.25c-0.23-0.24-0.38-0.3-1-0.84a12.86 12.86 0 0 1 -1 -1c-0.46-0.54-1.23-1.55-1.09-1.69s0.69 0.6 2.07 1.32a3.78 3.78 0 0 1 1.12 0.75 3.24 3.24 0 0 1 0.62 0.84z"/><path d="m206.58 256c0.3-0.08 0.49 0.35 1 0.5 0.89 0.26 1.51-1 2.21-0.83s0.78 1 0.94 1.55c0.67 2.21 1.52 2.11 3 4.95 0.15 0.28 2.57 4.94 1.6 5.7-0.61 0.47-2.76-0.46-3.93-1.95-0.53-0.67-0.7-1.26-1.25-1.33s-0.83 0.47-2 1.25c-1 0.63-1.6 1-2 0.83s0-1.36-0.17-4c0 0-0.08-1.72 0.08-4.75 0.02-0.76 0.09-1.8 0.52-1.92z"/></g><g><path d="m221.25 272a1.22 1.22 0 0 0 0.25 -0.58 1.45 1.45 0 0 0 -0.37 -1.08c-0.3-0.35-0.5-0.28-0.67-0.58s0-0.46-0.08-0.92a2.66 2.66 0 0 0 -1 -1.54 6.54 6.54 0 0 1 -0.67 -0.46 3.72 3.72 0 0 1 -0.63 -0.79c-0.46-0.7-0.5-0.86-0.74-1.21a5.78 5.78 0 0 0 -1 -1c-1-0.94-0.9-1.35-2.29-3.12-0.48-0.62-0.88-1-1.21-1.42a31.22 31.22 0 0 0 -2.21 -2.21l2.88 1.83a14.79 14.79 0 0 0 2.13 1.29 6.71 6.71 0 0 1 1.58 0.79 3.1 3.1 0 0 1 1 1c0.41 0.7 0.09 1 0.45 1.57s0.87 0.44 1.42 1.18a12.19 12.19 0 0 1 0.58 1.25 5.79 5.79 0 0 0 0.79 1.29 4.14 4.14 0 0 0 0.75 0.67c1.43 1 1.68 1.67 3.29 2.83a16.35 16.35 0 0 0 1.74 1.1l3.71 0.2c-1-2.3-1.68-2.81-2.08-2.75a1.4 1.4 0 0 1 -0.58 0.08 1.14 1.14 0 0 1 -0.87 -0.75c-0.1-0.31-0.1-0.81 0.17-1 0.72-0.5 2.88 1.7 3.21 1.38 0.11-0.1 0-0.42-0.25-0.87a5 5 0 0 0 -0.87 -1.29c-0.41-0.45-0.55-0.46-1.08-1s-0.65-0.71-0.58-0.83 0.72-0.06 1.2 0.17a4.21 4.21 0 0 1 1.83 2c0.45 0.91 0.34 1.24 0.75 1.5 0.57 0.36 1-0.14 1.88 0s1 0.66 2 1.79a24.83 24.83 0 0 0 2.08 2z" fill="#191917"/><path d="m206.5 258.17a2 2 0 0 1 0.7 -0.34 1.1 1.1 0 0 1 1.63 1.14c0 0.45-0.07 0.59 0 0.71 0.27 0.29 1.06-0.34 1.45-0.09 0.23 0.15 0.36 0.63 0 2a0.8 0.8 0 0 1 -0.37 0.21 1.43 1.43 0 0 1 -1.33 -0.83c-0.34-0.62 0-1-0.37-1.42a1.87 1.87 0 0 0 -1 -0.54c-0.43-0.08-0.7 0-0.83-0.12s0.01-0.5 0.12-0.72z" fill="#191917"/><path d="m211.71 263.29a0.51 0.51 0 0 1 0.29 -0.29c0.35 0 0.61 0.62 1.15 1.47 1 1.53 1.89 2.15 1.64 2.62a0.48 0.48 0 0 1 -0.25 0.21c-0.08 0.11-0.27 0.32-0.46 0.29s-0.29-0.27-0.34-0.37a9.33 9.33 0 0 0 -1.37 -2c-0.51-0.56-0.85-0.64-0.92-1.08a1.25 1.25 0 0 1 0.26 -0.85z" fill="#191917"/><path d="m216 265.83a0.63 0.63 0 0 1 0.5 -0.25c0.37 0 0.74 0.6 0.75 1.46a0.74 0.74 0 0 1 -0.48 0.09c-0.38-0.13-0.72-0.6-0.77-1.3z" fill="#191917"/><path d="m224.33 263.92a0.87 0.87 0 0 1 0.86 -0.12c0.32 0.2 0.43 0.88 0 1.49a0.86 0.86 0 0 1 -1.17 -0.42 0.84 0.84 0 0 1 0.31 -0.95z" fill="#191917"/><path d="m225.47 267.79a0.88 0.88 0 0 0 -0.64 0.38 0.87 0.87 0 0 0 0.08 1c0.76-0.32 1.18-0.76 1.11-1-0.02-0.08-0.07-0.27-0.55-0.38z" fill="#191917"/><path d="m216.46 269.63a0.57 0.57 0 0 0 0.09 0.84 0.57 0.57 0 0 0 0.8 -0.2c0.03-0.19-0.35-0.44-0.89-0.64z" fill="#191917"/><path d="m230.63 234.56a0.62 0.62 0 0 1 0.75 -0.12c0.27 0.15 0.28 0.5 0.38 0.81 0.37 1.19 1.85 1.12 2.5 2.44a2.56 2.56 0 0 1 0.25 1c-0.64-0.44-1.21-0.84-1.69-1.19a5.61 5.61 0 0 1 -2.12 -2.19c-0.2-0.44-0.16-0.63-0.07-0.75z" fill="#191917"/><path d="m239.31 241.63c0.31 0.19 1.49 1 1.56 1.88a0.63 0.63 0 0 1 -0.12 0.5c-0.23 0.22-0.7 0.1-0.94 0-0.54-0.36-0.72-1.29-0.5-2.38z" fill="#191917"/><path d="m232.31 247.25c0-0.31 0.5-0.51 0.81-0.56 0.62-0.11 1.37 0.23 1.38 0.56s-0.78 0.78-1.44 0.63c-0.33-0.08-0.76-0.33-0.75-0.63z" fill="#191917"/><path d="m246.88 248.63a1.33 1.33 0 0 1 1.1 -0.21c0.58 0.25 0.91 1.35 0.4 2.65a5.33 5.33 0 0 0 -0.94 -0.69c-0.41-0.24-0.62-0.29-0.75-0.5s-0.18-0.56 0.19-1.25z" fill="#191917"/><path d="m252.5 248.94c0.35 0.11 0.44 0.8 0.38 1.25a1.85 1.85 0 0 1 -0.5 1 1.2 1.2 0 0 1 -1.37 -0.5c-0.17-0.45 0.32-0.95 0.63-1.25s0.57-0.59 0.86-0.5z" fill="#191917"/><path d="m252.63 244.88c0.34-0.15 0.68-0.22 0.88-0.06s0.06 0.61 0.31 0.81 0.85-0.12 0.94 0-0.09 0.33-0.87 1a1.73 1.73 0 0 0 -0.44 -0.48c-0.57-0.42-1.15-0.28-1.26-0.54s-0.02-0.3 0.44-0.73z" fill="#191917"/><path d="m251.58 252.46c-0.64 0.26-1 0.68-0.87 0.92s0.56 0.29 0.63 0.29a0.71 0.71 0 0 0 0.25 -0.21 1 1 0 0 0 -0.01 -1z" fill="#191917"/><path d="m253.71 255.25a0.67 0.67 0 0 1 1.05 0.67 0.62278 0.62278 0 1 1 -1.05 -0.67z" fill="#191917"/><path d="m258.21 245.79a1.19 1.19 0 0 0 0.38 0.75c0.55 0.47 1.56 0.25 1.67-0.08a0.48 0.48 0 0 0 -0.26 -0.46c-0.25-0.19-0.48 0-0.79-0.17s-0.26-0.42-0.46-0.46-0.25 0.03-0.54 0.42z" fill="#191917"/><path d="m259.92 250.83c0.25-0.17 0.66 0 0.88 0.2 0.42 0.32 0.26 0.61 0.66 1.09s0.7 0.38 1 0.88c0.15 0.25 0.32 0.68 0.17 0.83s-1-0.24-1-0.29c-0.37-0.23-0.38-0.35-1.08-1.08-0.55-0.57-0.78-0.74-0.79-1.08a0.66 0.66 0 0 1 0.16 -0.55z" fill="#191917"/><path d="m260.88 255.12c0.14-0.58 0.28-0.7 0.38-0.71s0.26 0.51 0.87 1.71a2.93 2.93 0 0 1 0.38 1.16 2.54 2.54 0 0 1 0 0.42c-0.31 0.09-0.71 0.16-0.92 0s-0.11-0.53-0.12-1a3 3 0 0 0 -0.59 -1.58z" fill="#191917"/><path d="m264.13 247.83c-0.1 0.07 0.1 0.79 0.67 1.21 0.37 0.28 0.61 0.2 1 0.38s0.68 0.45 1.38 1.75 0.59 1.42 1.17 2.46a8.85 8.85 0 0 0 1.33 1.88 7.47 7.47 0 0 0 1.21 1c0.78 0.55 1.74 1.68 2.54 4.25v-4.54a22 22 0 0 0 -2 -2.13c-1-0.93-1.35-1.08-1.67-1.14-0.6-0.13-1 0.05-1.25-0.23s0-0.65-0.08-1.33a4.25 4.25 0 0 0 -1.08 -1.71c-0.58-0.71-0.88-1.07-1.29-1.17s-0.55 0.06-1-0.08-0.85-0.66-0.93-0.6z" fill="#191917"/><path d="m265 256.79c0-0.22 0.07-0.71 0.25-0.75s0.68 0.91 0.79 1.15c0.34 0.79 0.24 1 0.51 1.22 0.49 0.44 1.1 0 1.42 0.42s-0.26 1.37 0.08 1.67 0.67-0.23 1.23-0.05a1.37 1.37 0 0 1 0.91 1.51c-0.08 0.28-0.33 0.63-0.64 0.66s-0.47-0.34-1.25-0.79c-0.32-0.18-0.64-0.36-0.82-0.24s0 0.46-0.27 0.78c0 0-0.21 0.27-0.41 0.26s-0.58-0.53-0.63-1 0.15-0.66 0-0.86-0.48-0.07-1-0.2a1.9 1.9 0 0 1 -1.29 -1 1.12 1.12 0 0 1 0.17 -1.08c0.32-0.31 0.74-0.05 1-0.33s-0.05-0.6-0.05-1.37z" fill="#191917"/><path d="m263 261.13a0.69 0.69 0 0 1 0.5 -0.25c0.46 0 0.95 0.7 1.08 1.76-0.15 0.17-0.46 0.47-0.78 0.43s-0.95-0.84-0.8-1.94z" fill="#191917"/><path d="m267.54 263.79c0.18-0.22 0.7-0.19 1 0s0.25 0.76 0.75 1.5c0.39 0.57 0.71 0.6 0.79 1s-0.11 0.94-0.35 1-0.36-0.84-1.32-1.77a2.87 2.87 0 0 1 -0.87 -1.08c-0.02-0.11-0.15-0.44 0-0.65z" fill="#191917"/><path d="m268.92 100.21c-0.21 0.11-0.19 0.89 0.21 1.42s0.61 0.33 1.58 0.83 1.26 0.85 1.38 0.75-0.13-0.74-0.58-1.17-0.73-0.25-1.25-0.75a6.29 6.29 0 0 0 -0.86 -0.86c-0.4-0.27-0.46-0.23-0.48-0.22z" fill="#191917"/><path d="m270.79 97.83c-0.58-0.07-0.86-0.81-0.71-1s1.5 0.2 1.5 0.58c0 0.23-0.41 0.47-0.79 0.42z" fill="#191917"/><path d="m265.13 92.92c0.49-0.13 0.87 0 0.92 0.27s-0.18 0.41-0.21 0.44a0.61 0.61 0 0 1 -0.83 -0.21 0.58 0.58 0 0 1 0.12 -0.5z" fill="#191917"/><path d="m263.25 99.71a0.56 0.56 0 0 0 -0.25 1.08 0.64 0.64 0 0 0 0.54 -0.62 0.63 0.63 0 0 0 -0.29 -0.46z" fill="#191917"/><path d="m244 78.93c-0.18 0.11-0.47 0.34-0.46 0.61s0.32 0.46 0.65 0.67c1 0.67 1.47 1.24 2.81 2 0.13 0.07 0.39 0.22 0.5 0.13s0-0.44 0-0.54c-0.4-1.06-1.41-1-2.08-2.08-0.19-0.32-0.31-0.65-0.67-0.79a1.06 1.06 0 0 0 -0.75 0z" fill="#191917"/><path d="m253 85.17a1.39 1.39 0 0 1 1 -0.17c0.36 0.08 0.79 0.35 0.75 0.54s-0.69 0.41-1.17 0.17a1.1 1.1 0 0 1 -0.58 -0.54z" fill="#191917"/><path d="m256.33 87.29a2 2 0 0 1 1.21 -0.54 1.92 1.92 0 0 1 1 0.21 1.26 1.26 0 0 1 -2.21 0.33z" fill="#191917"/><path d="m255 88.29 0.67-0.33s0.26 0.51 0.46 0.83a5.32 5.32 0 0 0 0.71 0.92 1.2 1.2 0 0 1 -0.91 0.24 1.45 1.45 0 0 1 -0.93 -1.66z" fill="#191917"/><path d="m214.51 215.24a1 1 0 0 1 1.14 0.63 0.91 0.91 0 0 1 -0.5 1c-0.67 0.32-1.69-0.45-1.62-0.95s0.86-0.65 0.98-0.68z"/></g><path d="m136.25 239.63a29.25 29.25 0 0 0 3.56 2.56 29.67 29.67 0 0 0 5.69 2.69c11.11 4 16 5.49 20.88 7.75a47.44 47.44 0 0 1 9.63 5.44c2.77 2.08 9 6.89 12.31 15.44a31.38 31.38 0 0 1 1.81 7h2.13a21.75 21.75 0 0 0 -1.12 -4.94 23.26 23.26 0 0 0 -3.87 -6.76 55.7 55.7 0 0 0 -10.27 -10.87c-10.38-8.06-17.53-6.5-36.9-16.31-1.71-0.85-3.04-1.57-3.85-2z" fill="#191917"/><path d="m302.88 189.75c-5.54-7.4-11.85-15.09-19-22.87q-4.78-5.2-9.5-9.87v-16.01l-14.28-6.93a16 16 0 0 0 7.15 -7.45c2.63-5.93 1.06-13.36-4-18.91a35.34 35.34 0 0 1 -35.53 10.66 159.11 159.11 0 0 0 15.14 -12.09 159.13 159.13 0 0 0 15.68 -16.28 202 202 0 0 0 -47 9.73 62.64 62.64 0 0 0 -6.37 -1.7c-6.42-1.36-7.8-0.59-13.12-1.87-4.16-1-8.18-2-10.62-5.37-0.58-0.8-0.56-1-2-3.25a65.29 65.29 0 0 0 -4.35 -6c-3.23-3.76-7.64-5.32-10.71-6.4-5.13-1.82-9.45-1.93-14.48-2.06a71.84 71.84 0 0 0 -8.21 0.25c0.86 0.37 2.12 0.91 3.68 1.51 4.19 1.61 5 1.57 6.69 2.37a16.23 16.23 0 0 1 6.63 6.25c2 3.26 1.38 4.76 3.11 8.76a25.45 25.45 0 0 0 5.18 7.62 98.78 98.78 0 0 0 -12.42 -0.42 71.29 71.29 0 0 1 -8.33 0.11 49.67 49.67 0 0 1 -8.94 -1.52 107.31 107.31 0 0 1 -18.9 -6.16 81.92 81.92 0 0 1 -16.42 -9.08c-6.55-4.83-6.96-6.77-11.38-9.77-4.28-2.92-11.21-6.11-22.33-6.25a35.67 35.67 0 0 1 7.08 5.58c1.4 1.42 4.08 4.41 8.67 13.17 2.82 5.39 2.67 5.92 4.58 9.58 3.14 6 7 13.39 14.33 18.42 3.88 2.66 8 3.94 16.33 6.5s13.3 3.11 13.25 4.17c-0.05 1.23-6.76 2.22-12.5 2.17-2.92 0-15-0.14-23.35-7.05-1.23-1-3.19-2.85-4.69-4.33-3.63-3.58-5.34-5.81-6.46-7-2.48-2.53-7.23-5-17.25-4.37a50.45 50.45 0 0 1 6.23 4.41 25.77 25.77 0 0 1 4.78 4.61 25.36 25.36 0 0 1 3.41 6.53c1.31 3.28 1.1 3.95 2.09 6.3a17 17 0 0 0 4.5 6.83 15 15 0 0 0 3.83 2.25c5.34 2.6 8.3 7.84 9.75 10.42a30.21 30.21 0 0 1 3.79 15.83 35.89 35.89 0 0 0 -10.85 -4.59c-2.84-0.66-5.83-1-9.1-3.24a28.83 28.83 0 0 1 -3.17 -2.67c-3.39-3.19-3.11-4.05-5.08-5.33-1.67-1.08-3.42-1.36-6.92-1.92a40.9 40.9 0 0 0 -5.62 -0.5c3.33 1.07 8 3.19 9.38 7.36a8.41 8.41 0 0 1 0.41 2.81c0 9.49-0.82 19.37-0.55 27.08a48.85 48.85 0 0 0 0.86 8.59c0.36 1.77 0.69 2.56 1 4.91 0.24 1.65 0.56 3.28 0.83 4.92 0.72 4.27 2 4.79 6 14.17a27.16 27.16 0 0 0 3.42 5.92 49.06 49.06 0 0 0 3.7 4.63c5.64 6.16 24.46 19.92 33.3 26.62 0 0 5.87 4.45 16.25 13.75a48.87 48.87 0 0 1 5.17 5.25 44.36 44.36 0 0 1 3.66 4.74c1.28 2 2.32 4 4.75 5.4 0.28 0.16 0.52 0.28 0.68 0.36 0-0.18 0.07-0.41 0.11-0.62l-0.28-0.17a49.44 49.44 0 0 1 -3.29 -3.83c-0.58-0.76-1.51-1.95-2.58-3.62a25.82 25.82 0 0 0 -1.83 -2.79 11.86 11.86 0 0 0 -2.75 -2.42l0.33-1.42c0.13 0 0.33 0.13 0.57 0.25a9.57 9.57 0 0 1 4 4 72.67 72.67 0 0 0 6.05 8.16 17.83 17.83 0 0 0 0 -2.52 20.64 20.64 0 0 0 -3.83 -10.17c-4.93-7.41-10.19-9.55-15.92-15.92a42.2 42.2 0 0 1 -4.65 -5.79 17.36 17.36 0 0 0 -1.77 -2.62c-1.17-1.33-2.14-1.82-2.85-3.37a4 4 0 0 1 -0.44 -1.44 8.4 8.4 0 0 0 0.81 1.25 3.86 3.86 0 0 0 1.31 0.94 22.66 22.66 0 0 1 -0.75 -8.37 42.32 42.32 0 0 0 3.08 3.75 40.28 40.28 0 0 0 9.08 7.42 37.41 37.41 0 0 0 9.17 3.58c13.08 3.85 20.16 5.94 26.62 10.14a43.93 43.93 0 0 1 8.92 7.73c0-0.47 0.14-1 0.46-1.12 1.22-0.47 4.91 5.1 6.83 10.25a31.48 31.48 0 0 1 2 10.25h12.13l0.25-4.25c-0.11-11.12 0.14-22.94 0.88-35.37 0.88-15 2.37-29 4.21-42l-34.71 11.5a55.63 55.63 0 0 1 -18.62 -21c-2.32-4.65-4.54-9.1-4.62-15.25-0.11-8.55 3.89-14.94 11.63-27.25 3.83-6.09 8.21-12 8.5-11.83s-1.21 2.41-3 5.79a146.14 146.14 0 0 0 -6.29 14.25c-3.68 9.85-5.5 14.76-4.33 19.85 1 4.08 3.14 6.7 7.08 11.42a62.82 62.82 0 0 0 12.25 11.25c10.13-2.36 17.81-4.2 22.33-5.29 10.31-2.49 15.06-3.69 18.15-1 1.77 1.54 2.32 4.44 3.35 10.17a93 93 0 0 1 1.42 13.25 77.3 77.3 0 0 0 29.25 8.08 20.78 20.78 0 0 0 7.62 8.93 21.48 21.48 0 0 0 8.38 2.94 46.85 46.85 0 0 0 22 -2l8 3.78 9.63-9.65 2.71-36.2zm-201.38 41.08c-0.28 0.27-3.61-2.83-5.42-4.5-3.44-3.19-1.82-2-2.83-2.87-0.79-0.65-1.79-1.36-1.67-2.12a1 1 0 0 1 0.29 -0.54 0.77 0.77 0 0 1 0.3 -0.08c0.7 0 1.25 1 1.45 1.33a20.06 20.06 0 0 0 2.75 3.47c1.75 1.93 3.83 2.82 5 4.9 0.08 0.14 0.19 0.35 0.13 0.41zm6.71 5.25s-0.12 0-0.79-0.46c-1.11-0.8-1.66-1.2-1.58-1.37s0.87-0.16 1.46 0.21c0.77 0.49 1.08 1.54 0.91 1.62zm10.89 8.1c-0.11 0.14-0.4 0.14-0.72 0-0.58-0.4-1.05-0.74-1.37-1-0.93-0.68-1.22-0.94-2.19-1.65s-0.85-0.58-1.31-0.94c-1.46-1.15-1.32-1.42-2.16-1.87a2.72 2.72 0 0 1 -1 -0.78 2.42 2.42 0 0 1 -0.29 -0.51 3.12 3.12 0 0 1 1 0.13 3.4 3.4 0 0 1 1.42 0.88c0.53 0.52 0.48 0.74 1 1.25a5.65 5.65 0 0 0 1.42 1c1 0.62 2 1.31 3 1.92a2.4 2.4 0 0 1 1.08 1c0.12 0.18 0.23 0.39 0.11 0.58zm23.9 18.53a6 6 0 0 1 0.5 0.67l-0.37 1.42a17.48 17.48 0 0 1 -2.63 -3.8 6.42 6.42 0 0 1 2.5 1.71zm-10.17-8.25c0.76-0.08 1.24 0.59 2.29 1.54 1.78 1.6 2.46 1.52 3 2.67a4 4 0 0 1 0.38 1.67l-6.42-5.54a1.46 1.46 0 0 1 0.75 -0.34zm-5.25-4.5s3 1.8 3.42 3.17a4 4 0 0 1 0.15 0.75v0.34a25.51 25.51 0 0 0 -3 -2.5 30.24 30.24 0 0 1 -2.58 -1.79c-0.85-0.71-1-1-2.21-2-0.77-0.62-1.16-0.93-1.4-1.08-0.79-0.48-1.28-0.6-1.43-1a1.33 1.33 0 0 1 0.25 -1.08 1.43 1.43 0 0 1 0.72 0.22c0.34 0.22 0.41 0.51 0.62 0.82 0.34 0.51 0.7 0.55 1.31 1a8.1 8.1 0 0 1 1.44 1.52c0.69 0.67 0.92 0.55 2.71 1.67z" fill="#191917"/><path d="m75 196.75a3.69 3.69 0 0 1 0.79 0.92 3.64 3.64 0 0 1 0.27 0.53c0.48-2.27 0.66-2.75 0.73-2.74a26.27 26.27 0 0 0 0.17 4 16.59 16.59 0 0 0 0.54 2.13 35.48 35.48 0 0 0 1.48 4 12.35 12.35 0 0 1 -1.56 -2.44 30 30 0 0 1 -1.25 -3.32c-0.17-0.69-0.6-1.77-1.17-3.08z" fill="#191917"/><path d="m74.63 189.86c0.12-0.75 0.2-0.89 0.26-0.89s0.06 1.37 0.44 3.38a20.41 20.41 0 0 1 0.56 3.33v0.75q-0.16-0.26-0.31-0.55a11.65 11.65 0 0 1 -0.95 -6.02z" fill="#191917"/><g fill="#7b8e9d"><path d="m182.5 117.33 34.58 10.58 23.5 23.92-18.9-1.66-13-5.34a13 13 0 0 0 0.17 -8.92c-1.68-4.22-5.63-5.66-13-9.92a152.37 152.37 0 0 1 -13.35 -8.66z"/><path d="m220.75 117.83 24.67-19.75a37 37 0 0 0 -11.67 2.08c-3.56 1.26-8.35 2.95-12.17 7.58a21.57 21.57 0 0 0 -4.08 7.92z"/><polygon points="280.67 199.33 289 197.08 293.42 207.25"/></g><g fill="#fff"><path d="m68.5 47.25a29.14 29.14 0 0 1 11.83 -1.08c3 0.35 7.57 0.89 11.58 4.08 1.48 1.18 1.59 1.69 5.83 6.33 2.09 2.29 3.85 4.11 5 5.29a20.12 20.12 0 0 1 -10.83 -2.71c-2.32-1.41-2.39-2.22-6-4.82a39.19 39.19 0 0 0 -8.55 -4.84 35.09 35.09 0 0 0 -8.86 -2.25z"/><path d="m97.69 190.69c0.2-0.11 0.77 0.84 1.94 1.94a14.43 14.43 0 0 0 3.13 2.19 93.63 93.63 0 0 0 13.56 6.13c9.37 3.23 14.05 4.84 17 7.38a28.68 28.68 0 0 1 8.68 13.86c0.19 0.81 0.46 2.4 0.61 3.36 0.35 2.23 0.75 4.76 0.33 4.89-0.27 0.08-0.76-0.84-1.06-1.37-1.14-2-2.67-3.23-5.74-5.77-4.92-4.07-12.93-8.29-14.13-8.91-9.4-4.87-10.45-4.44-13.81-7.44a41.57 41.57 0 0 1 -6.95 -8.12 29.52 29.52 0 0 1 -2.55 -4.88c-0.19-0.41-1.34-3.08-1.01-3.26z"/><path d="m227.94 124.59 42.73 23.07-6.33 10.83 36.66 35.68 10.33-3.49-2.71 36.2-10-27.54-7-11.52-7 1.84-34.41-30.91a12.06 12.06 0 0 0 3.72 -7.5c0.19-3.1-1.19-6.32-7.44-12.5a92 92 0 0 0 -18.55 -14.16z"/><path d="m239 109.63 8.06 6.75a18.34 18.34 0 0 1 2.69 7.69 18.13 18.13 0 0 1 -0.23 5.44l-21.77-11.13z"/><polygon points="237.9 149.1 227.27 138.29 215.25 135.19 221.44 146.5"/></g></g></svg>