<?xml version="1.0" encoding="utf-8"?>
<!-- Generator: Adobe Illustrator 16.0.0, SVG Export Plug-In . SVG Version: 6.00 Build 0)  -->
<!DOCTYPE svg PUBLIC "-//W3C//DTD SVG 1.1//EN" "http://www.w3.org/Graphics/SVG/1.1/DTD/svg11.dtd">
<svg version="1.1" id="Layer_2" xmlns="http://www.w3.org/2000/svg" xmlns:xlink="http://www.w3.org/1999/xlink" x="0px" y="0px"
	 width="512px" height="512px" viewBox="0 0 512 512" enable-background="new 0 0 512 512" xml:space="preserve">
<g>
	<rect x="12.594" y="25.632" fill="#FFFFFF" stroke="#000000" stroke-miterlimit="10" width="486.812" height="486.368"/>
	<rect x="32.519" y="46.222" stroke="#000000" stroke-miterlimit="10" width="447.867" height="446.104"/>
	<rect x="51.539" y="65.438" fill="#406181" width="409.375" height="406.756"/>
	<path fill="#FFFFFF" stroke="#000000" stroke-miterlimit="10" d="M256.929,0.467c0,0,64.981,45.299,184.081,52.625l-0.002,59.48
		c0,0,8.14,312.504-184.55,354.133h-0.006C63.765,425.069,71.917,112.565,71.917,112.565v-59.48C191.017,45.764,256,0.467,256,0.467
		H256.929z"/>
	<path stroke="#000000" stroke-miterlimit="10" d="M257.041,13.119c0,0,60.729,42.692,172.039,49.596l-0.002,56.058
		c0,0,7.607,294.517-172.478,333.748h-0.005C76.513,413.28,84.131,118.765,84.131,118.765V62.708
		c111.308-6.9,172.041-49.589,172.041-49.589H257.041z"/>
	<path fill="#FFFFFF" stroke="#000000" stroke-miterlimit="10" d="M256.795,25.632c0,0,58.208,40.499,164.887,47.047l-0.001,53.176
		c0,0,7.292,279.384-165.308,316.599h-0.004C83.771,405.231,91.073,125.85,91.073,125.85V72.673
		c106.682-6.545,164.89-47.041,164.89-47.041H256.795z"/>
	<polygon stroke="#000000" stroke-miterlimit="10" points="256.227,348.201 246.264,131.871 266.642,131.871 	"/>
	<path stroke="#000000" stroke-miterlimit="10" d="M323.7,132.337c0,7.217,1.352,5.851-5.79,5.851H194.542
		c-7.143,0-5.79,1.367-5.79-5.851V98.284c0-7.217-1.353-5.85,5.79-5.85H317.91c7.142,0,5.79-1.367,5.79,5.85V132.337z"/>
	<path fill="#FFFFFF" stroke="#000000" stroke-miterlimit="10" d="M318.266,127.579c0,5.204,1.239,4.218-5.305,4.218H199.935
		c-6.543,0-5.305,0.986-5.305-4.218v-24.55c0-5.204-1.239-4.218,5.305-4.218h113.026c6.544,0,5.305-0.986,5.305,4.218V127.579z"/>
	<path stroke="#000000" stroke-miterlimit="10" d="M305.153,117.713c0,1.024,0.976,0.831-4.18,0.831H211.94
		c-5.155,0-4.178,0.193-4.178-0.831v-4.834c0-1.025-0.977-0.831,4.178-0.831h89.034c5.155,0,4.18-0.194,4.18,0.831V117.713z"/>
	<ellipse stroke="#000000" stroke-miterlimit="10" cx="113.579" cy="95.636" rx="12.68" ry="12.812"/>
	<ellipse fill="#FFFFFF" stroke="#000000" stroke-miterlimit="10" cx="113.579" cy="95.636" rx="8.614" ry="8.703"/>
	<ellipse stroke="#000000" stroke-miterlimit="10" cx="398.873" cy="95.636" rx="12.68" ry="12.812"/>
	<ellipse fill="#FFFFFF" stroke="#000000" stroke-miterlimit="10" cx="398.874" cy="95.636" rx="8.614" ry="8.702"/>
	<ellipse stroke="#000000" stroke-miterlimit="10" cx="256" cy="49.883" rx="12.68" ry="12.811"/>
	<ellipse fill="#FFFFFF" stroke="#000000" stroke-miterlimit="10" cx="256" cy="49.883" rx="8.614" ry="8.702"/>
	<ellipse stroke="#000000" stroke-miterlimit="10" cx="256" cy="417.748" rx="12.679" ry="12.811"/>
	<ellipse fill="#FFFFFF" stroke="#000000" stroke-miterlimit="10" cx="256" cy="417.748" rx="8.613" ry="8.701"/>
	<ellipse stroke="#000000" stroke-miterlimit="10" cx="119.919" cy="186.687" rx="12.68" ry="12.812"/>
	<ellipse fill="#FFFFFF" stroke="#000000" stroke-miterlimit="10" cx="119.918" cy="186.687" rx="8.613" ry="8.702"/>
	<ellipse stroke="#000000" stroke-miterlimit="10" cx="392.533" cy="186.687" rx="12.68" ry="12.812"/>
	<ellipse fill="#FFFFFF" stroke="#000000" stroke-miterlimit="10" cx="392.533" cy="186.687" rx="8.613" ry="8.702"/>
	<ellipse stroke="#000000" stroke-miterlimit="10" cx="128.532" cy="280.749" rx="12.68" ry="12.811"/>
	<ellipse fill="#FFFFFF" stroke="#000000" stroke-miterlimit="10" cx="128.532" cy="280.749" rx="8.614" ry="8.701"/>
	<ellipse stroke="#000000" stroke-miterlimit="10" cx="383.919" cy="280.749" rx="12.681" ry="12.811"/>
	<ellipse fill="#FFFFFF" stroke="#000000" stroke-miterlimit="10" cx="383.919" cy="280.749" rx="8.613" ry="8.701"/>
	<ellipse stroke="#000000" stroke-miterlimit="10" cx="175.97" cy="361.011" rx="12.68" ry="12.812"/>
	<ellipse fill="#FFFFFF" stroke="#000000" stroke-miterlimit="10" cx="175.97" cy="361.011" rx="8.613" ry="8.702"/>
	<ellipse stroke="#000000" stroke-miterlimit="10" cx="336.484" cy="361.011" rx="12.679" ry="12.812"/>
	<ellipse fill="#FFFFFF" stroke="#000000" stroke-miterlimit="10" cx="336.483" cy="361.011" rx="8.614" ry="8.702"/>
</g>
</svg>
