<?xml version="1.0" encoding="utf-8"?>
<!-- Generator: Adobe Illustrator 16.0.0, SVG Export Plug-In . SVG Version: 6.00 Build 0)  -->
<!DOCTYPE svg PUBLIC "-//W3C//DTD SVG 1.1//EN" "http://www.w3.org/Graphics/SVG/1.1/DTD/svg11.dtd">
<svg version="1.1" id="Layer_2" xmlns="http://www.w3.org/2000/svg" xmlns:xlink="http://www.w3.org/1999/xlink" x="0px" y="0px"
	 width="512px" height="512px" viewBox="0 0 512 512" enable-background="new 0 0 512 512" xml:space="preserve">
<g>
	<polygon fill="#FFFFFF" stroke="#000000" stroke-miterlimit="10" points="463.916,419.253 486.965,479.344 43.166,479.344 
		25.983,419.673 7.125,419.253 1.336,382.694 1.333,333.949 12.573,328.487 12.573,304.535 55.738,207.885 67.052,207.465 
		73.339,162.923 67.891,124.263 43.166,124.263 12.573,32.656 457.211,32.656 481.517,123.843 503.312,123.573 512,161.661 
		504.985,208.306 494.089,208.306 451.343,312.519 451.763,329.328 440.447,328.907 440.447,362.104 453.02,419.253 	"/>
	<polygon stroke="#000000" stroke-miterlimit="10" points="457.211,460.855 55.318,460.855 43.584,419.253 31.851,418.834 
		19.278,370.089 19.278,333.949 31.851,328.487 31.851,304.535 73.757,213.769 85.073,213.769 91.59,164.179 88.007,124.263 
		62.443,124.263 43.166,51.145 445.477,51.145 464.334,123.843 487.803,123.843 494.089,162.082 487.803,208.726 477.326,208.726 
		434.58,312.1 434.58,329.328 422.847,329.328 422.847,362.524 432.084,419.345 445.895,419.673 	"/>
	<polygon fill="#8F707A" points="434.161,449.508 67.052,449.508 58.674,420.042 49.354,419.985 37.298,370.929 37.298,333.949 
		49.452,328.907 49.033,305.375 90.565,219.28 101.836,219.652 110.033,165.032 104.35,124.263 85.073,124.263 67.052,63.332 
		434.161,63.332 446.734,123.843 470.202,123.843 476.487,159.981 468.944,208.726 459.306,208.726 416.141,307.477 416.56,329.748 
		404.825,329.328 404.591,360.836 415.145,419.205 427.456,419.673 	"/>
	<path stroke="#000000" stroke-miterlimit="10" d="M247.301,97.363c64.957-0.41,84.226,50.438,84.226,50.438
		c5.028,0.842,12.152,6.726,12.152,6.726c51.956,61.358-0.437,114.298-0.437,114.298l0.416,18.489
		c44.422,4.209,46.51,52.954,46.51,52.954c-1.689,90.767-68.742,84.874-68.742,84.874c-14.668,5.04-54.055-30.686-54.055-30.686
		l-20.118,12.605v0.005l-20.116-12.606c0,0-39.393,35.718-54.061,30.675c0,0-67.052,5.885-68.728-84.883
		c0,0,2.095-48.745,46.518-52.946l0.419-18.49c0,0-52.385-52.947-0.419-114.299c0,0,7.124-5.883,12.153-6.723
		c0,0,19.277-50.845,84.234-50.426L247.301,97.363z"/>
	<path fill="#FFFFFF" stroke="#000000" stroke-miterlimit="10" d="M247.274,400.495l20.539-17.231l25.984,17.229
		c-11.319-78.999,51.122-100.014,51.122-100.014c-4.19-10.925-7.962-8.403-7.962-8.403l-0.002-30.434
		c25.98-23.289,23.885-53.61,23.885-53.61c-4.194-51.686-36.043-54.627-36.043-54.627c-24.728-54.207-77.536-47.06-77.536-47.06
		l-0.001-0.151c0,0-52.809-7.144-77.534,47.064c0,0-31.85,2.942-36.04,54.628c0,0-2.095,30.322,23.887,53.61v30.433
		c0,0-3.772-2.521-7.962,8.405c0,0,62.441,21.011,51.126,100.011l25.983-17.229l20.54,17.229L247.274,400.495z"/>
	<path fill="#FFFFFF" stroke="#000000" stroke-miterlimit="10" d="M189.861,347.41c12.973,30.15,7.823,61.371-11.505,69.733
		c-19.327,8.36-45.512-9.306-58.484-39.457c-12.972-30.149-7.82-61.37,11.507-69.73C150.705,299.594,176.889,317.26,189.861,347.41z
		"/>
	<path fill="#FFFFFF" stroke="#000000" stroke-miterlimit="10" d="M303.741,347.414c-12.971,30.153-7.816,61.373,11.513,69.732
		c19.328,8.359,45.511-9.31,58.48-39.464c12.968-30.149,7.813-61.37-11.515-69.729C342.892,299.594,316.71,317.262,303.741,347.414z
		"/>
	<polygon stroke="#000000" stroke-miterlimit="10" points="294.109,279.016 219.37,353.956 203.677,338.219 278.414,263.279 	"/>
	<polygon stroke="#000000" stroke-miterlimit="10" points="219.369,263.279 294.111,338.218 278.418,353.954 203.676,279.018 	"/>
	<path stroke="#000000" stroke-miterlimit="10" d="M248.909,199.218c0,0,38.798-30.879,65.962-29.647
		c0,0,27.573-5.678,33.634,38.231c0,0,1.604,39.133-25.972,48.622c0,0-10.949,5.917-37.706-0.438c0,0-18.645-7.568-26.749-19.362
		c0,0-4.585-3.255-9.185-3.257l-1.634,0.03c-4.598,0-9.187,3.252-9.187,3.252C229.964,248.44,211.314,256,211.314,256
		c-26.759,6.341-37.707,0.42-37.707,0.42c-27.571-9.502-25.948-48.635-25.948-48.635c6.082-43.908,33.651-38.216,33.651-38.216
		c27.165-1.219,65.949,29.678,65.949,29.678L248.909,199.218z"/>
</g>
</svg>
