<?xml version="1.0" encoding="utf-8"?>
<!-- Generator: Adobe Illustrator 16.0.0, SVG Export Plug-In . SVG Version: 6.00 Build 0)  -->
<!DOCTYPE svg PUBLIC "-//W3C//DTD SVG 1.1//EN" "http://www.w3.org/Graphics/SVG/1.1/DTD/svg11.dtd">
<svg version="1.1" id="Layer_2" xmlns="http://www.w3.org/2000/svg" xmlns:xlink="http://www.w3.org/1999/xlink" x="0px" y="0px"
	 width="512px" height="512px" viewBox="0 0 512 512" enable-background="new 0 0 512 512" xml:space="preserve">
<g>
	<polygon fill="#FFFFFF" stroke="#000000" stroke-miterlimit="10" points="505.361,512 7.974,512 7.974,13.089 102.013,13.089 
		102.012,74.161 410.863,73.691 411.785,13.089 505.361,13.089 	"/>
	<rect x="133.956" y="10.692" fill="#FFFFFF" width="19.749" height="77.091"/>
	<rect x="359.288" y="10.879" fill="#FFFFFF" width="18.775" height="79.046"/>
	<polygon stroke="#000000" stroke-miterlimit="10" points="484.608,491.321 28.371,491.321 28.371,33.633 80.996,33.633 
		81.442,93.561 432.429,93.561 431.982,33.633 484.608,33.633 	"/>
	<polygon fill="#406181" points="465.431,476.779 47.548,476.779 47.548,52.22 62.265,52.22 62.265,113.626 451.605,114.081 
		451.16,52.22 465.431,52.22 	"/>
	<path fill="#FFFFFF" stroke="#FFFFFF" stroke-miterlimit="10" d="M256.668,464.962H180.45l-52.626-47.724l-0.892-13.183
		l-31.665-13.179V349.97h32.111l-0.446-13.18l-31.665-13.182v-41.36h32.557v-19.704l25.88-6.202l-6.703-121.354l46.382-13.636
		c0,0,55.725,138.168,127.092,0l46.381,13.641l-6.721,121.353l25.88,6.206l-0.003,19.705l32.557,0.004l-0.006,41.359l-31.667,13.178
		l-0.447,13.182l32.109,0.002l-0.006,40.907l-31.666,13.176l-0.894,13.181l-52.632,47.717l-76.219-0.014L256.668,464.962z"/>
	<path stroke="#000000" stroke-miterlimit="10" d="M324.847,134.988l29.881,9.093l-6.249,119.041l26.749,5.497l-0.002,24.543
		l31.666-0.224l-0.004,23.406l-33.03,12.723l0.023,31.361l29.881,0.004l-0.002,23.178l-28.989,14.088l-0.448,13.182l-42.372,39.99
		l-75.973-0.007v0.007h-75.973l-42.368-39.996l-0.446-13.181l-28.988-14.091v-23.18h29.881l0.027-31.36l-33.03-12.726V292.93
		l31.665,0.228v-24.544l26.75-5.494l-6.236-119.041l29.881-9.09C187.14,134.989,247.146,268.612,324.847,134.988z"/>
	<path fill="#FFFFFF" stroke="#000000" stroke-miterlimit="10" d="M325.68,147.711l18.732,6.817l-6.681,107.945l0.448,12.954
		l26.313,7.27l0.011,123.626l-38.797,34.547l-69.73,0.007v-0.004h-69.729l-38.8-34.543V282.703l26.313-7.271l0.446-12.954
		l-6.69-107.945l18.731-6.817C186.248,147.716,247.027,269.516,325.68,147.711z"/>
	<path stroke="#000000" stroke-miterlimit="10" d="M339.22,304.18c0,3.83,0.711,6.932-3.046,6.932H177.251
		c-3.756,0-3.044-3.102-3.044-6.932l0,0c0-3.829-0.711-6.931,3.044-6.931h158.923C339.931,297.249,339.22,300.351,339.22,304.18
		L339.22,304.18z"/>
	<path stroke="#000000" stroke-miterlimit="10" d="M338.482,337.131c0,3.829,0.711,6.932-3.045,6.932H176.514
		c-3.756,0-3.045-3.103-3.045-6.932l0,0c0-3.829-0.711-6.931,3.045-6.931h158.923C339.193,330.2,338.482,333.302,338.482,337.131
		L338.482,337.131z"/>
	<path stroke="#000000" stroke-miterlimit="10" d="M339.22,370.311c0,3.827,0.711,6.93-3.046,6.93H177.251
		c-3.756,0-3.044-3.103-3.044-6.93l0,0c0-3.829-0.711-6.932,3.044-6.932h158.923C339.931,363.379,339.22,366.481,339.22,370.311
		L339.22,370.311z"/>
	<path stroke="#000000" stroke-miterlimit="10" d="M338.482,404.398c0,3.828,0.711,6.932-3.045,6.932H176.514
		c-3.756,0-3.045-3.104-3.045-6.932l0,0c0-3.829-0.711-6.931,3.045-6.931h158.923C339.193,397.468,338.482,400.569,338.482,404.398
		L338.482,404.398z"/>
	<path fill="#FFFFFF" d="M378.063,10c0,5.522-4.393,10-9.812,10H143.768c-5.419,0-9.812-4.478-9.812-10l0,0
		c0-5.523,4.393-10,9.812-10h224.484C373.671,0,378.063,4.476,378.063,10L378.063,10z"/>
</g>
</svg>
