<?xml version="1.0" encoding="utf-8"?>
<!-- Generator: Adobe Illustrator 16.0.0, SVG Export Plug-In . SVG Version: 6.00 Build 0)  -->
<!DOCTYPE svg PUBLIC "-//W3C//DTD SVG 1.1//EN" "http://www.w3.org/Graphics/SVG/1.1/DTD/svg11.dtd">
<svg version="1.1" id="Layer_2" xmlns="http://www.w3.org/2000/svg" xmlns:xlink="http://www.w3.org/1999/xlink" x="0px" y="0px"
	 width="512px" height="512px" viewBox="0 0 512 512" enable-background="new 0 0 512 512" xml:space="preserve">
<g>
	<polygon fill="#FFFFFF" stroke="#000000" stroke-miterlimit="10" points="437.831,368.342 204.979,330.264 399.249,410.548 
		266.256,462.389 386.087,487.162 385.632,505.514 1.629,505.514 1.629,18.3 349.773,18.509 347.982,1.539 359.307,18.421 
		489.576,18.3 489.576,167.859 510.908,145.38 489.576,249.062 489.576,275.212 478.228,275.212 470.512,265.568 475.958,216.489 
		454.172,237.592 407.873,157.767 	"/>
	<polygon stroke="#000000" stroke-miterlimit="10" points="181.829,466.978 261.716,485.787 21.602,485.787 21.602,38.486 
		470.058,38.486 470.058,187.586 457.803,206.396 457.803,57.754 40.211,57.754 40.211,466.978 	"/>
	<polygon fill="#8F707A" points="333.887,410.548 181.829,466.978 40.211,466.978 40.211,57.754 457.803,57.754 457.803,206.396 
		349.773,6.372 411.505,342.192 6.167,274.064 	"/>
	<path stroke="#000000" stroke-miterlimit="10" d="M238.567,255.943l44.03,44.959h37.219l52.653-53.676v-32.114l-45.845-46.335
		l16.341-18.351l-54.469-53.218l-17.701,19.727l-24.966-25.232c-42.667,41.749-73.986,0-73.986,0l-53.106,50.465l59.007,60.099
		L40.211,342.192v114.232L238.567,255.943z"/>
	<polygon fill="#FFFFFF" stroke="#000000" stroke-miterlimit="10" points="40.211,361.001 40.211,438.992 223.589,253.191 
		185.006,214.653 	"/>
	<path fill="#FFFFFF" stroke="#000000" stroke-miterlimit="10" d="M308.468,288.976l50.839-50.466v-15.139L243.106,106.384
		c-43.575,44.5-75.802,4.129-75.802,4.129l-29.05,29.361l149.788,149.102H308.468z"/>
	<polygon fill="#FFFFFF" stroke="#000000" stroke-miterlimit="10" points="318.332,162.516 277.914,122.923 289.622,110.712 
		330.043,150.303 	"/>
	<polygon fill="#FFFFFF" points="360.916,66.995 349.773,6.372 382.515,66.995 	"/>
	<polygon fill="#FFFFFF" points="6.167,274.064 59.397,296.231 67.784,284.42 	"/>
	<line fill="none" stroke="#FFFFFF" stroke-miterlimit="10" x1="452.18" y1="214.653" x2="475.419" y2="179.967"/>
	<line fill="none" stroke="#FFFFFF" stroke-miterlimit="10" x1="454.712" y1="211.873" x2="477.952" y2="177.186"/>
	<line fill="none" stroke="#FFFFFF" stroke-miterlimit="10" x1="448.807" y1="195.478" x2="465.699" y2="216.625"/>
	<polygon fill="#FFFFFF" points="411.325,37.733 321.301,37.733 321.301,21.686 350.647,21.686 349.773,6.372 360.91,22.052 
		411.325,21.686 	"/>
	<rect x="3.514" y="243.551" fill="#FFFFFF" width="17.284" height="80.436"/>
</g>
</svg>
