<?xml version="1.0" encoding="utf-8"?>
<!-- Generator: Adobe Illustrator 16.0.0, SVG Export Plug-In . SVG Version: 6.00 Build 0)  -->
<!DOCTYPE svg PUBLIC "-//W3C//DTD SVG 1.1//EN" "http://www.w3.org/Graphics/SVG/1.1/DTD/svg11.dtd">
<svg version="1.1" id="Layer_2" xmlns="http://www.w3.org/2000/svg" xmlns:xlink="http://www.w3.org/1999/xlink" x="0px" y="0px"
	 width="512px" height="512px" viewBox="0 0 512 512" enable-background="new 0 0 512 512" xml:space="preserve">
<g>
	<path fill="#FFFFFF" stroke="#000000" stroke-miterlimit="10" d="M249.323,29.515c0,0,31.333-44.523,69.83-12.721
		c0,0,98.477-61.333,138.762,52.247c0,0,27.751,11.357,23.724,50.884c0,0,51.477,42.251,6.267,87.683c0,0,4.923,15.901-5.819,44.978
		L481.638,512H0V29.515H249.323z"/>
	<path stroke="#000000" stroke-miterlimit="10" d="M19.695,49.959h230.075c0,0,33.125-48.158,66.248-18.628
		c0,0,92.209-54.971,132.047,48.158c0,0,28.647,6.815,23.276,46.795c0,0,43.418,34.528,4.029,78.143c0,0,8.951,24.987-10.744,46.34
		l-3.133,8.178l-0.447,233.52H19.695V49.959z"/>
	<path fill="#8F707A" d="M38.496,69.041v403.888h404.2V254.58c0,0,27.751-17.896,20.142-54.695c0,0,38.05-37.709-6.714-72.238
		c0,0,5.371-30.893-21.934-44.068c0,0-22.829-91.771-117.276-35.891c0,0-31.469-38.163-58.705,15.447
		c0,0-19.627-2.726-26.341,14.083l-26.857,18.627l-3.133-14.084l2.238-12.721H38.496z"/>
	<path fill="#FFFFFF" stroke="#FFFFFF" stroke-miterlimit="10" d="M216.199,37.908c0,0-22.381,12.522-26.857,52.81l7.609,8.712
		c0,0,13.876-52.81,52.819-52.265l-12.533-12.522L216.199,37.908z"/>
	<path fill="#FFFFFF" d="M467.995,249.32c0,0-22.167,13.565-32.462-3.7c0,0-3.582-4.09-2.238-5.452c0,0-12.084,1.817-5.818,22.717
		c0,0,7.607,13.627,37.15,7.723l9.849-12.267L467.995,249.32z"/>
	<g>
		<path fill="#FFFFFF" d="M61.771,365.256c0,0,0.849-1.215,2.442-3.493c1.597-2.274,3.939-5.609,6.921-9.855
			c6.019-8.449,14.524-20.589,24.897-35.033c5.191-7.219,10.815-15.039,16.763-23.311c5.978-8.25,12.281-16.95,18.802-25.949
			c6.551-8.978,13.321-18.255,20.199-27.681c6.908-9.405,13.925-18.96,20.942-28.515c7.054-9.527,14.108-19.054,21.053-28.433
			c6.926-9.391,13.838-18.563,20.475-27.478c6.671-8.889,13.12-17.482,19.235-25.63c6.145-8.126,11.955-15.81,17.317-22.902
			c5.361-7.093,10.325-13.56,14.727-19.289c4.397-5.732,8.231-10.73,11.39-14.846c3.175-4.102,5.67-7.325,7.371-9.523
			c1.706-2.194,2.616-3.364,2.616-3.364s-0.849,1.215-2.441,3.493c-1.597,2.274-3.938,5.61-6.92,9.856
			c-2.999,4.232-6.641,9.372-10.817,15.267c-4.173,5.898-8.884,12.551-14.077,19.768c-5.191,7.219-10.815,15.04-16.763,23.311
			c-5.978,8.25-12.282,16.949-18.803,25.949c-6.555,8.975-13.276,18.288-20.201,27.68c-6.908,9.405-13.926,18.959-20.943,28.513
			c-7.055,9.527-14.11,19.054-21.054,28.432c-6.973,9.356-13.836,18.565-20.477,27.476c-6.671,8.889-13.121,17.481-19.236,25.63
			c-6.145,8.126-11.955,15.81-17.317,22.901c-10.735,14.178-19.819,25.891-26.113,34.137c-3.175,4.103-5.67,7.326-7.371,9.524
			C62.681,364.086,61.771,365.256,61.771,365.256z"/>
	</g>
	<g>
		<path fill="#FFFFFF" d="M357.199,54.958c0,0-1.899,2.353-5.225,6.471c-3.346,4.099-8.147,9.934-13.994,16.863
			c-2.918,3.469-6.079,7.226-9.465,11.163c-3.378,3.944-6.923,8.118-10.651,12.383c-3.725,4.267-7.53,8.715-11.476,13.165
			c-3.935,4.459-7.932,8.99-11.929,13.52c-4.031,4.5-8.063,8.999-12.032,13.429c-3.952,4.443-7.93,8.739-11.731,12.938
			c-3.8,4.2-7.527,8.212-11.052,12.026c-3.515,3.822-6.875,7.403-9.98,10.705c-6.198,6.616-11.434,12.065-15.114,15.867
			c-3.702,3.782-5.817,5.943-5.817,5.943s1.899-2.354,5.223-6.472c3.345-4.099,8.146-9.937,13.992-16.865
			c2.916-3.47,6.08-7.226,9.465-11.163c3.375-3.947,6.924-8.117,10.651-12.382c3.726-4.266,7.526-8.719,11.478-13.163
			c3.936-4.459,7.933-8.989,11.931-13.519c4.031-4.499,8.063-8.999,12.033-13.427c3.957-4.439,7.931-8.738,11.733-12.936
			c3.799-4.201,7.53-8.21,11.053-12.025c3.514-3.823,6.876-7.402,9.98-10.706c6.197-6.616,11.432-12.067,15.111-15.869
			C355.084,57.119,357.199,54.958,357.199,54.958z"/>
	</g>
	<g>
		<path fill="#FFFFFF" d="M417.627,139.006c0,0-1.263,1.475-3.474,4.055c-2.238,2.555-5.393,6.244-9.255,10.601
			c-3.85,4.368-8.373,9.434-13.251,14.833c-2.445,2.694-4.972,5.478-7.538,8.307c-2.58,2.817-5.201,5.679-7.822,8.54
			c-2.639,2.846-5.276,5.692-7.873,8.494c-2.61,2.79-5.179,5.535-7.664,8.191c-4.982,5.304-9.663,10.225-13.703,14.417
			c-4.026,4.205-7.447,7.648-9.812,10.087c-2.392,2.413-3.759,3.792-3.759,3.792s1.263-1.475,3.473-4.056
			c2.238-2.555,5.392-6.246,9.254-10.602c3.85-4.368,8.372-9.435,13.252-14.833c2.444-2.694,4.972-5.478,7.539-8.306
			c2.58-2.817,5.201-5.678,7.822-8.54c2.639-2.846,5.277-5.691,7.874-8.493c2.61-2.79,5.179-5.534,7.665-8.19
			c4.983-5.303,9.663-10.224,13.703-14.417c4.027-4.204,7.446-7.649,9.811-10.088C416.261,140.385,417.627,139.006,417.627,139.006z
			"/>
	</g>
	<g>
		<path fill="#FFFFFF" d="M450.075,154.452c0,0-0.489,0.496-1.408,1.427c-0.92,0.928-2.271,2.288-3.989,4.02
			c-3.455,3.444-8.409,8.343-14.43,14.139c-3.006,2.903-6.263,6.048-9.745,9.332c-3.475,3.293-7.124,6.781-10.954,10.331
			c-3.826,3.552-7.742,7.266-11.791,10.961c-4.04,3.707-8.144,7.472-12.247,11.237c-4.135,3.731-8.27,7.462-12.339,11.135
			c-4.056,3.688-8.126,7.232-12.022,10.708c-3.895,3.478-7.708,6.787-11.315,9.933c-3.598,3.157-7.033,6.105-10.209,8.822
			c-6.337,5.448-11.682,9.918-15.438,13.031c-1.886,1.548-3.368,2.764-4.378,3.593c-1.014,0.826-1.554,1.267-1.554,1.267
			s0.489-0.496,1.407-1.428c0.921-0.928,2.271-2.288,3.989-4.02c3.453-3.445,8.406-8.346,14.428-14.142
			c3.004-2.905,6.263-6.047,9.744-9.332c3.473-3.295,7.126-6.78,10.955-10.329c3.827-3.552,7.738-7.27,11.793-10.96
			c4.04-3.706,8.144-7.471,12.248-11.235c4.135-3.73,8.271-7.461,12.341-11.134c4.061-3.683,8.126-7.231,12.023-10.706
			c3.895-3.479,7.711-6.784,11.316-9.932c3.598-3.158,7.035-6.104,10.208-8.823c6.338-5.448,11.682-9.918,15.436-13.033
			c1.886-1.548,3.367-2.765,4.378-3.594C449.535,154.893,450.075,154.452,450.075,154.452z"/>
	</g>
	<g>
		<path fill="#FFFFFF" d="M432.847,217.148c0,0-0.563,0.504-1.617,1.45c-1.059,0.94-2.592,2.345-4.583,4.083
			c-3.981,3.478-9.613,8.512-16.472,14.435c-3.432,2.958-7.15,6.162-11.082,9.551c-3.95,3.368-8.115,6.919-12.425,10.593
			c-4.327,3.653-8.798,7.428-13.342,11.263c-4.56,3.814-9.192,7.689-13.826,11.564c-4.654,3.849-9.31,7.697-13.892,11.486
			c-4.572,3.801-9.127,7.474-13.506,11.064c-8.774,7.16-17.004,13.794-24.095,19.438c-7.073,5.664-13.053,10.281-17.198,13.562
			c-2.072,1.64-3.733,2.891-4.852,3.76c-1.122,0.864-1.721,1.325-1.721,1.325s0.563-0.505,1.617-1.45
			c1.059-0.941,2.591-2.346,4.582-4.084c3.981-3.478,9.611-8.516,16.471-14.437c6.842-5.941,14.866-12.823,23.507-20.145
			c4.329-3.649,8.771-7.459,13.343-11.261c4.561-3.814,9.193-7.689,13.827-11.563c4.654-3.849,9.31-7.697,13.893-11.485
			c4.6-3.767,9.126-7.475,13.507-11.063c4.398-3.567,8.65-7.014,12.683-10.284c4.05-3.248,7.878-6.319,11.412-9.154
			c7.074-5.663,13.052-10.283,17.197-13.563c2.072-1.641,3.732-2.891,4.851-3.761C432.248,217.609,432.847,217.148,432.847,217.148z
			"/>
	</g>
	<path fill="#FFFFFF" stroke="#000000" stroke-width="3" stroke-miterlimit="10" d="M240.581,78.126
		c77.233,0.001,110.318,76.326,110.318,76.326c14.774,29.531,0,81.323,0,81.323c-9.4,16.355-12.98,69.511-12.98,69.511
		c-2.239,4.998-8.058,7.269-8.058,7.269c-26.857,8.632-28.201,22.716-28.201,22.716c-4.476,9.993,0.895,18.627,0.895,18.627
		c11.19,0.909,13.878,11.357,13.878,11.357c20.141-7.723,25.96,0.001,25.96,0.001c34.469,25.442,32.678,43.615,32.678,43.615
		c5.819,26.349-31.782,54.972-31.782,54.972c-24.171,17.265-45.209-0.001-45.209-0.001L271.67,436.13
		c-4.927-12.268,0-28.168,0-28.168h-10.071v5.451h-17.235v-7.268h-3.786c0,0,0-7.725,0-7.725v7.725h-3.787v7.268h-17.233v-5.451
		h-10.071c0,0,4.923,15.9,0,28.168l-26.409,27.713c0,0-21.039,17.266-45.209,0c0,0-37.6-28.623-31.781-54.972
		c0,0-1.79-18.174,32.676-43.615c0,0,5.819-7.723,25.962,0c0,0,2.686-10.448,13.876-11.357c0,0,5.372-8.634,0.896-18.627
		c0,0-1.343-14.084-28.2-22.716c0,0-5.819-2.271-8.057-7.27c0,0-3.582-53.155-12.981-69.511c0,0-14.771-51.792,0-81.323
		c0,0,33.087-76.325,110.32-76.325L240.581,78.126z"/>
	
		<line fill="none" stroke="#000000" stroke-width="3" stroke-miterlimit="10" x1="213.961" y1="407.962" x2="213.961" y2="399.784"/>
	
		<line fill="none" stroke="#000000" stroke-width="3" stroke-miterlimit="10" x1="266.333" y1="407.962" x2="266.333" y2="399.784"/>
	<path fill="#8F707A" stroke="#000000" stroke-width="3" stroke-miterlimit="10" d="M167.409,230.323v37.708
		c0,0,7.162,25.442,39.39,28.169c0,0,18.8,0.908,18.353-26.352c0,0,4.029-12.136-11.19-18.561
		C213.961,251.288,184.867,243.953,167.409,230.323z"/>
	<path fill="#8F707A" stroke="#000000" stroke-width="3" stroke-miterlimit="10" d="M313.354,230.325l-0.003,37.708
		c0,0-7.164,25.442-39.394,28.166c0,0-18.8,0.907-18.352-26.354c0,0-4.027-12.135,11.194-18.56
		C266.8,251.286,295.895,243.954,313.354,230.325z"/>
	<path fill="#8F707A" stroke="#000000" stroke-width="3" stroke-miterlimit="10" d="M242.752,345.72
		c3.82-4.999,21.02-0.013,21.02-0.013c-12.321-19.075-21.052-49.504-21.052-49.504h-2.143c0,0-8.711,30.436-21.021,49.517
		c0,0,17.198-4.997,21.021,0H242.752z"/>
	<path fill="none" stroke="#000000" stroke-width="3" stroke-miterlimit="10" d="M164.724,365.256c0,0,30.886,19.081,44.762,42.706"
		/>
	<path fill="none" stroke="#000000" stroke-width="3" stroke-miterlimit="10" d="M271.67,407.962c0,0,11.153-32.712,44.762-42.706"
		/>
	<path fill="none" stroke="#000000" stroke-width="3" stroke-miterlimit="10" d="M115.939,386.609c0,0,45.203,14.262,71.165,73.007"
		/>
	<path fill="none" stroke="#000000" stroke-width="3" stroke-miterlimit="10" d="M292.967,459.616c0,0,25.208-57.105,72.249-73.007"
		/>
</g>
</svg>
