<?xml version="1.0" encoding="utf-8"?>
<!-- Generator: Adobe Illustrator 16.0.0, SVG Export Plug-In . SVG Version: 6.00 Build 0)  -->
<!DOCTYPE svg PUBLIC "-//W3C//DTD SVG 1.1//EN" "http://www.w3.org/Graphics/SVG/1.1/DTD/svg11.dtd">
<svg version="1.1" id="Layer_2" xmlns="http://www.w3.org/2000/svg" xmlns:xlink="http://www.w3.org/1999/xlink" x="0px" y="0px"
	 width="512px" height="512px" viewBox="0 0 512 512" enable-background="new 0 0 512 512" xml:space="preserve">
<g>
	<polygon fill="#FFFFFF" stroke="#000000" stroke-miterlimit="10" points="486.644,511.619 20.82,511.619 20.82,45.246 
		486.644,45.246 486.644,115.113 448.547,186.315 448.547,425.287 486.644,438.191 	"/>
	<polygon stroke="#000000" stroke-miterlimit="10" points="461.102,492.93 39.436,492.93 39.436,64.827 461.102,64.827 
		461.102,162.851 448.547,186.315 448.547,425.287 461.102,429.539 	"/>
	<rect x="52.424" y="76.842" fill="#A22229" width="396.123" height="403.627"/>
	<polygon fill="#FFFFFF" stroke="#FFFFFF" stroke-miterlimit="10" points="467.163,452.477 250.702,372.375 33.809,452.477 
		33.809,427.111 250.702,350.125 467.163,432.896 	"/>
	
		<ellipse fill="#FFFFFF" stroke="#000000" stroke-width="4" stroke-miterlimit="10" cx="250.486" cy="362.094" rx="25.975" ry="26.701"/>
	<path fill="#FFFFFF" stroke="#000000" stroke-width="4" stroke-miterlimit="10" d="M224.51,338.508h10.606
		c0,0,12.986-11.125,31.17,0h10.173v-37.824h42.643l18.616-11.57h42.859l12.554,11.125l44.159,0.445l5.627-5.785v-38.717
		l-6.061-6.229h-43.726l-12.122,12.015h-42.858l-18.183-19.135H276.46v-37.826h-14.069l-17.75,25.365l-192.217,0.445l-6.494,5.785
		v82.772l6.494,7.566l123.383-0.445l12.988-13.352l23.81,0.445L224.51,338.508z"/>
	<polygon fill="#FFFFFF" stroke="#000000" stroke-miterlimit="10" points="442.918,237.491 474.089,166.734 466.729,230.371 
		510.887,198.33 470.191,272.197 510.887,334.949 466.729,312.699 473.655,376.781 442.918,307.359 448.547,301.572 
		448.547,287.332 466.729,294.453 455.04,272.197 466.729,249.952 448.547,257.072 448.547,243.722 	"/>
	<rect x="82.728" y="249.506" stroke="#000000" stroke-miterlimit="10" width="141.782" height="12.906"/>
	<rect x="270.183" y="255.959" stroke="#000000" stroke-miterlimit="10" width="6.277" height="32.264"/>
	<rect x="287.932" y="255.959" stroke="#000000" stroke-miterlimit="10" width="6.062" height="32.264"/>
	<rect x="306.549" y="255.959" stroke="#000000" stroke-miterlimit="10" width="6.493" height="32.264"/>
	<rect x="175.373" y="192.1" fill="#FFFFFF" stroke="#000000" stroke-miterlimit="10" width="51.084" height="20.025"/>
	<polygon fill="#FFFFFF" stroke="#000000" stroke-miterlimit="10" points="235.564,177.5 184.76,183.002 182.719,163.088 
		233.522,157.585 	"/>
	<polygon fill="#FFFFFF" stroke="#000000" stroke-miterlimit="10" points="221.339,137.318 173.808,156.562 166.67,137.93 
		214.2,118.687 	"/>
	<polygon fill="#FFFFFF" stroke="#000000" stroke-miterlimit="10" points="202.708,99.443 155.176,118.687 148.039,100.055 
		195.568,80.812 	"/>
	<polygon fill="#FFFFFF" stroke="#000000" stroke-miterlimit="10" points="55.782,19.691 8.251,38.935 1.113,20.302 48.643,1.059 	
		"/>
	<polygon fill="#FFFFFF" stroke="#000000" stroke-miterlimit="10" points="189.038,44.541 152.096,80.812 138.643,66.33 
		175.583,30.061 	"/>
	<polygon fill="#FFFFFF" stroke="#000000" stroke-miterlimit="10" points="107.926,19.166 70.984,55.436 57.531,40.955 
		94.471,4.685 	"/>
	<polygon fill="#FFFFFF" stroke="#000000" stroke-miterlimit="10" points="155.286,24.896 123.031,65.617 107.926,52.973 
		140.18,12.251 	"/>
</g>
</svg>
