<?xml version="1.0" encoding="utf-8"?>
<!-- Generator: Adobe Illustrator 16.0.0, SVG Export Plug-In . SVG Version: 6.00 Build 0)  -->
<!DOCTYPE svg PUBLIC "-//W3C//DTD SVG 1.1//EN" "http://www.w3.org/Graphics/SVG/1.1/DTD/svg11.dtd">
<svg version="1.1" id="Layer_2" xmlns="http://www.w3.org/2000/svg" xmlns:xlink="http://www.w3.org/1999/xlink" x="0px" y="0px"
	 width="512px" height="512px" viewBox="0 0 512 512" enable-background="new 0 0 512 512" xml:space="preserve">
<g>
	<rect x="17.186" y="34.392" fill="#FFFFFF" stroke="#000000" stroke-miterlimit="10" width="477.151" height="477.608"/>
	<rect x="36.113" y="53.73" stroke="#000000" stroke-miterlimit="10" width="438.416" height="438.932"/>
	<polygon fill="#8F707A" points="456.482,472.873 55.482,472.873 55.482,73.068 150.56,73.068 150.56,34.392 354.801,34.392 
		354.361,73.068 456.482,73.068 	"/>
	<ellipse stroke="#000000" stroke-miterlimit="10" cx="252.901" cy="131.083" rx="31.473" ry="32.155"/>
	<ellipse stroke="#000000" stroke-miterlimit="10" cx="252.901" cy="305.35" rx="31.473" ry="32.155"/>
	<rect x="221.428" y="131.083" stroke="#000000" stroke-miterlimit="10" width="62.946" height="174.267"/>
	<ellipse fill="#FFFFFF" cx="252.901" cy="131.083" rx="18.707" ry="19.114"/>
	<path fill="#FFFFFF" d="M271.608,305.349c0,10.558-8.375,19.116-18.707,19.116c-10.333,0-18.707-8.559-18.707-19.116
		c0-10.555,8.375-19.11,18.707-19.11C263.233,286.238,271.608,294.794,271.608,305.349z"/>
	<rect x="234.194" y="131.083" fill="#FFFFFF" width="37.414" height="174.266"/>
	<ellipse stroke="#000000" stroke-miterlimit="10" cx="354.376" cy="171.108" rx="31.252" ry="31.931"/>
	<ellipse stroke="#000000" stroke-miterlimit="10" cx="151.88" cy="170.209" rx="31.253" ry="31.929"/>
	<rect x="138.235" y="8.983" stroke="#000000" stroke-miterlimit="10" width="233.733" height="44.747"/>
	<ellipse fill="none" stroke="#000000" stroke-miterlimit="10" cx="158.262" cy="85.212" rx="24.87" ry="25.408"/>
	<ellipse stroke="#000000" stroke-miterlimit="10" cx="347.098" cy="85.212" rx="24.869" ry="25.408"/>
	<ellipse stroke="#000000" stroke-miterlimit="10" cx="368.005" cy="34.393" rx="24.869" ry="25.408"/>
	<ellipse fill="none" stroke="#000000" stroke-miterlimit="10" cx="138.235" cy="34.393" rx="24.87" ry="25.408"/>
	<path stroke="#000000" stroke-miterlimit="10" d="M221.112,80.244c0,7.114-5.644,12.879-12.607,12.879
		c-6.962,0-12.606-5.765-12.606-12.879c0-7.116,5.644-12.881,12.606-12.881C215.468,67.363,221.112,73.128,221.112,80.244z"/>
	<path stroke="#000000" stroke-miterlimit="10" d="M265.797,80.244c0,7.114-5.643,12.878-12.606,12.878
		c-6.962,0-12.607-5.765-12.607-12.878c0-7.116,5.645-12.881,12.607-12.881C260.154,67.363,265.797,73.128,265.797,80.244z"/>
	<path stroke="#000000" stroke-miterlimit="10" d="M310.186,80.244c0,7.114-5.644,12.878-12.607,12.878
		c-6.963,0-12.606-5.765-12.606-12.878c0-7.116,5.644-12.881,12.606-12.881C304.542,67.363,310.186,73.128,310.186,80.244z"/>
	<rect x="195.898" y="39.76" stroke="#000000" stroke-miterlimit="10" width="25.214" height="40.484"/>
	<rect x="240.584" y="39.76" stroke="#000000" stroke-miterlimit="10" width="25.214" height="40.484"/>
	<rect x="284.972" y="39.76" stroke="#000000" stroke-miterlimit="10" width="25.215" height="40.484"/>
	<polygon stroke="#000000" stroke-miterlimit="10" points="345.005,24.725 325.342,72.898 369.714,95.776 392.207,40.236 	"/>
	<polyline stroke="#000000" stroke-miterlimit="10" points="135.852,95.777 180.016,72.898 161.236,24.725 114.026,40.234 
		135.852,95.777 114.026,40.235 	"/>
	<ellipse stroke="#000000" stroke-miterlimit="10" cx="158.263" cy="85.211" rx="24.87" ry="25.408"/>
	<ellipse stroke="#000000" stroke-miterlimit="10" cx="138.235" cy="34.391" rx="24.87" ry="25.408"/>
	<ellipse fill="#FFFFFF" stroke="#FFFFFF" stroke-miterlimit="10" cx="158.262" cy="85.212" rx="16.616" ry="16.976"/>
	<ellipse fill="#FFFFFF" stroke="#FFFFFF" stroke-miterlimit="10" cx="138.235" cy="34.393" rx="16.616" ry="16.976"/>
	<ellipse fill="#FFFFFF" stroke="#FFFFFF" stroke-miterlimit="10" cx="368.007" cy="34.391" rx="16.616" ry="16.976"/>
	<ellipse stroke="#000000" stroke-miterlimit="10" cx="208.505" cy="15.88" rx="12.607" ry="12.879"/>
	<ellipse stroke="#000000" stroke-miterlimit="10" cx="297.579" cy="15.88" rx="12.607" ry="12.879"/>
	<rect x="208.504" y="3" stroke="#000000" stroke-miterlimit="10" width="89.074" height="25.759"/>
	<ellipse fill="#FFFFFF" stroke="#FFFFFF" stroke-miterlimit="10" cx="347.097" cy="85.212" rx="16.617" ry="16.976"/>
	<polygon fill="#FFFFFF" stroke="#FFFFFF" stroke-miterlimit="10" points="173.336,78.066 153.093,26.792 122.471,39.76 
		142.923,91.746 	"/>
	<polygon fill="#FFFFFF" stroke="#FFFFFF" stroke-miterlimit="10" points="362.438,91.746 383.77,39.76 353.147,26.792 
		332.024,78.066 	"/>
	<rect x="138.235" y="17.416" fill="#FFFFFF" stroke="#FFFFFF" stroke-miterlimit="10" width="229.772" height="28.669"/>
	<ellipse fill="#FFFFFF" stroke="#FFFFFF" stroke-miterlimit="10" cx="253.191" cy="80.244" rx="6.751" ry="6.896"/>
	<ellipse fill="#FFFFFF" stroke="#FFFFFF" stroke-miterlimit="10" cx="297.578" cy="80.244" rx="6.751" ry="6.896"/>
	<ellipse fill="#FFFFFF" stroke="#FFFFFF" stroke-miterlimit="10" cx="208.222" cy="80.244" rx="6.751" ry="6.896"/>
	<rect x="201.471" y="39.76" fill="#FFFFFF" stroke="#FFFFFF" stroke-miterlimit="10" width="13.504" height="40.484"/>
	<rect x="246.44" y="39.76" fill="#FFFFFF" stroke="#FFFFFF" stroke-miterlimit="10" width="13.502" height="40.484"/>
	<rect x="290.826" y="39.76" fill="#FFFFFF" stroke="#FFFFFF" stroke-miterlimit="10" width="13.503" height="40.484"/>
	<ellipse fill="#FFFFFF" stroke="#FFFFFF" stroke-miterlimit="10" cx="208.222" cy="15.88" rx="6.751" ry="6.897"/>
	<ellipse fill="#FFFFFF" stroke="#FFFFFF" stroke-miterlimit="10" cx="297.578" cy="15.88" rx="6.751" ry="6.897"/>
	<rect x="208.223" y="8.982" fill="#FFFFFF" stroke="#FFFFFF" stroke-miterlimit="10" width="89.356" height="13.794"/>
	<path stroke="#000000" stroke-miterlimit="10" d="M253.2,383.369c57.443-4.036,78.025-32.367,78.025-32.367
		c82.214-81.389,0.022-159.177,0.022-159.177l48.044-40.718c0,0,108.655,108.624-0.035,243.076c0,0-45.733,53.06-126.066,53.497
		l-0.291,0.01c-80.333-0.45-126.058-53.518-126.058-53.518c-108.671-134.469,0-243.076,0-243.076l48.037,40.727
		c0,0-82.202,77.775,0,159.178c0,0,20.579,28.333,78.021,32.379"/>
	<ellipse fill="#FFFFFF" stroke="#FFFFFF" stroke-miterlimit="10" cx="151.88" cy="170.209" rx="18.708" ry="19.113"/>
	<ellipse fill="#FFFFFF" stroke="#FFFFFF" stroke-miterlimit="10" cx="354.377" cy="171.109" rx="18.708" ry="19.113"/>
	<path fill="#FFFFFF" stroke="#FFFFFF" stroke-miterlimit="10" d="M252.907,396.415c55.681,0.006,87.699-39.116,87.699-39.116
		c83.499-90.308,0.022-173.674,0.022-173.674l28.69-24.316c0,0,103.383,104.914-0.029,229.924c0,0-39.578,48.565-116.388,48.555
		l-0.001,0.009c-76.812,0-116.381-48.57-116.381-48.57c-103.396-125.025,0-229.925,0-229.925l28.687,24.32
		c0,0-83.487,83.355,0,173.675c0,0,32.013,39.126,87.694,39.126L252.907,396.415z"/>
</g>
</svg>
