<?xml version="1.0" encoding="utf-8"?>
<!-- Generator: Adobe Illustrator 16.0.0, SVG Export Plug-In . SVG Version: 6.00 Build 0)  -->
<!DOCTYPE svg PUBLIC "-//W3C//DTD SVG 1.1//EN" "http://www.w3.org/Graphics/SVG/1.1/DTD/svg11.dtd">
<svg version="1.1" id="Layer_2" xmlns="http://www.w3.org/2000/svg" xmlns:xlink="http://www.w3.org/1999/xlink" x="0px" y="0px"
	 width="512px" height="512px" viewBox="0 0 512 512" enable-background="new 0 0 512 512" xml:space="preserve">
<g>
	<rect fill="#FFFFFF" stroke="#000000" stroke-miterlimit="10" width="512" height="512"/>
	<rect x="20.48" y="20.75" stroke="#000000" stroke-miterlimit="10" width="471.04" height="470.018"/>
	<rect x="40.008" y="41.017" fill="#CF5E33" width="431.508" height="429.965"/>
	<polygon points="352.923,373.986 354.828,388.464 357.686,398.598 368.326,410.496 361.972,409.697 356.256,409.697 
		349.112,409.215 339.586,413.075 331.967,421.278 316.326,433.379 303.867,435.272 303.867,435.272 322.917,419.349 
		331.49,401.976 320.06,398.598 307.2,401.976 284.338,412.592 209.103,408.22 201.34,403.847 195.274,401.976 175.033,405.354 
		161.935,398.598 157.172,382.19 152.41,372.539 141.932,371.574 122.665,389.127 110.021,394.255 100.971,387.98 81.957,387.245 
		86.683,383.155 98.114,381.226 109.544,385.568 118.117,380.26 139.119,358.451 154.46,356.614 156.22,340.208 149.552,331.521 
		151.933,317.615 159.22,292.674 157.646,273.869 150.98,269.271 142.407,285.678 132.882,290.021 113.831,282.3 112.878,278.439 
		134.787,280.853 140.502,258.654 148.6,252.622 159.553,247.555 164.792,232.113 164.792,193.99 156.696,185.787 148.123,183.374 
		140.979,180.961 130.5,178.066 120.499,177.583 104.782,169.38 120.46,171.174 139.809,173.584 152.885,170.827 157.31,160.647 
		157.648,151.042 161.935,145.251 163.839,132.704 167.65,126.914 170.508,120.641 170.032,115.815 161.935,118.71 158.125,116.78 
		167.65,108.094 170.508,105.681 180.51,107.611 188.13,102.786 195.274,107.128 204.324,110.99 211.944,110.99 223.851,103.751 
		228.138,102.786 237.375,100.257 252.904,107.128 269.83,110.112 277.671,104.716 273.861,97.477 265.455,92.729 248.926,74.51 
		256.952,75.866 259.097,78.658 269.83,85.414 278.445,87.465 286.72,97.477 295.293,102.786 310.975,102.03 327.02,99.276 
		342.921,104.233 349.112,110.99 353.399,116.78 349.112,126.432 351.971,134.153 361.02,134.153 372.97,138.013 386.738,143.804 
		405.313,144.769 424.364,142.839 434.115,140.016 443.416,138.013 434.367,145.251 408.172,152.49 395.296,152.8 378.25,151.128 
		368.758,152.726 362.448,156.833 360.543,167.932 363.006,181.155 362.646,197.887 361.02,212.328 362.448,221.014 360.066,225.84 
		360.066,230.183 363.876,241.282 371.021,247.555 386.262,248.52 403.293,241.873 397.692,248.52 389.597,252.371 380.546,252.375 
		369.116,254.891 360.066,252.375 354.828,252.371 356.723,256 359.591,262.997 357.209,272.648 356.733,289.056 357.209,307.394 
		355.305,320.904 357.209,336.829 358.161,345.033 361.496,353.236 370.069,351.789 378.628,352.873 388.81,352.406 
		391.025,356.614 371.975,359.51 362.843,360.882 355.78,365.301 	"/>
	<polygon fill="#FFFFFF" stroke="#000000" stroke-miterlimit="10" points="344.351,380.743 324.346,374.952 275.766,401.494 
		208.61,401.012 167.65,337.795 167.65,318.492 179.558,285.678 173.842,261.55 174.318,234.526 180.986,222.462 180.034,201.712 
		167.65,172.275 167.65,156.351 191.94,117.263 211.468,124.501 238.616,110.507 262.906,123.054 290.53,124.019 309.58,116.78 
		337.682,117.746 343.396,123.536 340.541,142.839 346.731,158.764 351.972,187.235 338.158,237.904 343.938,269.76 338.05,300.768 
		341.017,336.829 	"/>
	<polygon fill="#D75D2F" points="164.792,388.464 161.935,370.608 167.174,356.614 173.249,372.057 179.558,385.568 188.13,393.771 
		182.416,397.149 174.794,398.598 168.127,395.703 	"/>
</g>
</svg>
