<?xml version="1.0" encoding="utf-8"?>
<!-- Generator: Adobe Illustrator 16.0.0, SVG Export Plug-In . SVG Version: 6.00 Build 0)  -->
<!DOCTYPE svg PUBLIC "-//W3C//DTD SVG 1.1//EN" "http://www.w3.org/Graphics/SVG/1.1/DTD/svg11.dtd">
<svg version="1.1" id="Layer_2" xmlns="http://www.w3.org/2000/svg" xmlns:xlink="http://www.w3.org/1999/xlink" x="0px" y="0px"
	 width="512px" height="512px" viewBox="0 0 512 512" enable-background="new 0 0 512 512" xml:space="preserve">
<g>
	<rect x="13.672" y="26.443" fill="#FFFFFF" stroke="#000000" stroke-miterlimit="10" width="485.514" height="485.557"/>
	<rect x="33.508" y="45.379" stroke="#000000" stroke-miterlimit="10" width="445.842" height="447.234"/>
	<rect x="52.892" y="65.216" fill="#406181" width="407.074" height="408.464"/>
	<path fill="#FFFFFF" stroke="#000000" stroke-width="4" stroke-miterlimit="10" d="M270.179,114.817v32.009l-0.062-0.457
		l58.153-0.006c0,0,19.834-0.904,19.388,20.285l0.009,25.249c0,0,44.623-0.907,60.405,44.174c0,0,16.233,32.46,0.012,103.693
		c0,0-7.659,49.142-43.72,66.28c0,0-25.246,5.41-43.728,5.864c0,0-5.409,18.486-12.171,18.486l-51.601,0.007v-0.004h-51.602
		c-6.761,0-12.171-18.486-12.171-18.486c-18.483-0.451-43.728-5.859-43.728-5.859c-36.064-17.133-43.728-66.274-43.728-66.274
		c-16.229-71.232,0-103.693,0-103.693c15.778-45.084,60.4-44.183,60.4-44.183l0.007-25.247
		c-0.451-21.189,19.385-20.288,19.385-20.288h58.153v-32.01c0,0-0.45-13.074,12.848-13.074
		C256.429,101.283,270.179,99.948,270.179,114.817z"/>
	<path fill="#406181" stroke="#000000" stroke-width="3" stroke-miterlimit="10" d="M243.13,166.205h-51.391
		c0,0-11.721-1.354-12.623,13.975c0,0,0,10.821,7.664,10.821c0,0,14.877,3.606,24.344-4.058c0,0-2.254-12.173,4.507-13.976
		C215.631,172.967,226,167.558,243.13,166.205z"/>
	<path fill="#406181" stroke="#000000" stroke-width="3" stroke-miterlimit="10" d="M270.686,166.2l51.392,0.005
		c0,0,11.722-1.353,12.62,13.976c0,0-0.001,10.821-7.664,10.82c0,0-14.879,3.605-24.344-4.061c0,0,2.257-12.172-4.505-13.976
		C298.185,172.965,287.815,167.554,270.686,166.2z"/>
	<g>
		<polygon points="215.934,430.398 217.434,411.013 218.934,430.398 		"/>
	</g>
	<g>
		<polygon points="235.77,430.398 237.27,411.013 238.77,430.398 		"/>
	</g>
	<g>
		<polygon points="274.99,430.402 276.49,411.013 277.99,430.402 		"/>
	</g>
	<g>
		<polygon points="294.823,430.398 296.323,411.013 297.823,430.398 		"/>
	</g>
	<g>
		<polygon points="254.365,430.398 256.865,404.249 259.365,430.398 		"/>
	</g>
	<circle stroke="#000000" stroke-miterlimit="10" cx="256.866" cy="351.727" r="5.185"/>
	<path stroke="#000000" stroke-miterlimit="10" d="M158.831,286.128c0,0-50.491,34.265-2.255,83.408
		c0,0,28.851,23.894,72.128-19.838c0,0,27.048-25.248-21.188-50.946C207.517,298.752,179.567,280.268,158.831,286.128z"/>
	<path stroke="#000000" stroke-miterlimit="10" d="M353.928,286.131c0,0,50.484,34.268,2.243,83.406
		c0,0-28.854,23.891-72.124-19.845c0,0-27.047-25.251,21.192-50.943C305.239,298.749,333.189,280.268,353.928,286.131z"/>
	<path fill="#FFFFFF" d="M221.942,324.451c0,6.723-5.449,12.171-12.171,12.171h-53.195c-6.722,0-12.171-5.448-12.171-12.171l0,0
		c0-6.724,5.45-12.174,12.171-12.174h53.195C216.493,312.277,221.942,317.728,221.942,324.451L221.942,324.451z"/>
	<path fill="#FFFFFF" d="M363.594,324.451c0,6.723-5.45,12.171-12.172,12.171h-53.194c-6.723,0-12.172-5.448-12.172-12.171l0,0
		c0-6.724,5.449-12.174,12.172-12.174h53.194C358.144,312.277,363.594,317.728,363.594,324.451L363.594,324.451z"/>
	<path fill="#FFFFFF" d="M183.176,363.222c-6.721,0.001-12.171-5.447-12.171-12.171L171,297.852c0-6.722,5.448-12.173,12.169-12.174
		l0,0c6.724-0.001,12.173,5.45,12.173,12.171l0.005,53.201C195.348,357.773,189.899,363.222,183.176,363.222L183.176,363.222z"/>
	<path fill="#FFFFFF" d="M326.771,363.222c-6.722,0.001-12.173-5.447-12.173-12.171l-0.005-53.199
		c0-6.722,5.449-12.173,12.172-12.174l0,0c6.722-0.001,12.172,5.45,12.173,12.171l0.003,53.201
		C338.94,357.773,333.493,363.222,326.771,363.222L326.771,363.222z"/>
	<circle stroke="#000000" stroke-miterlimit="10" cx="326.767" cy="324.45" r="8.115"/>
	<circle stroke="#000000" stroke-miterlimit="10" cx="183.174" cy="324.451" r="8.115"/>
	<circle stroke="#000000" stroke-miterlimit="10" cx="171.327" cy="112.551" r="14.751"/>
	<circle stroke="#000000" stroke-miterlimit="10" cx="342.729" cy="112.555" r="14.751"/>
	<circle stroke="#000000" stroke-miterlimit="10" cx="386.935" cy="90.462" r="14.75"/>
	<circle stroke="#000000" stroke-miterlimit="10" cx="127.143" cy="90.462" r="14.75"/>
	<path stroke="#000000" stroke-miterlimit="10" d="M374.359,97.813c0,0-35.54-65.951-116.924-65.508h-0.57
		c-81.384-0.451-116.929,65.497-116.929,65.497l-24.165-16.737c0,0,30.408-78.064,141.094-78.064h0.574
		c110.685,0.011,141.086,78.078,141.086,78.078L374.359,97.813z"/>
	<path stroke="#000000" stroke-miterlimit="10" d="M329.486,118.549c0,0-24.48-41.808-72.055-41.938h-0.566
		c-47.574,0.124-72.06,41.931-72.06,41.931l-26.276-13.326c0,0,23.715-55.779,98.336-55.779h0.569
		c74.621,0.007,98.33,55.79,98.33,55.79L329.486,118.549z"/>
	<circle fill="#FFFFFF" stroke="#FFFFFF" stroke-miterlimit="10" cx="127.142" cy="90.463" r="8.565"/>
	<circle fill="#FFFFFF" stroke="#FFFFFF" stroke-miterlimit="10" cx="171" cy="112.551" r="8.565"/>
	<path fill="#FFFFFF" stroke="#FFFFFF" stroke-miterlimit="10" d="M134.313,95.139c0,0,29.898-68.696,122.552-68.696h-0.302
		c92.653-0.003,122.556,68.692,122.556,68.692l13.966-9.875c0,0-26.287-74.149-136.521-74.146h0.302
		c-110.235,0-136.521,74.15-136.521,74.15L134.313,95.139z"/>
	<circle fill="#FFFFFF" stroke="#FFFFFF" stroke-miterlimit="10" cx="386.936" cy="91.365" r="8.565"/>
	<circle fill="#FFFFFF" stroke="#FFFFFF" stroke-miterlimit="10" cx="342.729" cy="112.555" r="8.565"/>
	<path fill="#FFFFFF" stroke="#FFFFFF" stroke-miterlimit="10" d="M179.116,115.27c0,0,21.639-44.687,77.313-44.687h0.873
		c55.674,0.002,77.31,44.69,77.31,44.69l15.375-7.645c0,0-29.77-52.727-93.121-52.73c-63.352,0-93.125,52.725-93.125,52.725
		L179.116,115.27z"/>
</g>
</svg>
