<?xml version="1.0" encoding="utf-8"?>
<!-- Generator: Adobe Illustrator 16.0.0, SVG Export Plug-In . SVG Version: 6.00 Build 0)  -->
<!DOCTYPE svg PUBLIC "-//W3C//DTD SVG 1.1//EN" "http://www.w3.org/Graphics/SVG/1.1/DTD/svg11.dtd">
<svg version="1.1" id="Layer_2" xmlns="http://www.w3.org/2000/svg" xmlns:xlink="http://www.w3.org/1999/xlink" x="0px" y="0px"
	 width="512px" height="512px" viewBox="0 0 512 512" enable-background="new 0 0 512 512" xml:space="preserve">
<g>
	<rect x="41.725" y="46.162" fill="#FFFFFF" stroke="#000000" stroke-miterlimit="10" width="428.168" height="429.704"/>
	<rect x="59.026" y="63.625" stroke="#000000" stroke-miterlimit="10" width="393.961" height="396.4"/>
	<rect x="75.146" y="79.466" fill="#BE9431" width="361.329" height="363.501"/>
	<path stroke="#000000" stroke-miterlimit="10" d="M256.006,451.09l-11.714-8.123C209.38,357.271,75.146,306.5,75.146,306.5
		l-10.267-4.467V78.858l18.523,0.608l80.994,67.014c51.9-19.089,79.896-67.014,79.896-67.014l11.518-10.154l11.943,10.146
		c0,0,27.991,47.927,79.89,67.021l80.999-67.007l18.524-0.606l-0.021,223.177l-10.267,4.465c0,0-134.237,50.758-169.157,136.451
		l-11.716,8.121"/>
	<path fill="#FFFFFF" stroke="#000000" stroke-miterlimit="10" d="M191.194,174.896c0,0-51.502,18.692-25.536,122.254
		c0,0-66.064-67.409-15.75-144.179L3.625,25.467c0,0-22.978,28.828,100.889,124.657l-0.606,18.289L15.825,90.855
		c0,0-12.579,23.153,90.054,109.643l-0.224,18.39l-63.083-57.571c0,0-3.14,27.82,59.385,89.139l-20.045,46.71
		c0,0,60.551,11.768,140.379,93.389c0,0-71.579-125.486-27.941-152.3c0,0,10.613-13.812,49.942,52.384
		C244.292,290.639,204.956,174.082,191.194,174.896z"/>
	<path fill="#FFFFFF" stroke="#FFFFFF" stroke-miterlimit="10" d="M255.808,87.995c-18.479,32.897-67.231,69.046-67.231,69.046
		c34.207,25.181,67.233,129.152,67.233,129.152h0.196c0,0,33.025-103.972,67.232-129.154c0,0-48.753-36.148-67.232-69.045"/>
	<polygon fill="#FFFFFF" stroke="#FFFFFF" stroke-miterlimit="10" points="83.402,466.93 165.576,466.93 222.193,286.193 	"/>
	<rect x="42.242" y="55.097" fill="#FFFFFF" width="16.22" height="152.914"/>
	<path fill="#FFFFFF" stroke="#000000" stroke-miterlimit="10" d="M320.803,177.665c0,0,51.502,18.694,25.532,122.257
		c0,0,66.066-67.41,15.754-144.18L508.375,28.241c0,0,22.978,28.829-100.891,124.654l0.604,18.289l88.086-77.555
		c0,0,12.578,23.153-90.059,109.641l0.223,18.391l63.085-57.57c0,0,3.14,27.82-59.386,89.136l20.043,46.711
		c0,0-60.552,11.768-140.382,93.387c0,0,71.583-125.486,27.945-152.302c0,0-10.612-13.812-49.943,52.382
		C267.701,293.404,307.041,176.85,320.803,177.665z"/>
	<rect x="453.508" y="53.326" fill="#FFFFFF" width="15.905" height="166.769"/>
	<polygon fill="#FFFFFF" stroke="#FFFFFF" stroke-miterlimit="10" points="431.493,466.926 349.317,466.928 292.693,286.195 	"/>
</g>
</svg>
